<?xml version="1.0" encoding="utf-8" ?>
<svg baseProfile="full" height="200mm" version="1.1" viewBox="0,0,200,200" width="200mm" xmlns="http://www.w3.org/2000/svg" xmlns:ev="http://www.w3.org/2001/xml-events" xmlns:xlink="http://www.w3.org/1999/xlink"><defs /><rect fill="#1a1a1a" height="200" width="200" x="0" y="0" /><text alignment-baseline="middle" fill="#e1ed5e" style="dominant-baseline: central; font-size:9.0px; font-family:Arial;" text-anchor="middle" x="100.0" y="100.0">2024</text><line stroke="#e1ed5e" stroke-width="0.3" x1="100.0" x2="100.0" y1="15.0" y2="10.0" /><path d="M 100.0 14.0 a86.0,86.0 0 0,1 42.35913384403234,11.155469271406648" fill="none" id="id109" stroke="none" /><text fill="#e1ed5e" style="font-size:6.75px; font-family:Arial;" text-anchor="middle"><textPath startOffset="22.145653131862478" xlink:href="#id109">January</textPath></text><path d="M 104.64783097203109 79.52079915486377 l 3.3280738648906643 -14.664107519547056 a36.03702513780584,36.03702513780584 0 0,0 0.6021063521773123,0.1420954596632459 l -3.5793123708078616 14.604815916237582" fill="red" stroke="none" /><path d="M 106.04205211174951 79.88797359093562 l 4.326570648712976 -14.401746548723867 a36.037603440441714,36.037603440441714 0 0,0 0.590946967313032,0.18307688106177383 l -4.573158248897638 14.325353079855446" fill="red" stroke="none" /><path d="M 108.07796709384702 80.6158196554323 l 5.783996321089681 -13.879485580687572 a36.036446835169976,36.036446835169976 0 0,0 0.56897246600133,0.24286051254179908 l -6.021403862261441 13.778150418486371" fill="red" stroke="none" /><path d="M 108.73861861582097 80.90454125486305 l 6.259683974171027 -13.678539176657752 a36.04280816416451,36.04280816416451 0 0,0 0.5603992213982845,0.26229513182990283 l -6.493571909440817 13.569067813257314" fill="red" stroke="none" /><line stroke="#e1ed5e" stroke-width="0.3" x1="143.13028292997686" x2="145.6673583964461" y1="26.7553504044142" y2="22.446841604673864" /><path d="M 143.63769802327073 25.89364864446614 a86.0,86.0 0 0,1 29.32050498858742,28.57503671076993" fill="none" id="id110" stroke="none" /><text fill="#e1ed5e" style="font-size:6.75px; font-family:Arial;" text-anchor="middle"><textPath startOffset="20.669276256404974" xlink:href="#id110">February</textPath></text><path d="M 112.7482090630111 83.31218511350987 l 14.69988527552263 -19.242621698315798 a45.21497712032826,45.21497712032826 0 0,0 0.6127491829519623,0.47647747084374503 l -15.028044403109819 18.98744317585126" fill="red" stroke="none" /><path d="M 115.41159269507618 85.73525988315684 l 11.200547353781378 -10.367059416197277 a36.26198486315799,36.26198486315799 0 0,0 0.41891623332567446,0.4604623237476532 l -11.37686128794893 10.173259516891951" fill="red" stroke="none" /><path d="M 117.81537515405839 88.88188828441811 l 12.758150098392818 -7.962029250098643 a36.038760045713445,36.038760045713445 0 0,0 0.3230309124718076,0.5276467188071539 l -12.892948975320028 7.741845415166935" fill="red" stroke="none" /><line stroke="#e1ed5e" stroke-width="0.3" x1="172.87174338648825" x2="177.1583165268699" y1="56.24261187166439" y2="53.66864786411523" /><path d="M 173.72905801456457 55.72781907015455 a86.0,86.0 0 0,1 12.242430191666344,42.057860355516425" fill="none" id="id111" stroke="none" /><text fill="#e1ed5e" style="font-size:6.75px; font-family:Arial;" text-anchor="middle"><textPath startOffset="22.145653131862474" xlink:href="#id111">March</textPath></text><path d="M 120.592083275326 95.88100663000786 l 14.914490581222122 -2.9833158209142647 a36.20993762592999,36.20993762592999 0 0,0 0.11668860644659595,0.610564096840261 l -14.963505479950875 2.726849159040689" fill="red" stroke="none" /><line stroke="#e1ed5e" stroke-width="0.3" x1="184.99686870605535" x2="189.99668451229388" y1="99.2704041080226" y2="99.22748670261217" /><path d="M 185.99683186730306 99.26182062694052 a86.0,86.0 0 0,1 -10.086455211305974,41.156179273409016" fill="none" id="id112" stroke="none" /><text fill="#e1ed5e" style="font-size:6.75px; font-family:Arial;" text-anchor="middle"><textPath startOffset="21.40746469413373" xlink:href="#id112">April</textPath></text><path d="M 120.96210409425399 101.26102812881392 l 15.008735301261813 0.9028882457463566 a36.03586853253411,36.03586853253411 0 0,0 -0.04244688778434937,0.6171684325731172 l -14.991024452312397 -1.1604001024738173" fill="red" stroke="none" /><path d="M 120.9064616781168 101.97986365728391 l 14.97407722046108 1.4180606812670506 a36.041073256256915,36.041073256256915 0 0,0 -0.06361696942868823,0.6154364705601578 l -14.947527858550727 -1.6749016741101397" fill="red" stroke="none" /><path d="M 120.77682067341334 103.0534771498775 l 14.880650785274423 2.1869432220823586 a36.04049495362105,36.04049495362105 0 0,0 -0.09521299441072356,0.6113357253104635 l -14.84091629872543 -2.442067129324273" fill="red" stroke="none" /><path d="M 119.16976305983485 108.57439118712176 l 13.729653550645581 6.141099399060841 a36.04049495362105,36.04049495362105 0 0,0 -0.2574587684455292,0.5625938729634707 l -13.622210317344996 -6.375882254239001" fill="red" stroke="none" /><path d="M 118.8641267826498 109.22738970284198 l 20.781717188251672 10.165379261902475 a44.13470779652926,44.13470779652926 0 0,0 -0.3387445730009248,0.6777160619953452 l -20.604152702039016 -10.520627180061565" fill="red" stroke="none" /><line stroke="#e1ed5e" stroke-width="0.3" x1="174.33088141563837" x2="178.70328620479359" y1="141.23008692659167" y2="143.65538615756765" /><path d="M 175.20536237346943 141.71514677278685 a86.0,86.0 0 0,1 -30.301960400862466,31.631185727798858" fill="none" id="id113" stroke="none" /><text fill="#e1ed5e" style="font-size:6.75px; font-family:Arial;" text-anchor="middle"><textPath startOffset="22.145653131862474" xlink:href="#id113">May</textPath></text><path d="M 118.18653347947321 110.5 l 25.042991573511138 14.458577926280178 a49.91715585256037,49.91715585256037 0 0,0 -0.4348171486182446,0.7384145784622232 l -24.79110071476313 -14.88634367303595" fill="red" stroke="none" /><path d="M 117.62189284568427 111.42229804090321 l 12.616437044832841 8.177822064992649 a36.03500107858031,36.03500107858031 0 0,0 -0.3409178122751982,0.5161930194528854 l -12.474194793636915 -8.393194962784595" fill="red" stroke="none" /><path d="M 117.01052211995028 112.31430620078461 l 12.179193126211723 8.816796590785696 a36.03557938121618,36.03557938121618 0 0,0 -0.367044650131847,0.4979665608699747 l -12.026046456496049 -9.024569460924548" fill="red" stroke="none" /><path d="M 116.57777611688842 112.89097897827486 l 11.869583916919904 9.22986024633341 a36.03586853253411,36.03586853253411 0 0,0 -0.3839254043673946,0.48507720656475506 l -11.709392081910948 -9.432257396812846" fill="red" stroke="none" /><path d="M 115.16444852881244 114.52719865689866 l 10.861826231102905 10.405383824946897 a36.04165155889278,36.04165155889278 0 0,0 -0.4318359638352863,0.4431017415670275 l -10.681603466116812 -10.590308258581661" fill="red" stroke="none" /><path d="M 112.45986205192187 116.90419585922612 l 8.924099766679946 12.10725525648683 a36.04078410493898,36.04078410493898 0 0,0 -0.5011711123644875,0.36280923613778887 l -8.71494764394149 -12.258665263997695" fill="red" stroke="none" /><path d="M 111.8722381534696 117.32195027204791 l 8.502409835343387 12.40527004736238 a36.03933834834931,36.03933834834931 0 0,0 -0.513309517834252,0.3453775518748091 l -8.288204029412132 -12.54939727329431" fill="red" stroke="none" /><path d="M 111.5731344415666 117.5232005979908 l 8.288044677646592 12.549155994411107 a36.03904919703138,36.03904919703138 0 0,0 -0.5191585800904034,0.33651231931858205 l -8.071400465299178 -12.689582155433584" fill="red" stroke="none" /><line stroke="#e1ed5e" stroke-width="0.3" x1="143.1302829299769" x2="145.66735839644613" y1="173.24464959558577" y2="177.55315839532614" /><path d="M 143.63769802327073 174.10635135553383 a86.0,86.0 0 0,1 -40.68552437913181,11.842963189579606" fill="none" id="id114" stroke="none" /><text fill="#e1ed5e" style="font-size:6.75px; font-family:Arial;" text-anchor="middle"><textPath startOffset="21.407464694133747" xlink:href="#id114">June</textPath></text><path d="M 109.3889696526874 118.78422872680471 l 12.928034503665492 25.86472915431856 a49.9157100959707,49.9157100959707 0 0,0 -0.7697471959707599,0.37652192607318474 l -12.482127058432663 -26.08284483048897" fill="red" stroke="none" /><path d="M 108.07796709384702 119.3841803445677 l 5.787444340126522 13.887759571168733 a36.04541052602591,36.04541052602591 0 0,0 -0.5732001923678799,0.23311552815548903 l -5.548189686568201 -13.985062355903514" fill="red" stroke="none" /><path d="M 106.72888874123015 119.89276391827305 l 4.8226600556985035 14.25733752413884 a36.050904401066646,36.050904401066646 0 0,0 -0.5879340497428835,0.19326560000457013 l -4.577203268307886 -14.33802404554543" fill="red" stroke="none" /><path d="M 105.3480935250658 120.30758222061773 l 3.85696319373191 14.645517474873136 a36.144878579394984,36.144878579394984 0 0,0 -0.6013728215548251,0.1528666195891086 l -3.6049850789516875 -14.709569326297514" fill="red" stroke="none" /><path d="M 104.9986988182912 120.39639698878246 l 2.457834873501056 10.02880502209146 a31.32559356339987,31.32559356339987 0 0,0 -0.5233877879242865,0.12351809283907128 l -2.28531493183689 -10.069519258576756" fill="red" stroke="none" /><path d="M 104.64783097203109 120.47920084513623 l 2.4390345192429996 10.746836123855422 a32.02013502907577,32.02013502907577 0 0,0 -0.5370807134366954,0.11705424174017054 l -2.2541913891871683 -10.787121823729311" fill="red" stroke="none" /><path d="M 103.2317021107853 120.74984581791261 l 6.674871949040748 42.85746614289558 a64.37414344659192,64.37414344659192 0 0,0 -1.0933638483528036,0.160686833655911 l -5.9381829950802585 -42.965734049850376" fill="red" stroke="none" /><path d="M 102.15924093988457 120.88869738790638 l 1.5477571141245907 14.973146067087939 a36.05292846029218,36.05292846029218 0 0,0 -0.6161624650308415,0.05835122606012055 l -1.2904950857087338 -14.997509048653242" fill="red" stroke="none" /><line stroke="#e1ed5e" stroke-width="0.3" x1="101.45913802915013" x2="101.54496967792366" y1="184.9874750549273" y2="189.98673829345242" /><path d="M 101.47630435890484 185.9873277026323 a86.0,86.0 0 0,1 -42.54439059252881,-10.42667462771756" fill="none" id="id115" stroke="none" /><text fill="#e1ed5e" style="font-size:6.75px; font-family:Arial;" text-anchor="middle"><textPath startOffset="22.145653131862474" xlink:href="#id115">July</textPath></text><path d="M 100.36049292484886 120.99690560180557 l 0.581895631147877 33.89250327849772 a54.89749815264436,54.89749815264436 0 0,0 -0.9423885559967251,0.00808927234107317 l -4.151246261173923e-15 -33.89749815264436" fill="red" stroke="none" /><path d="M 98.91894614982273 120.97215588758144 l -0.5109476516027455 9.912247940330925 a30.925408139380114,30.925408139380114 0 0,0 -0.5299372753126261,-0.031879710532464724 l 0.681029279047818 -9.902016251973768" fill="red" stroke="none" /><path d="M 97.48249496171623 120.84855314841334 l -2.4290314539633946 20.115864952408206 a41.26198945286144,41.26198945286144 0 0,0 -0.7024798258241003,-0.09095007758900045 l 2.773989101678289 -20.07120327861881" fill="red" stroke="none" /><path d="M 97.12497278360702 120.80226474461374 l -2.130509453766359 15.415305095356135 a36.56183477985487,36.56183477985487 0 0,0 -0.6209851694711432,-0.091263435113504 l 2.3948197288451873 -15.376460586943749" fill="red" stroke="none" /><path d="M 95.35216902796893 120.47920084513623 l -3.3311456967788753 14.677642577637558 a36.050904401066646,36.050904401066646 0 0,0 -0.6023382468062596,-0.14215018616426228 l 3.582616097325023 -14.618296247827068" fill="red" stroke="none" /><path d="M 94.30408787586889 120.21278271476187 l -4.083413646863772 14.490594478955632 a36.05495251951771,36.05495251951771 0 0,0 -0.594288610413696,-0.17298875323641905 l 4.3315622696590745 -14.418362031416697" fill="red" stroke="none" /><path d="M 92.25597844496254 119.51999308798841 l -23.232064665112382 58.55997926396522 a84.0,84.0 0 0,0 -1.3357821552382365,-0.5432509736828348 l 24.233901281541062 -58.152541033703095" fill="red" stroke="none" /><line stroke="#e1ed5e" stroke-width="0.3" x1="58.13341422392154" x2="55.67067388415222" y1="173.97424548756322" y2="178.32567169271397" /><path d="M 57.64086615596768 174.84453072859336 a86.0,86.0 0 0,1 -31.369924170532247,-30.572349798747897" fill="none" id="id116" stroke="none" /><text fill="#e1ed5e" style="font-size:6.75px; font-family:Arial;" text-anchor="middle"><textPath startOffset="22.145653131862474" xlink:href="#id116">August</textPath></text><path d="M 89.34428304082925 118.09573695890944 l -31.143759679991607 52.88891261282862 a82.37728280375805,82.37728280375805 0 0,0 -1.212386653259369,-0.7280033505843196 l 32.047079089808406 -52.346495261708384" fill="red" stroke="none" /><path d="M 88.4268655584334 117.5232005979908 l -33.62194771540653 50.907914125334806 a82.00861487339303,82.00861487339303 0 0,0 -1.1680514817454746,-0.7859171653997318 l 34.49089548524901 -50.32324728587795" fill="red" stroke="none" /><path d="M 88.1277618465304 117.32195027204791 l -17.17973273928281 25.065743489146772 a51.3880686068873,51.3880686068873 0 0,0 -0.7233602540616766,-0.5049616363234712 l 17.607488084518252 -24.767137037018173" fill="red" stroke="none" /><path d="M 87.83215693770417 117.11559508785305 l -16.94603868723889 23.83672562416733 a50.246499203686454,50.246499203686454 0 0,0 -0.6987110442717357,-0.5058129129934857 l 17.352730741884578 -23.542311939800776" fill="red" stroke="none" /><path d="M 87.2517909369889 116.68781488649013 l -11.221026522455784 14.68868391768506 a39.48428715020722,39.48428715020722 0 0,0 -0.5350874031483818,-0.41608720113540415 l 11.471523870239395 -14.493895664928862" fill="red" stroke="none" /><path d="M 85.86807049272751 115.53346607816431 l -11.766889528092868 12.933872847021764 a38.48555849806544,38.48555849806544 0 0,0 -0.48486347680680303,-0.4487823955409765 l 11.987182776213638 -12.72997270534841" fill="red" stroke="none" /><path d="M 84.3458050057657 113.99807769240083 l -11.227057972517068 10.039304468499695 a36.06102469719431,36.06102469719431 0 0,0 -0.408672614297533,-0.4649944160735094 l 11.397741650773193 -9.845097774614885" fill="red" stroke="none" /><path d="M 82.98947788004972 112.3143062007846 l -12.19371475112423 8.827309127346567 a36.05350676292805,36.05350676292805 0 0,0 -0.35862062894398206,-0.5044448259014844 l 12.343450478598172 -8.616687074735578" fill="red" stroke="none" /><line stroke="#e1ed5e" stroke-width="0.3" x1="26.387840678322732" x2="22.057713659400548" y1="142.50000000000003" y2="145.00000000000006" /><path d="M 25.521815274538298 143.00000000000003 a86.0,86.0 0 0,1 -11.493303480769221,-40.785679425670985" fill="none" id="id117" stroke="none" /><text fill="#e1ed5e" style="font-size:6.75px; font-family:Arial;" text-anchor="middle"><textPath startOffset="21.40746469413373" xlink:href="#id117">September</textPath></text><path d="M 80.5471966667186 107.91128576633889 l -13.935049447867366 5.667263296777766 a36.043386466800385,36.043386466800385 0 0,0 -0.22817407407640486,-0.575147721009674 l 14.030282196909894 -5.427214558554526" fill="red" stroke="none" /><path d="M 79.13060592940153 102.33845913500099 l -19.157536522006193 2.146641926088064 a40.2774292152984,40.2774292152984 0 0,0 -0.07109466371429322,-0.6877763795559688 l 19.191563578202153 -1.8174610242491638" fill="red" stroke="none" /><path d="M 79.03789590574601 101.26102812881392 l -28.86266387290154 1.7363061862767362 a49.91484264201689,49.91484264201689 0 0,0 -0.04411143533148201,-0.8557500609660965 l 28.888216897689592 -1.2405843319339087" fill="red" stroke="none" /><path d="M 79.00696218219943 100.54070618675478 l -15.030594598210183 0.3871347996602872 a36.03557938121618,36.03557938121618 0 0,0 -0.010619459422969355,-0.6185302725143523 l 15.035025489231819 -0.12905761117688244" fill="red" stroke="none" /><line stroke="#e1ed5e" stroke-width="0.3" x1="15.003131293944662" x2="10.003315487706104" y1="100.72959589197737" y2="100.7725132973878" /><path d="M 14.003168132696942 100.73817937305945 a86.0,86.0 0 0,1 10.791469493833604,-42.45332614584628" fill="none" id="id118" stroke="none" /><text fill="#e1ed5e" style="font-size:6.75px; font-family:Arial;" text-anchor="middle"><textPath startOffset="22.145653131862435" xlink:href="#id118">October</textPath></text><path d="M 79.13060592940154 97.66154086499901 l -14.962470214055442 -1.6765759962112226 a36.056109124789444,36.056109124789444 0 0,0 0.07420332447462553,-0.6145099733952728 l 14.931484803321148 1.9331796465299316" fill="red" stroke="none" /><path d="M 79.64726062577567 94.8264132398404 l -22.435102824259474 -5.702915406139601 a44.14858705979006,44.14858705979006 0 0,0 0.19301450950938562,-0.7329075311161057 l 22.333898833945362 6.087203441628492" fill="red" stroke="none" /><path d="M 79.83685265289637 94.1308016681162 l -14.456398902753824 -4.20804703077655 a36.05639827610738,36.05639827610738 0 0,0 0.17809058650536386,-0.5928056416521972 l 14.38203199624483 4.45559027601947" fill="red" stroke="none" /><path d="M 80.16572619554312 93.10060997987247 l -14.220059795449755 -4.946474955705047 a36.055819973471515,36.055819973471515 0 0,0 0.20836800861460467,-0.5828424047626738 l 14.133051616791208 5.189852316848643" fill="red" stroke="none" /><path d="M 80.28708602549916 92.7611449362534 l -14.125994455293261 -5.187260829394724 a36.04830203920525,36.04830203920525 0 0,0 0.21829704380840023,-0.5790588439507628 l 14.034866727670424 5.4289879535396315" fill="red" stroke="none" /><line stroke="#e1ed5e" stroke-width="0.3" x1="26.387840678322718" x2="22.05771365940052" y1="57.49999999999999" y2="54.99999999999999" /><path d="M 25.521815274538284 56.99999999999999 a86.0,86.0 0 0,1 29.574782752854787,-30.34633250058573" fill="none" id="id119" stroke="none" /><text fill="#e1ed5e" style="font-size:6.75px; font-family:Arial;" text-anchor="middle"><textPath startOffset="21.40746469413373" xlink:href="#id119">November</textPath></text><path d="M 81.81346652052679 89.5 l -13.034465561254725 -7.525452200533325 a36.050904401066646,36.050904401066646 0 0,0 0.3140313423120538,-0.5332938730548309 l 12.903360508812893 7.748097241881728" fill="red" stroke="none" /><path d="M 82.78059297857968 87.97951657250589 l -12.34819239691652 -8.619997301997731 a36.059289789286716,36.059289789286716 0 0,0 0.35867815212925386,-0.5045257394653953 l 12.198399146257294 8.830700268172647" fill="red" stroke="none" /><path d="M 82.98947788004972 87.6856937992154 l -12.197930706743984 -8.830361154090035 a36.05871148665084,36.05871148665084 0 0,0 0.3672802649240177,-0.4982862175866876 l 12.044548422236147 9.038453680945587" fill="red" stroke="none" /><path d="M 86.13680546590413 84.22622945171909 l -9.93951325164297 -11.309341509088098 a36.05639827610738,36.05639827610738 0 0,0 0.4684250159793117,-0.4046143721882855 l 9.74390875590081 11.478300013741094" fill="red" stroke="none" /><line stroke="#e1ed5e" stroke-width="0.3" x1="56.869717070023135" x2="54.33264160355391" y1="26.7553504044142" y2="22.446841604673864" /><path d="M 56.362301976729285 25.89364864446614 a86.0,86.0 0 0,1 42.16139366436587,-11.88097634709845" fill="none" id="id120" stroke="none" /><text fill="#e1ed5e" style="font-size:6.75px; font-family:Arial;" text-anchor="middle"><textPath startOffset="22.145653131862474" xlink:href="#id120">December</textPath></text><path d="M 96.76829788921471 79.25015418208739 l -2.3175272880899933 -14.880187671439536 a36.059578940604645,36.059578940604645 0 0,0 0.6124545957367387,-0.09000973454098257 l 2.06174758674557 14.917778479279404" fill="red" stroke="none" /><path d="M 97.48249496171623 79.15144685158666 l -1.8048056580480425 -14.946379892857351 a36.05495251951771,36.05495251951771 0 0,0 0.6151045265348097,-0.06892374518349112 l 1.5479652299124336 14.975159398547813" fill="red" stroke="none" /><path d="M 98.1996594967304 79.07731436759882 l -1.2907181874927063 -15.00010182956409 a36.05553082215358,36.05553082215358 0 0,0 0.6171178898723715,-0.0477688276024277 l 1.0330313028451177 15.02004842416157" fill="red" stroke="none" /></svg>