<?xml version="1.0" encoding="utf-8" ?>
<svg baseProfile="full" height="200mm" version="1.1" viewBox="0,0,200,200" width="200mm" xmlns="http://www.w3.org/2000/svg" xmlns:ev="http://www.w3.org/2001/xml-events" xmlns:xlink="http://www.w3.org/1999/xlink"><defs /><rect fill="#1a1a1a" height="200" width="200" x="0" y="0" /><text alignment-baseline="middle" fill="#e1ed5e" style="dominant-baseline: central; font-size:9.0px; font-family:Arial;" text-anchor="middle" x="100.0" y="100.0">2023</text><line stroke="#e1ed5e" stroke-width="0.3" x1="100.0" x2="100.0" y1="15.0" y2="10.0" /><path d="M 100.0 14.0 a86.0,86.0 0 0,1 42.46469731375804,11.215312516191453" fill="none" id="id25" stroke="none" /><text fill="#e1ed5e" style="font-size:6.75px; font-family:Arial;" text-anchor="middle"><textPath startOffset="22.20632615414155" xlink:href="#id25">January</textPath></text><path d="M 101.80526077348638 79.07773832637324 l 1.34737978590935 -15.6156012851865 a36.673622293056425,36.673622293056425 0 0,0 0.6284721505644795,0.059681003453391654 l -1.6159770635640736 15.59009473721793" fill="#ff990e" stroke="none" /><path d="M 106.74666289553966 80.11325718540242 l 3.2022237601526267 -9.439007304640958 a30.967401662778087,30.967401662778087 0 0,0 0.5033205464241459,0.17559865568938945 l -3.3642263106400465 9.38248779577936" fill="#ff4506" stroke="none" /><path d="M 107.76421540070413 80.48803036053334 l 7.779560348213941 -19.55053247350439 a42.041503729749266,42.041503729749266 0 0,0 0.6700937831003357,0.27334807917951004 l -8.114938000902665 19.4137235081413" fill="#ffe315" stroke="none" /><path d="M 108.43124777332544 80.76684994638697 l 8.070672480203314 -18.410614777140193 a41.101902665045515,41.101902665045515 0 0,0 0.6455305935223767,0.2896307605483399 l -8.38638519219247 18.26896368607532" fill="#ffd614" stroke="none" /><path d="M 108.76106565485865 80.91482961587045 l 15.437616502987325 -33.62941825700961 a58.00348329006606,58.00348329006606 0 0,0 0.903809693001395,0.4243507696290285 l -16.014204407288318 33.35870250474058" fill="#58ff2a" stroke="none" /><path d="M 110.36928655335952 81.73862282372117 l 7.4003050849203635 -13.03269628820136 a35.987184121455094,35.987184121455094 0 0,0 0.5360432753601432,0.3105108642879279 l -7.623545092745835 12.903381266523382" fill="#ff8f0d" stroke="none" /><line stroke="#e1ed5e" stroke-width="0.3" x1="143.23703022742887" x2="145.7803849466894" y1="26.81831364943548" y2="22.513508569990506" /><path d="M 143.74570117128098 25.957352633546492 a86.0,86.0 0 0,1 28.547481713284135,27.462654790039103" fill="none" id="id26" stroke="none" /><text fill="#e1ed5e" style="font-size:6.75px; font-family:Arial;" text-anchor="middle"><textPath startOffset="19.985693538727396" xlink:href="#id26">February</textPath></text><path d="M 111.2981086023043 82.29822771554956 l 8.041861074971406 -12.599913711512365 a35.947553481647006,35.947553481647006 0 0,0 0.5187282879677213,0.3373953078602633 l -8.257556388723406 12.459619479492572" fill="#ff8e0d" stroke="none" /><path d="M 112.19680574252982 82.90503203632743 l 8.728952300776058 -12.234445894129799 a36.02918076960994,36.02918076960994 0 0,0 0.5017572697146874,0.36454799518357445 l -8.938254886844534 12.08237866412955" fill="#ff900d" stroke="none" /><path d="M 113.6212207817346 84.01681056812373 l 9.736285454534027 -11.424592353081417 a36.01054845387927,36.01054845387927 0 0,0 0.4683192427088384,0.4061218323826544 l -9.93149849588963 11.255305527279091" fill="#ff8f0d" stroke="none" /><path d="M 114.68862486808459 84.99185889309783 l 31.431976090493883 -32.115704272623475 a65.93759652985443,65.93759652985443 0 0,0 0.8043262692361948,0.8008722366220479 l -31.9801381598974 31.56989618535131" fill="#35ff64" stroke="none" /><path d="M 116.38621287248628 86.86637796730983 l 11.6865912965948 -9.366854570632341 a35.977128585981404,35.977128585981404 0 0,0 0.3831494285809995,0.4865608648642042 l -11.846094805769763 9.164301311815098" fill="#ff8f0d" stroke="none" /><line stroke="#e1ed5e" stroke-width="0.3" x1="172.23445277983987" x2="176.4835382374775" y1="55.19839476539836" y2="52.563006222186495" /><path d="M 173.08426987136738 54.67131705675599 a86.0,86.0 0 0,1 12.851231095245387,41.99856678651699" fill="none" id="id27" stroke="none" /><text fill="#e1ed5e" style="font-size:6.75px; font-family:Arial;" text-anchor="middle"><textPath startOffset="22.20632615414155" xlink:href="#id27">March</textPath></text><path d="M 119.04729006885535 91.15688171328212 l 13.602971773027344 -6.315475220092254 a35.99753540797214,35.99753540797214 0 0,0 0.25609278023718646,0.5642664948682373 l -13.709666870227878 6.080386716381954" fill="#ff8f0d" stroke="none" /><path d="M 119.34039704204932 91.81776055985345 l 14.297405105708153 -6.048727525775864 a36.524268016167724,36.524268016167724 0 0,0 0.23997889945653506,0.5811279399895583 l -14.399405692050886 5.801725015333003" fill="#ff970d" stroke="none" /><path d="M 119.7369772167798 92.82701384747503 l 14.632827778387725 -5.317991193576643 a36.56922217475601,36.56922217475601 0 0,0 0.20991938430230633,0.5934703674709203 l -14.72220024349984 5.065323199679108" fill="#ff970d" stroke="none" /><path d="M 119.97218684219823 93.5106431181261 l 42.60515047871213 -13.843252551500411 a65.79770628635274,65.79770628635274 0 0,0 0.34072093996528985,1.080178490083022 l -42.837126902445625 13.10782389499097" fill="#35ff62" stroke="none" /><path d="M 120.28053869075195 94.5502522615342 l 15.011542071879822 -4.033873000346715 a36.54408333607177,36.54408333607177 0 0,0 0.1580160388263173,0.6089002563967716 l -15.078754442576441 3.7748763184010934" fill="#ff970d" stroke="none" /><path d="M 120.45610955862082 95.25157060432595 l 8.763735093066453 -2.0343055561256334 a29.996746738523214,29.996746738523214 0 0,0 0.11242439714286187,0.503976528182472 l -8.797453877211352 1.8831508583931975" fill="#ff3605" stroke="none" /><path d="M 120.6074358757038 95.95851677861258 l 15.30603980877689 -3.001785542178581 a36.59761427491702,36.59761427491702 0 0,0 0.11591732476772884,0.6192349840212892 l -15.355442857454477 2.7378724806947288" fill="#ff980e" stroke="none" /><path d="M 120.83666639777658 97.38593545837742 l 15.457518449272328 -1.93922339151292 a36.57868620814301,36.57868620814301 0 0,0 0.07299999174170307,0.6254193488992428 l -15.48860879401762 1.6728603042888246" fill="#ff970e" stroke="none" /><path d="M 120.91429891909075 98.10471618934814 l 15.530720366062111 -1.4074161888682806 a36.59436101344024,36.59436101344024 0 0,0 0.05145082848655145,0.6278304277055776 l -15.552645678368158 1.1398718439549342" fill="#ff980e" stroke="none" /><line stroke="#e1ed5e" stroke-width="0.3" x1="184.98032266829074" x2="189.97916517819016" y1="98.17113171792111" y2="98.06355123074" /><path d="M 185.9800911702706 98.14961562048488 a86.0,86.0 0 0,1 -9.607161424134198,41.387399972396054" fill="none" id="id28" stroke="none" /><text fill="#e1ed5e" style="font-size:6.75px; font-family:Arial;" text-anchor="middle"><textPath startOffset="21.466115282336823" xlink:href="#id28">April</textPath></text><path d="M 120.99513854157772 99.54816195383933 l 15.427238484348438 -0.3320108262500104 a36.430810686471034,36.430810686471034 0 0,0 0.008096301627124406,0.6270674834582239 l -15.430667793093278 0.06640708473132372" fill="#ff950d" stroke="none" /><path d="M 120.9764740272857 100.99374915477107 l 24.485567911634494 1.1599905868176466 a45.51302947652065,45.51302947652065 0 0,0 -0.043808781327805926,0.7822352196826612 l -24.461972779419156 -1.581297522835731" fill="#eeff19" stroke="none" /><path d="M 120.76222939487914 103.15116336523771 l 5.4240650550191996 0.8232312034977409 a26.48618185403043,26.48618185403043 0 0,0 -0.0722924513114715,0.4501651633250666 l -5.40909084934644 -0.9164755965160125" fill="#ff0000" stroke="none" /><path d="M 120.64145759157962 103.86396538481128 l 37.96097163332739 7.106081521336742 a59.62035424402747,59.62035424402747 0 0,0 -0.19751390670341137,1.0071191550197682 l -37.83302779364832 -7.758464403424456" fill="#47ff2c" stroke="none" /><path d="M 120.41448212921028 104.9243191809786 l 61.24344638763086 14.772957542935806 a84.0,84.0 0 0,0 -0.35115474281975656,1.4026886424104164 l -60.980080330516046 -15.82497402474362" fill="#4dd2ff" stroke="none" /><line stroke="#e1ed5e" stroke-width="0.3" x1="174.80103733775053" x2="179.2010983576182" y1="140.37084112569926" y2="142.7455964860345" /><path d="M 175.68104954172406 140.8457921977663 a86.0,86.0 0 0,1 -30.038265399797805,32.042727171017184" fill="none" id="id29" stroke="none" /><text fill="#e1ed5e" style="font-size:6.75px; font-family:Arial;" text-anchor="middle"><textPath startOffset="22.206326154141568" xlink:href="#id29">May</textPath></text><path d="M 118.48025628344425 109.97397251340804 l 13.56837061114558 7.322980452848861 a36.41838914265059,36.41838914265059 0 0,0 -0.3024869617263465,0.5491016988106886 l -13.440307239967723 -7.555452670057354" fill="#ff950d" stroke="none" /><path d="M 117.94076556474637 110.91462005526583 l 13.168986999646707 8.011614058227112 a36.41454437908712,36.41454437908712 0 0,0 -0.3303932540283962,0.5326991249960772 l -13.029129105950348 -8.237109514588463" fill="#ff950d" stroke="none" /><path d="M 116.71984013943494 112.70617746262583 l 12.27938930120018 9.33167412442685 a36.422825408300746,36.422825408300746 0 0,0 -0.38364193704631655,0.4959089190859112 l -12.116940546935794 -9.541661037626016" fill="#ff950d" stroke="none" /><path d="M 114.29624159901734 115.38237550388516 l 10.476295400672283 11.272215052230429 a36.38881403831619,36.38881403831619 0 0,0 -0.4624852791044332,0.4224693370417706 l -10.280710572100986 -11.450877155858782" fill="#ff950d" stroke="none" /><path d="M 112.34349029814194 116.9893568818739 l 9.047751675416421 12.453161826955927 a36.392954552923,36.392954552923 0 0,0 -0.5099739039887026,0.36385283984898714 l -8.832050443578835 -12.607058928649135" fill="#ff950d" stroke="none" /><line stroke="#e1ed5e" stroke-width="0.3" x1="143.8653032363475" x2="146.44561519142675" y1="172.8068346515853" y2="177.08958963109032" /><path d="M 144.38136562736335 173.6633856474863 a86.0,86.0 0 0,1 -40.68145358897372,12.25698825130547" fill="none" id="id30" stroke="none" /><text fill="#e1ed5e" style="font-size:6.75px; font-family:Arial;" text-anchor="middle"><textPath startOffset="21.466115282336833" xlink:href="#id30">June</textPath></text><path d="M 109.89434966115114 118.52300852407294 l 7.2525368888013615 13.577325161640948 a36.392954552923,36.392954552923 0 0,0 -0.5550949727257632,0.29039945432151537 l -7.017751013549102 -13.70015403490718" fill="#ff950d" stroke="none" /><path d="M 104.13013068566511 120.58985236759428 l 3.027493186809265 15.092897175543467 a36.39354605500969,36.39354605500969 0 0,0 -0.6152803557192681,0.11791994455318641 l -2.767245216518293 -15.142774318445122" fill="#ff950d" stroke="none" /><path d="M 103.41894727170886 120.7198165907248 l 2.506032800715802 15.187288915169157 a36.39265880187966,36.39265880187966 0 0,0 -0.6189596453315832,0.09666876705276654 l -2.244237291775702 -15.22817598956903" fill="#ff950d" stroke="none" /><line stroke="#e1ed5e" stroke-width="0.3" x1="102.19456741930631" x2="102.32365962044197" y1="184.97166512339345" y2="189.96999836594603" /><path d="M 102.22038585953345 185.97133177190398 a86.0,86.0 0 0,1 -42.740103519485714,-10.115201625700543" fill="none" id="id31" stroke="none" /><text fill="#e1ed5e" style="font-size:6.75px; font-family:Arial;" text-anchor="middle"><textPath startOffset="22.20632615414155" xlink:href="#id31">July</textPath></text><line stroke="#e1ed5e" stroke-width="0.3" x1="58.666819895761336" x2="56.23545636021788" y1="174.27360380694188" y2="178.64263932499728" /><path d="M 58.180547188652646 175.14741091055294 a86.0,86.0 0 0,1 -31.652253787137756,-30.449443065178592" fill="none" id="id32" stroke="none" /><text fill="#e1ed5e" style="font-size:6.75px; font-family:Arial;" text-anchor="middle"><textPath startOffset="22.20632615414155" xlink:href="#id32">August</textPath></text><path d="M 88.24862548938628 117.40417183066458 l -4.530041589702019 6.709140463187689 a29.095297558410827,29.095297558410827 0 0,0 -0.41265876512481403,-0.28383046147635915 l 4.644857239449723 -6.630169212346228" fill="#ff2903" stroke="none" /><line stroke="#e1ed5e" stroke-width="0.3" x1="26.63291911575756" x2="22.317208475507996" y1="142.92168965132927" y2="145.44649492493687" /><path d="M 25.769776987707644 143.4266507060508 a86.0,86.0 0 0,1 -11.730757126820373,-40.83630448921669" fill="none" id="id33" stroke="none" /><text fill="#e1ed5e" style="font-size:6.75px; font-family:Arial;" text-anchor="middle"><textPath startOffset="21.46611528233685" xlink:href="#id33">September</textPath></text><path d="M 80.32549172779594 107.34259656027581 l -14.40696363595276 5.376730141043307 a36.37757549866912,36.37757549866912 0 0,0 -0.21389276273982913,-0.588541019773768 l 14.497380659697814 -5.127941324263421" fill="#ff940d" stroke="none" /><path d="M 80.0844068197444 106.66101706037122 l -14.590233290916446 4.879884419508078 a36.384673523709374,36.384673523709374 0 0,0 -0.19354523699248793,-0.5956709895904655 l 14.672070778925184 -4.628014529939809" fill="#ff950d" stroke="none" /><path d="M 79.86692584326677 105.97154293290107 l -18.907417492408232 5.608008713783065 a40.72156682330518,40.72156682330518 0 0,0 -0.19353867650001894,-0.6737335227855925 l 19.001148805794358 -5.281717715492877" fill="#ffd113" stroke="none" /><path d="M 79.58551787078972 104.9243191809786 l -28.752797130436473 6.935662120647292 a50.57747034274259,50.57747034274259 0 0,0 -0.19686541916571,-0.8480910733191722 l 28.86792311553274 -6.439702389979545" fill="#aeff20" stroke="none" /><path d="M 79.1416061653843 102.43462659150553 l -15.278876053921023 1.7833759504272297 a36.382603266405965,36.382603266405965 0 0,0 -0.0672518535334377,-0.6226686396834783 l 15.307310208955514 -1.5201109888589692" fill="#ff950d" stroke="none" /><path d="M 79.04373962182676 101.35467743843564 l -15.3461367527081 0.9920217085913994 a36.37816700075581,36.37816700075581 0 0,0 -0.03501597633847875,-0.6252337799259817 l 15.360939079934111 -0.7277162123299801" fill="#ff940d" stroke="none" /><line stroke="#e1ed5e" stroke-width="0.3" x1="15.007084014347285" x2="10.007500721073583" y1="101.09737516637583" y2="101.16192664675087" /><path d="M 14.007167355692545 101.11028546245083 a86.0,86.0 0 0,1 10.666146001902534,-42.60595125391555" fill="none" id="id34" stroke="none" /><text fill="#e1ed5e" style="font-size:6.75px; font-family:Arial;" text-anchor="middle"><textPath startOffset="22.20632615414155" xlink:href="#id34">October</textPath></text><path d="M 79.00175016825051 100.2711162175752 l -19.71045995675372 0.254489083278869 a40.71210278991818,40.71210278991818 0 0,0 -0.0030159966028717924,-0.7008113943311012 l 19.711920250646095 0.08483178925590755" fill="#ffd113" stroke="none" /><path d="M 79.03285615573316 98.82574320788736 l -15.353811357682716 -0.8598842744385063 a36.37787124971247,36.37787124971247 0 0,0 0.04039573609813544,-0.6249041578621303 l 15.336735030580167 1.1240474965536484" fill="#ff940d" stroke="none" /><path d="M 79.21141760316559 97.0276538004421 l -16.25742347203019 -2.32448225421329 a37.42275968584667,37.42275968584667 0 0,0 0.0966649601997358,-0.6369013108790017 l 16.21500261839115 2.603982677484384" fill="#ffa30f" stroke="none" /><path d="M 79.81627453868168 94.20196356495316 l -14.786383683652327 -4.24758013602107 a36.38437777266603,36.38437777266603 0 0,0 0.1780999748709502,-0.6004645770246883 l 14.71107781166967 4.501474099792297" fill="#ff950d" stroke="none" /><path d="M 80.02781315780177 93.51064311812611 l -14.628318694313638 -4.753028866554529 a36.38112451118924,36.38112451118924 0 0,0 0.1986456281942411,-0.5939251442079836 l 14.544335772347624 5.004127113684834" fill="#ff950d" stroke="none" /><path d="M 80.2630227832202 92.82701384747504 l -14.460212500945733 -5.255257828623819 a36.385560776839405,36.385560776839405 0 0,0 0.21899847271369788,-0.5868070276822956 l 14.367609439730407 5.503387993335456" fill="#ff950d" stroke="none" /><path d="M 80.803312248108 91.48605970444005 l -14.060046051135295 -6.2357837028625465 a36.3808287601459,36.3808287601459 0 0,0 0.2588195963675647,-0.5702746727583543 l 13.950624137804379 6.476880384462972" fill="#ff950d" stroke="none" /><path d="M 81.43458229118936 90.18545643968196 l -13.6078880744971 -7.193762745650616 a36.392363050836316,36.392363050836316 0 0,0 0.2975368564823591,-0.5512906070447477 l 13.482043118796268 7.426934336027837" fill="#ff950d" stroke="none" /><line stroke="#e1ed5e" stroke-width="0.3" x1="26.266209847984243" x2="21.928928074336255" y1="57.711370442889674" y2="55.22380399835377" /><path d="M 25.398753493254645 57.213857153982495 a86.0,86.0 0 0,1 29.58750427330803,-30.492523968695096" fill="none" id="id35" stroke="none" /><text fill="#e1ed5e" style="font-size:6.75px; font-family:Arial;" text-anchor="middle"><textPath startOffset="21.46611528233685" xlink:href="#id35">November</textPath></text><path d="M 81.78341655067845 89.55222093294921 l -13.343736955728113 -7.653049543023966 a36.382603266405965,36.382603266405965 0 0,0 0.316252011612703,-0.5405772024418669 l 13.210025269645085 7.881606157819725" fill="#ff950d" stroke="none" /><path d="M 82.34701348167596 88.62581576622439 l -24.861128438282663 -16.01853911931902 a50.5748085833525,50.5748085833525 0 0,0 0.47781962805077477,-0.7277520748417315 l 24.581712174873967 16.44410925813842" fill="#aeff20" stroke="none" /><path d="M 84.07557802195018 86.31012108654704 l -11.661129090692457 -10.024818826439681 a36.37787124971247,36.37787124971247 0 0,0 0.41229663538805755,-0.47132632692852205 l 11.486840591726557 10.224060709571146" fill="#ff940d" stroke="none" /><path d="M 84.5562425177563 85.77008943001954 l -11.31067079644985 -10.421675819826971 a36.37994150701587,36.37994150701587 0 0,0 0.4283004935875096,-0.45688110417084393 l 11.129602980891883 10.614826340875865" fill="#ff950d" stroke="none" /><path d="M 85.31137513191541 84.99185889309783 l -43.425625788900234 -44.37024740903008 a83.08465052085046,83.08465052085046 0 0,0 1.0307116028231902,-0.9915437452841656 l 42.65543094246462 45.111174241076554" fill="#4cdbff" stroke="none" /><path d="M 87.51073957382395 83.11751280151077 l -9.148444677461447 -12.36650489164464 a36.382603266405965,36.382603266405965 0 0,0 0.506679177547744,-0.36812397054321616 l 8.93422018355992 12.522148097004523" fill="#ff950d" stroke="none" /><line stroke="#e1ed5e" stroke-width="0.3" x1="56.762969772571076" x2="54.21961505331055" y1="26.818313649435495" y2="22.513508569990535" /><path d="M 56.25429882871897 25.957352633546506 a86.0,86.0 0 0,1 42.265352541879196,-11.944610805530505" fill="none" id="id36" stroke="none" /><text fill="#e1ed5e" style="font-size:6.75px; font-family:Arial;" text-anchor="middle"><textPath startOffset="22.20632615414155" xlink:href="#id36">December</textPath></text><path d="M 89.3179101791058 81.91981866633112 l -7.82347980272629 -13.241784694312415 a36.38023725805921,36.38023725805921 0 0,0 0.5418979565718011,-0.3139022735392399 l 7.594385113689168 13.374491125241702" fill="#ff950d" stroke="none" /><path d="M 93.25333710446033 80.11325718540243 l -4.9420587631837565 -14.567416976330486 a36.38289901744931,36.38289901744931 0 0,0 0.5948035337766723,-0.19609737335416508 l 4.690572407164675 14.650328073943886" fill="#ff950d" stroke="none" /><path d="M 97.11714578562143 79.19881850522333 l -4.059912207127324 -29.294221765396895 a50.574217081265814,50.574217081265814 0 0,0 0.863338663851434,-0.11208613655347958 l 3.555058814768032 29.359766225114512" fill="#aeff20" stroke="none" /></svg>