<?xml version="1.0" encoding="utf-8" ?>
<svg baseProfile="full" height="200mm" version="1.1" viewBox="0,0,200,200" width="200mm" xmlns="http://www.w3.org/2000/svg" xmlns:ev="http://www.w3.org/2001/xml-events" xmlns:xlink="http://www.w3.org/1999/xlink"><defs /><rect fill="#1a1a1a" height="200" width="200" x="0" y="0" /><text alignment-baseline="middle" fill="#e1ed5e" style="dominant-baseline: central; font-size:9.0px; font-family:Arial;" text-anchor="middle" x="100.0" y="100.0">2025</text><line stroke="#e1ed5e" stroke-width="0.3" x1="100.0" x2="100.0" y1="15.0" y2="10.0" /><path d="M 100.0 14.0 a86.0,86.0 0 0,1 42.46469731375804,11.215312516191453" fill="none" id="id121" stroke="none" /><text fill="#e1ed5e" style="font-size:6.75px; font-family:Arial;" text-anchor="middle"><textPath startOffset="22.20632615414155" xlink:href="#id121">January</textPath></text><path d="M 100.0 79.0 l 0.0 -5.416748140416704 a26.416748140416704,26.416748140416704 0 0,0 0.45472089421997636,0.00391392629706112 l -0.09324041494744796 5.415945590728202" fill="#ff3a05" stroke="none" /><path d="M 100.72285384407766 79.0124445844662 l 0.18652840948369384 -5.415721812485536 a26.41893306821335,26.41893306821335 0 0,0 0.4543542798132332,0.019565451048373726 l -0.2797235216862585 5.4117086349129675" fill="#ff3a05" stroke="none" /><path d="M 102.52436894288641 79.15227682838746 l 1.2515577350029385 -10.336099747288717 a31.41159712772001,31.41159712772001 0 0,0 0.5362188059206129,0.06961659059127032 l -1.4292912694313975 10.31302483353331" fill="#ff7f0b" stroke="none" /><line stroke="#e1ed5e" stroke-width="0.3" x1="143.23703022742887" x2="145.7803849466894" y1="26.81831364943548" y2="22.513508569990506" /><path d="M 143.74570117128098 25.957352633546492 a86.0,86.0 0 0,1 28.547481713284135,27.462654790039103" fill="none" id="id122" stroke="none" /><text fill="#e1ed5e" style="font-size:6.75px; font-family:Arial;" text-anchor="middle"><textPath startOffset="19.985693538727396" xlink:href="#id122">February</textPath></text><path d="M 110.99172775467656 82.1063720568725 l 0.7324647817073802 -1.192392367955044 a22.399394231658498,22.399394231658498 0 0,0 0.32679739957349374,0.20464050163247072 l -0.7528813336531371 1.1796075249996292" fill="#ff0000" stroke="none" /><line stroke="#e1ed5e" stroke-width="0.3" x1="172.23445277983987" x2="176.4835382374775" y1="55.19839476539836" y2="52.563006222186495" /><path d="M 173.08426987136738 54.67131705675599 a86.0,86.0 0 0,1 12.851231095245387,41.99856678651699" fill="none" id="id123" stroke="none" /><text fill="#e1ed5e" style="font-size:6.75px; font-family:Arial;" text-anchor="middle"><textPath startOffset="22.20632615414155" xlink:href="#id123">March</textPath></text><line stroke="#e1ed5e" stroke-width="0.3" x1="184.98032266829074" x2="189.97916517819016" y1="98.17113171792111" y2="98.06355123074" /><path d="M 185.9800911702706 98.14961562048488 a86.0,86.0 0 0,1 -9.607161424134198,41.387399972396054" fill="none" id="id124" stroke="none" /><text fill="#e1ed5e" style="font-size:6.75px; font-family:Arial;" text-anchor="middle"><textPath startOffset="21.466115282336823" xlink:href="#id124">April</textPath></text><path d="M 120.02730092923936 106.31721596034902 l 5.71694518195703 1.8032972828191802 a26.994609520537992,26.994609520537992 0 0,0 -0.14359557448736607,0.44194173561099254 l -5.685057356453417 -1.901437918407968" fill="#ff4206" stroke="none" /><path d="M 119.67450827220406 107.3425965602758 l 5.303336500635172 1.979224070497521 a26.66062770019422,26.66062770019422 0 0,0 -0.16416055577442487,0.42857140976290703 l -5.268481665267241 -2.070219047093572" fill="#ff3e05" stroke="none" /><path d="M 119.41010516605496 108.01547362559984 l 5.004438208010744 2.0666009856250067 a26.414355124258478,26.414355124258478 0 0,0 -0.1771636191280816,0.4187624623317219 l -4.968123607690353 -2.152437973622892" fill="#ff3a05" stroke="none" /><path d="M 119.12269723197855 108.67885076344098 l 4.9319474780411054 2.2383681347769357 a26.41612387533195,26.41612387533195 0 0,0 -0.1914859323108993,0.4124436628094246 l -4.892686928890375 -2.3229318648651907" fill="#ff3a05" stroke="none" /><path d="M 118.97047184881838 109.00673069616215 l 4.893814795863378 2.3234673493891336 a26.41737240550146,26.41737240550146 0 0,0 -0.19856648585736747,0.40910577431653583 l -4.8530950533912955 -2.407362079670945" fill="#ff3a05" stroke="none" /><path d="M 118.64920377521936 109.65438752849418 l 4.81204600047608 2.4911174468085373 a26.41862093567097,26.41862093567097 0 0,0 -0.21254094015423516,0.4020473606272163 l -4.768452552096952 -2.573579822521888" fill="#ff3a05" stroke="none" /><line stroke="#e1ed5e" stroke-width="0.3" x1="174.80103733775053" x2="179.2010983576182" y1="140.37084112569926" y2="142.7455964860345" /><path d="M 175.68104954172406 140.8457921977663 a86.0,86.0 0 0,1 -30.038265399797805,32.042727171017184" fill="none" id="id125" stroke="none" /><text fill="#e1ed5e" style="font-size:6.75px; font-family:Arial;" text-anchor="middle"><textPath startOffset="22.206326154141568" xlink:href="#id125">May</textPath></text><path d="M 118.30583269289576 110.29060199501025 l 4.7218135808582105 2.654361867630484 a26.416748140416704,26.416748140416704 0 0,0 -0.22623806767615637,0.3944651406568542 l -4.6754235170296745 -2.7352468541456534" fill="#ff3a05" stroke="none" /><path d="M 117.94076556474637 110.91462005526583 l 7.376308464855248 4.487523345299024 a29.634106343061738,29.634106343061738 0 0,0 -0.26887357762824643,0.4335098183476278 l -7.297970247559039 -4.613829495011926" fill="#ff6709" stroke="none" /><path d="M 117.75023020441432 111.22182372390056 l 11.562777949618154 7.310071723855733 a34.67972889059176,34.67972889059176 0 0,0 -0.32333915505620325,0.5018295490681328 l -11.4352339311849 -7.508022872845319" fill="#ffab0f" stroke="none" /><path d="M 117.35343817320211 111.8261652097733 l 8.604698730061038 5.864001574003427 a31.412845657889523,31.412845657889523 0 0,0 -0.3083531193987226,0.4442056665562303 l -8.50248470350018 -6.011248502746676" fill="#ff7f0b" stroke="none" /><path d="M 116.93607887273984 112.41649034213515 l 11.020427956385833 8.079499293482225 a34.664850572738445,34.664850572738445 0 0,0 -0.35694682752632734,0.4781886068884035 l -10.879719862164412 -8.268000779879944" fill="#ffab0f" stroke="none" /><path d="M 116.498646956653 112.99209946851258 l 4.254522999378422 3.3502860049205108 a26.415291521885614,26.415291521885614 0 0,0 -0.2843821076641721,0.3548104050590644 l -4.196222979659397 -3.4230242435578253" fill="#ff3a05" stroke="none" /><path d="M 116.0416608686014 113.55231037782055 l 4.132944054757667 3.491592364595813 a26.410401445388366,26.410401445388366 0 0,0 -0.2963718536118333,0.344747421738973 l -4.072229691575055 -3.562216885496314" fill="#ff3a05" stroke="none" /><path d="M 115.56566222782051 114.09645910891815 l 7.716919359969572 6.988539042701647 a31.41107690681605,31.41107690681605 0 0,0 -0.3663931484308199,0.3976473990959912 l -7.59547980354303 -7.120337696598972" fill="#ff7f0b" stroke="none" /><path d="M 113.48314897796784 116.09983520530334 l 3.4774478616299622 4.152319135445396 a26.41612387533195,26.41612387533195 0 0,0 -0.35112044103185347,0.2889482188112942 l -3.4054572920534176 -4.211562473113868" fill="#ff3a05" stroke="none" /><path d="M 112.92097659922987 116.55440617244103 l 5.125695713778445 6.56706156152979 a29.330609467690152,29.330609467690152 0 0,0 -0.4006718681931926,0.30721810300559316 l -5.0118951170917585 -6.654319006362754" fill="#ff6309" stroke="none" /><path d="M 112.34349029814194 116.9893568818739 l 2.219215684935928 3.0544883463718624 a24.775555232596545,24.775555232596545 0 0,0 -0.3471794686820826,0.24770333271805348 l -2.1663088884049606 -3.092235940934135" fill="#ff2303" stroke="none" /><path d="M 111.1453310114006 117.79835938074945 l 2.8747757820713384 4.590827536305791 a26.416644096235913,26.416644096235913 0 0,0 -0.38747027855362093,0.23801589193799383 l -2.7953263035854086 -4.639631895072163" fill="#ff3a05" stroke="none" /><line stroke="#e1ed5e" stroke-width="0.3" x1="143.8653032363475" x2="146.44561519142675" y1="172.8068346515853" y2="177.08958963109032" /><path d="M 144.38136562736335 173.6633856474863 a86.0,86.0 0 0,1 -40.68145358897372,12.25698825130547" fill="none" id="id126" stroke="none" /><text fill="#e1ed5e" style="font-size:6.75px; font-family:Arial;" text-anchor="middle"><textPath startOffset="21.466115282336833" xlink:href="#id126">June</textPath></text><path d="M 110.21172684928248 118.3499491758327 l 2.634117969657299 4.733374832656761 a26.41695622877829,26.41695622877829 0 0,0 -0.3992447279466019,0.21770005844966867 l -2.5522504298420485 -4.7780155428662" fill="#ff3a05" stroke="none" /><path d="M 108.92500713936063 119.00905698771935 l 3.965454641246989 8.445881564088054 a30.33047404510563,30.33047404510563 0 0,0 -0.47450149654108653,0.21782036423327134 l -3.819485148938483 -8.5128889986554" fill="#ff710a" stroke="none" /><path d="M 103.7750983002368 120.6578951692458 l 2.015320134946209 11.028129274826437 a32.210760480386845,32.210760480386845 0 0,0 -0.546280736893201,0.0949779083745215 l -1.825190426580958 -11.061185761721966" fill="#ff8a0c" stroke="none" /><path d="M 103.41894727170886 120.7198165907248 l 1.7285357948030378 10.475430532428366 a31.61708438478511,31.61708438478511 0 0,0 -0.5377375542623053,0.0839835468444145 l -1.5479623769322153 -10.503632386619886" fill="#ff820c" stroke="none" /><path d="M 103.06178313531738 120.77559828337769 l 1.5792420055358982 10.715878966342459 a31.831623485579147,31.831623485579147 0 0,0 -0.5427616317281762,0.07522181650227341 l -1.3945517826208915 -10.741475348337334" fill="#ff850c" stroke="none" /><path d="M 102.70371172650421 120.8252237178851 l 1.395007229575045 10.744983408985554 a31.83516098772609,31.83516098772609 0 0,0 -0.544036488630449,0.06587524231737964 l -1.209843317893216 -10.767404180028285" fill="#ff850c" stroke="none" /><path d="M 102.34483914955558 120.86867818915974 l 1.2094134715060247 10.76357861871984 a31.831311353036767,31.831311353036767 0 0,0 -0.545023903326192,0.056493956048050846 l -1.02395697157423 -10.78280194322365" fill="#ff850c" stroke="none" /><path d="M 101.98527174616119 120.90594882070398 l 1.0243897555165689 10.787359384272438 a31.83588929699164,31.83588929699164 0 0,0 -0.545994115717275,0.04711066972751009 l -0.8385513220577523 -10.803394306278612" fill="#ff850c" stroke="none" /><path d="M 101.62511606390274 120.93702456842531 l 0.8379635543207054 10.795821857870513 a31.82829407179379,31.82829407179379 0 0,0 -0.5465937191984785,0.03769630308514373 l -0.6520070743432965 -10.808646505471941" fill="#ff850c" stroke="none" /><path d="M 100.90346689309514 120.98055641714683 l 0.8214432742170371 19.075781403737 a40.093459749765486,40.093459749765486 0 0,0 -0.6897595732638933,0.02375671435531559 l -0.49296334927849156 -19.087094916518407" fill="#fff016" stroke="none" /><line stroke="#e1ed5e" stroke-width="0.3" x1="102.19456741930631" x2="102.32365962044197" y1="184.97166512339345" y2="189.96999836594603" /><path d="M 102.22038585953345 185.97133177190398 a86.0,86.0 0 0,1 -42.740103519485714,-10.115201625700543" fill="none" id="id127" stroke="none" /><text fill="#e1ed5e" style="font-size:6.75px; font-family:Arial;" text-anchor="middle"><textPath startOffset="22.20632615414155" xlink:href="#id127">July</textPath></text><path d="M 100.54218724476979 120.99299961872073 l 0.49306005458315133 19.090839258428762 a40.097205340274016,40.097205340274016 0 0,0 -0.6901307777440958,0.011881227203431223 l -0.16436958694638765 -19.096497962911354" fill="#fff016" stroke="none" /><path d="M 100.18074693466247 120.99922214144158 l 0.09321521252866201 10.829765708096305 a31.830166867048053,31.830166867048053 0 0,0 -0.5479242943822275,0.0 l 0.09321521252865456 -10.829765708096305" fill="#ff850c" stroke="none" /><path d="M 99.81925306533755 120.99922214144158 l -0.16433913967640204 19.09296059179662 a40.093667838127075,40.093667838127075 0 0,0 -0.6900698922263341,-0.011880179004027205 l 0.492968721795404 -19.08730293551343" fill="#fff016" stroke="none" /><path d="M 99.45781275523022 120.99299961872073 l -0.2797684463806649 10.832381146652056 a31.835993341172426,31.835993341172426 0 0,0 -0.5476998323041514,-0.018863889640464024 l 0.46618863035945934 -10.825960458585497" fill="#ff850c" stroke="none" /><path d="M 99.09653310690486 120.98055641714683 l -0.4659513910710521 10.820451222649094 a31.83047899959043,31.83047899959043 0 0,0 -0.5471991765221913,-0.02828394709447771 l 0.6521386360067324 -10.810827468792414" fill="#ff850c" stroke="none" /><path d="M 98.73552117531835 120.96189622390904 l -3.2578740015313032 54.00740241566622 a75.10557511659555,75.10557511659555 0 0,0 -1.289803202864748,-0.08895238043839192 l 4.187039965174981 -53.94332169071154" fill="#42ffd6" stroke="none" /><path d="M 98.37488393609728 120.93702456842531 l -0.8380923801260781 10.797481572590096 a31.829958778686468,31.829958778686468 0 0,0 -0.5458924057236395,-0.04710189376128588 l 1.0238291035912594 -10.781455426550147" fill="#ff850c" stroke="none" /><path d="M 98.01472825383883 120.90594882070398 l -1.0233963196489209 10.77689798550136 a31.8253808347316,31.8253808347316 0 0,0 -0.544922359465836,-0.05648343061173216 l 1.2087512757203502 -10.757685186433868" fill="#ff850c" stroke="none" /><path d="M 97.65516085044442 120.86867818915974 l -1.2086118660812615 10.756444463847346 a31.82413230456209,31.82413230456209 0 0,0 -0.5438480175853203,-0.06585242109853806 l 1.393587306717971 -10.73404651402346" fill="#ff850c" stroke="none" /><path d="M 97.2962882734958 120.8252237178851 l -1.3989053196826464 10.775008281004133 a31.865437844336697,31.865437844336697 0 0,0 -0.5433382010176243,-0.07530172375207618 l 1.584172111887102 -10.749331991759453" fill="#ff850c" stroke="none" /><path d="M 96.93821686468263 120.77559828337769 l -2.2779518471875058 15.456944660824366 a36.623898452879544,36.623898452879544 0 0,0 -0.6228925267720041,-0.09728300224996834 l 2.543680237568027 -15.41544335122729" fill="#ffc412" stroke="none" /><path d="M 96.58105272829116 120.7198165907248 l -1.9166616869386037 11.615528250012442 a32.772599056666095,32.772599056666095 0 0,0 -0.5558092791221788,-0.0966345675785665 l 2.1163199375328325 -11.58081510391287" fill="#ff920d" stroke="none" /><path d="M 96.22490169976321 120.6578951692458 l -1.767215990258857 9.670466770598386 a30.830614422174953,30.830614422174953 0 0,0 -0.5212317420250036,-0.09989530390109087 l 1.9334153468555555 -9.638614268348828" fill="#ff770b" stroke="none" /><path d="M 95.86986931433489 120.58985236759428 l -2.1288747678553364 10.613033948628956 a31.824444437104468,31.824444437104468 0 0,0 -0.5361790560530292,-0.11236153436722823 l 2.311245285337752 -10.574816433535188" fill="#ff850c" stroke="none" /><path d="M 95.51606077576429 120.51570834832081 l -2.311667381903603 10.576747684073334 a31.826421276539524,31.826421276539524 0 0,0 -0.534198676995927,-0.12158187968269568 l 2.4933862082923923 -10.53538907081295" fill="#ff850c" stroke="none" /><path d="M 95.16358092515715 120.4354850818985 l -2.5278674756266426 10.68108393581737 a31.976140852699864,31.976140852699864 0 0,0 -0.5345294863299391,-0.13137434270210885 l 2.7113502466997925 -10.635988334801231" fill="#ff870c" stroke="none" /><path d="M 94.81253420990036 120.34920634021253 l -2.7481029918799496 10.780160696702419 a32.12492403123307,32.12492403123307 0 0,0 -0.534665141565277,-0.1412099233832414 l 2.933258576256716 -10.731259424015596" fill="#ff890c" stroke="none" /><path d="M 94.46302465271185 120.25689768951611 l -3.038545893681764 11.116450667124054 a32.52424559711451,32.52424559711451 0 0,0 -0.5387700630546133,-0.15226180144793386 l 3.2294471248409913 -11.062500072337599" fill="#ff8e0d" stroke="none" /><path d="M 94.11515582081647 120.15858648285463 l -2.9974790368943407 10.267891307898953 a31.69647009472975,31.69647009472975 0 0,0 -0.5224257867472533,-0.1574026040228714 l 3.17377979808184 -10.214773334770355" fill="#ff830c" stroke="none" /><path d="M 93.42475214034765 119.94407469862007 l -1.694523441324087 5.1398369785739435 a26.411962108100255,26.411962108100255 0 0,0 -0.4305530496246587,-0.14606697092355797 l 1.7827462238859715 -5.109907020752263" fill="#ff3a05" stroke="none" /><path d="M 92.7421414339146 119.70592522655815 l -3.8034860123856373 10.326904317282239 a32.00506513496016,32.00506513496016 0 0,0 -0.5153269337446117,-0.1948525515693257 l 3.9806831668905316 -10.25990351560628" fill="#ff870c" stroke="none" /><path d="M 92.40401165467489 119.57807347666478 l -3.708474934675136 9.558307814166595 a31.25251357528835,31.25251357528835 0 0,0 -0.49986003003119395,-0.19890462188473956 l 3.8724560407481876 -9.493056347875788" fill="#ff7d0b" stroke="none" /><path d="M 92.06813273071674 119.44442032107085 l -4.485038187725891 10.994758827586445 a32.87435426548112,32.87435426548112 0 0,0 -0.522120733244252,-0.2182465088413434 l 4.673630380467605 -10.915927275725128" fill="#ff930d" stroke="none" /><path d="M 91.7346041902142 119.30500536409082 l -5.238177804632809 12.234507934486752 a34.30870734188588,34.30870734188588 0 0,0 -0.5409001752436431,-0.23711474123592924 l 5.447998654534195 -12.14252863995637" fill="#ffa60f" stroke="none" /><path d="M 91.07499286063937 119.00905698771935 l -4.728494464719395 10.071053091886442 a32.12586042886021,32.12586042886021 0 0,0 -0.49854337825513584,-0.2393311179936721 l 4.901150510974773 -9.988167697393209" fill="#ff890c" stroke="none" /><path d="M 90.7491055286396 118.85261126421891 l -4.895329667137512 9.976305265448563 a32.11264681789957,32.11264681789957 0 0,0 -0.4941464920556134,-0.24777530942958553 l 5.066330066875885 -9.890562115109674" fill="#ff890c" stroke="none" /><path d="M 90.42595943632237 118.69057910512821 l -2.561032766023724 4.99968484422263 a26.61744936516535,26.61744936516535 0 0,0 -0.4059910087239436,-0.21239530744430177 l 2.646714677274163 -4.9548601178336105" fill="#ff3d05" stroke="none" /><path d="M 90.10565033884886 118.52300852407294 l -2.447295601740254 4.5815317675651 a26.19419763770165,26.19419763770165 0 0,0 -0.3958781329338499,-0.21586432242173947 l 2.5257965465427445 -4.538726793383595" fill="#ff3705" stroke="none" /><line stroke="#e1ed5e" stroke-width="0.3" x1="58.666819895761336" x2="56.23545636021788" y1="174.27360380694188" y2="178.64263932499728" /><path d="M 58.180547188652646 175.14741091055294 a86.0,86.0 0 0,1 -31.652253787137756,-30.449443065178592" fill="none" id="id128" stroke="none" /><text fill="#e1ed5e" style="font-size:6.75px; font-family:Arial;" text-anchor="middle"><textPath startOffset="22.20632615414155" xlink:href="#id128">August</textPath></text><path d="M 89.4739219176387 118.17145234162733 l -7.419355972128765 12.80823421584025 a35.80194942461917,35.80194942461917 0 0,0 -0.5306055686075435,-0.3134911226126641 l 7.638729411764691 -12.678624520933836" fill="#ffb911" stroke="none" /><path d="M 88.8546689885994 117.79835938074946 l -5.779480464353632 9.229449554559256 a31.889680138461337,31.889680138461337 0 0,0 -0.4627317078615216,-0.29533726935023047 l 5.937493974262077 -9.128597856385221" fill="#ff860c" stroke="none" /><path d="M 88.54995079064634 117.60387380957326 l -5.985373330241946 9.202209954057665 a31.977493427050163,31.977493427050163 0 0,0 -0.45883942097365626,-0.3040937484724417 l 6.1428874499555635 -9.097818184493905" fill="#ff870c" stroke="none" /><path d="M 87.65650970185807 116.9893568818739 l -7.240827190708053 9.966143634546647 a33.318831005826475,33.318831005826475 0 0,0 -0.46109300277986276,-0.3411055802796992 l 7.411305163906481 -9.84002810552718" fill="#ff990e" stroke="none" /><path d="M 87.07902340077011 116.55440617244103 l -1.8585992363757016 2.3812446709783486 a24.0207147009473,24.0207147009473 0 0,0 -0.32375634836557804,-0.25721162369530653 l 1.8993130774586378 -2.3488991332779117" fill="#ff1802" stroke="none" /><path d="M 86.51685102203217 116.09983520530335 l -5.149236131668984 6.148552781589096 a29.019933543843887,29.019933543843887 0 0,0 -0.3802088373976656,-0.3240222196848676 l 5.254310445643706 -6.059006171681277" fill="#ff5f08" stroke="none" /><path d="M 86.24171649860922 115.8653595955263 l -7.361365143047672 8.488755526561013 a32.23604321631941,32.23604321631941 0 0,0 -0.4160869536103378,-0.36714835896057135 l 7.506394449564597 -8.360784025828153" fill="#ff8a0c" stroke="none" /><path d="M 85.97065885151581 115.62618273729859 l -7.598006201108922 8.462823170458282 a32.373173446603865,32.373173446603865 0 0,0 -0.41144831324220144,-0.3758482788014004 l 7.742554063817979 -8.330782125070307" fill="#ff8c0c" stroke="none" /><path d="M 85.18274418774928 114.88116024355367 l -44.45176743675218 44.64348073066098 a84.0,84.0 0 0,0 -1.015837499777867,-1.0290380240773414 l 45.21364556158558 -43.871702212602976" fill="#4dd2ff" stroke="none" /><path d="M 84.9287848128048 114.62390073753433 l -7.897409149902127 7.663013636086058 a32.00412873733303,32.00412873733303 0 0,0 -0.38022954518042995,-0.39866915798399133 l 8.028145246461515 -7.525937361519566" fill="#ff870c" stroke="none" /><path d="M 84.67929136418377 114.36230785411682 l -8.063593450293608 7.559168070908674 a32.05271736976311,32.05271736976311 0 0,0 -0.37387753586767447,-0.40577022347422304 l 8.192517394157012 -7.419246592633106" fill="#ff880c" stroke="none" /><path d="M 84.43433777217949 114.09645910891817 l -7.65260141599157 6.9302919052534895 a31.324304060035146,31.324304060035146 0 0,0 -0.358500917702575,-0.4027795814809814 l 7.770761183342483 -6.797538154031644" fill="#ff7e0b" stroke="none" /><path d="M 83.95833913139862 113.55231037782056 l -8.85108583792787 7.477571271383493 a32.586880193951565,32.586880193951565 0 0,0 -0.3583067137035004,-0.4316035186538173 l 8.978488551524908 -7.324106495615914" fill="#ff8f0d" stroke="none" /><path d="M 83.28015986056508 112.70617746262583 l -8.680117301575605 6.596421371882568 a31.90216544015643,31.90216544015643 0 0,0 -0.3284992306887267,-0.44007840208459936 l 8.792377798959416 -6.4460300902886605" fill="#ff860c" stroke="none" /><path d="M 83.06392112726016 112.41649034213515 l -20.90463675931589 15.325992656167779 a46.92083889336627,46.92083889336627 0 0,0 -0.4719347301413094,-0.6554760635883272 l 21.165351281832802 -14.963882987128315" fill="#bdff1f" stroke="none" /><path d="M 82.6465618267979 111.8261652097733 l -18.936080492823738 12.904717445532969 a43.915210598633884,43.915210598633884 0 0,0 -0.4203248074075805,-0.6283285566555609 l 19.15540840564205 -12.576851974671587" fill="#e0ff1b" stroke="none" /><path d="M 82.05923443525364 110.91462005526583 l -45.562982285058105 27.719142665986197 a74.33231876494604,74.33231876494604 0 0,0 -0.6556079518553901,-1.0988366378085703 l 46.03337111261173 -26.930743934291517" fill="#41ffce" stroke="none" /><line stroke="#e1ed5e" stroke-width="0.3" x1="26.63291911575756" x2="22.317208475507996" y1="142.92168965132927" y2="145.44649492493687" /><path d="M 25.769776987707644 143.4266507060508 a86.0,86.0 0 0,1 -11.730757126820373,-40.83630448921669" fill="none" id="id129" stroke="none" /><text fill="#e1ed5e" style="font-size:6.75px; font-family:Arial;" text-anchor="middle"><textPath startOffset="21.46611528233685" xlink:href="#id129">September</textPath></text><path d="M 81.87401531095188 110.60418214915194 l -11.149549689020496 6.522782503222038 a33.91739717792546,33.91739717792546 0 0,0 -0.29047505610270896,-0.5064677445304233 l 11.260176741275583 -6.329894912833308" fill="#ffa10e" stroke="none" /><path d="M 81.69416730710424 110.29060199501025 l -9.77702554678105 5.496143239417739 a32.21596268942647,32.21596268942647 0 0,0 -0.26758208977455916,-0.48573921741277115 l 9.870184046007125 -5.3270335036071454" fill="#ff8a0c" stroke="none" /><path d="M 80.73074385275274 108.34839909993369 l -44.659458758197935 19.348696309365696 a69.67072328872095,69.67072328872095 0 0,0 -0.46728823880184095,-1.1045313618132961 l 44.98589797819208 -18.57709042188624" fill="#3bff9c" stroke="none" /><path d="M 79.76711848015287 105.62410040840567 l -5.212561961532705 1.4489271747051415 a26.41019335702678,26.41019335702678 0 0,0 -0.11798052585754096,-0.43904942654881907 l 5.236730563732022 -1.3589868149807836" fill="#ff3a05" stroke="none" /><path d="M 79.67330655649465 105.27499134158121 l -5.237939063256334 1.3593004333538246 a26.41144188719629,26.41144188719629 0 0,0 -0.11041075099282864,-0.4410360662482547 l 5.2605611285442215 -1.268936527708178" fill="#ff3a05" stroke="none" /><path d="M 79.50377843672027 104.57218783832718 l -5.283350695746665 1.178581706980967 a26.413210638269764,26.413210638269764 0 0,0 -0.09517052253897663,-0.44460499740373 l 5.302855257010083 -1.0874628901610732" fill="#ff3a05" stroke="none" /><path d="M 79.4281124754447 104.21870165774334 l -5.3023456414898815 1.0873583826948858 a26.412690417365802,26.412690417365802 0 0,0 -0.08750155441091007,-0.4461685407982995 l 5.320277128876458 -0.9959261148286316" fill="#ff3a05" stroke="none" /><path d="M 79.29508885075956 103.50808413554451 l -10.259755489195667 1.738335663784454 a31.40597874195722,31.40597874195722 0 0,0 -0.08572074305026593,-0.5337831488008536 l 10.288157986607224 -1.5614732852903868" fill="#ff7f0b" stroke="none" /><path d="M 79.18660465613746 102.79330883721812 l -5.364799835995565 0.719995106238718 a26.412898505727384,26.412898505727384 0 0,0 -0.05659716996066251,-0.45113513103871655 l 5.376398515203076 -0.6275422209125928" fill="#ff3a05" stroke="none" /><path d="M 79.1416061653843 102.43462659150553 l -5.375881802227084 0.6274819093103908 a26.412378284823422,26.412378284823422 0 0,0 -0.04882227318573524,-0.45203361444457374 l 5.385886376913871 -0.5348519729810349" fill="#ff3a05" stroke="none" /><path d="M 79.07016306316243 101.71520430193888 l -5.396265231850517 0.44222500958823635 a26.414355124258478,26.414355124258478 0 0,0 -0.03323610300215509,-0.4534802192576013 l 5.403077893517008 -0.3492716538338744" fill="#ff3a05" stroke="none" /><path d="M 79.04373962182676 101.35467743843564 l -5.404219995725519 0.34934548285042305 a26.415499610247196,26.415499610247196 0 0,0 -0.025426363821527704,-0.454004806498497 l 5.4094327104345785 -0.2562689600164884" fill="#ff3a05" stroke="none" /><path d="M 79.0095281055655 100.63252640178507 l -5.409610593346456 0.16301308235833947 a26.412066152281046,26.412066152281046 0 0,0 -0.009782447375803728,-0.45455189016472364 l 5.411615103407267 -0.069871376403487" fill="#ff3a05" stroke="none" /><line stroke="#e1ed5e" stroke-width="0.3" x1="15.007084014347285" x2="10.007500721073583" y1="101.09737516637583" y2="101.16192664675087" /><path d="M 14.007167355692545 101.11028546245083 a86.0,86.0 0 0,1 10.666146001902534,-42.60595125391555" fill="none" id="id130" stroke="none" /><text fill="#e1ed5e" style="font-size:6.75px; font-family:Arial;" text-anchor="middle"><textPath startOffset="22.20632615414155" xlink:href="#id130">October</textPath></text><path d="M 79.00019446554 99.90962569577889 l -42.03658109213957 -0.1809077118263183 a63.03697036557492,63.03697036557492 0 0,0 0.014009194857948281,-1.085027580422469 l 42.02723889016391 0.9044715503092593" fill="#33ff51" stroke="none" /><path d="M 79.16333360222342 97.38593545837743 l -5.370075470079248 -0.673702962085586 a26.412170196461837,26.412170196461837 0 0,0 0.06047632460053921,-0.45061886322184463 l 5.357683146420876 0.76604016737209" fill="#ff3a05" stroke="none" /><path d="M 79.21141760316559 97.0276538004421 l -5.357580149705386 -0.7660254409280253 a26.412066152281046,26.412066152281046 0 0,0 0.06822375861202534,-0.44950932792304893 l 5.343600497654059 0.8581338812431663" fill="#ff3a05" stroke="none" /><path d="M 79.3925641242962 95.95851677861259 l -17.98477897798173 -3.527133745230775 a39.327382446590654,39.327382446590654 0 0,0 0.13599915252817604,-0.6631801668433257 l 17.92140052953856 3.8361895682375033" fill="#ffe615" stroke="none" /><path d="M 79.46518482838121 95.60439243477599 l -3.402370005727099 -0.7282989017371477 a24.479445494061224,24.479445494061224 0 0,0 0.09174617921239513,-0.41128013179127065 l 3.3893294395126663 0.7867572030783776" fill="#ff1e03" stroke="none" /><path d="M 79.54389044137918 95.25157060432595 l -5.270578559069933 -1.2234472097628117 a26.410713577930743,26.410713577930743 0 0,0 0.10660772538642221,-0.44195784731897886 l 5.248738033422696 1.3139902887411874" fill="#ff3a05" stroke="none" /><path d="M 79.62865764111835 94.90015583598534 l -5.250352905519742 -1.3143945623474458 a26.412378284823422,26.412378284823422 0 0,0 0.11420670629957175,-0.44008502721977544 l 5.2269498673498624 1.404576015116085" fill="#ff3a05" stroke="none" /><path d="M 79.81627453868168 94.20196356495316 l -5.2019979711274695 -1.4943412616982168 a26.412378284823422,26.412378284823422 0 0,0 0.12928746337784075,-0.43589305426922115 l 5.175504610637922 1.5836637027139773" fill="#ff3a05" stroke="none" /><path d="M 79.91906864156998 93.8553929516997 l -5.177792896029015 -1.5843639000450502 a26.41477130098165,26.41477130098165 0 0,0 0.13678388221422771,-0.43364228618560696 l 5.149753530046583 1.6732563526570718" fill="#ff3a05" stroke="none" /><path d="M 80.02781315780177 93.51064311812611 l -13.322190631031297 -4.328642132991557 a35.00778019263037,35.00778019263037 0 0,0 0.19114699123475912,-0.57150517414366 l 13.245706346024765 4.557320410057539" fill="#ffaf10" stroke="none" /><path d="M 80.2630227832202 92.82701384747504 l -5.087932170954186 -1.8491011367340011 a26.41352277081214,26.41352277081214 0 0,0 0.1589784799875443,-0.42598328723917683 l 5.055349102465014 1.9364075610025193" fill="#ff3a05" stroke="none" /><path d="M 80.38941819471856 92.48833698450439 l -5.052725773569421 -1.9354027176563011 a26.410713577930743,26.410713577930743 0 0,0 0.16626984224903069,-0.42313861260513197 l 5.018662381438699 2.0220903351571966" fill="#ff3a05" stroke="none" /><path d="M 80.803312248108 91.48605970444005 l -2.8303694929673786 -1.2552997261271541 a24.09625077620262,24.09625077620262 0 0,0 0.1714249540873672,-0.3777121630927651 l 2.80834222191666 1.3038338980619901" fill="#ff1902" stroke="none" /><path d="M 80.95270993114464 91.15688171328213 l -4.906836996228994 -2.278105694533796 a26.409881224484405,26.409881224484405 0 0,0 0.19498265168899415,-0.41068319123276625 l 4.866896150698248 2.3622313014070944" fill="#ff3a05" stroke="none" /><path d="M 81.10775173730289 90.83032412892265 l -4.86727055612564 -2.3624130254859765 a26.410297401207572,26.410297401207572 0 0,0 0.20202618249650003,-0.40727245610818413 l 4.825884360675728 2.4458450700931222" fill="#ff3a05" stroke="none" /><path d="M 81.26839172434947 90.50648371742162 l -6.658977973984709 -3.374889912871572 a28.46537806022011,28.46537806022011 0 0,0 0.22527034833998258,-0.4351506108810873 l 6.599898192484612 3.489013246012995" fill="#ff5708" stroke="none" /><path d="M 81.43458229118936 90.18545643968196 l -3.3144822648565975 -1.752189532094329 a24.749128010675264,24.749128010675264 0 0,0 0.20234403956372368,-0.3749127745778462 l 3.2838301260744016 1.8089832900046479" fill="#ff2203" stroke="none" /><path d="M 81.6062741919709 89.86733742301443 l -4.739381404690717 -2.610811594049556 a26.410921666292328,26.410921666292328 0 0,0 0.2227853790289462,-0.3963103302318757 l 4.6937383843693405 2.6920054342162163" fill="#ff3a05" stroke="none" /><line stroke="#e1ed5e" stroke-width="0.3" x1="26.266209847984243" x2="21.928928074336255" y1="57.711370442889674" y2="55.22380399835377" /><path d="M 25.398753493254645 57.213857153982495 a86.0,86.0 0 0,1 29.58750427330803,-30.492523968695096" fill="none" id="id131" stroke="none" /><text fill="#e1ed5e" style="font-size:6.75px; font-family:Arial;" text-anchor="middle"><textPath startOffset="21.46611528233685" xlink:href="#id131">November</textPath></text><path d="M 81.96595687620814 89.24020034530311 l -4.647866050168433 -2.773094595504356 a26.41227424064263,26.41227424064263 0 0,0 0.23630709814993603,-0.3884267365906234 l 4.599443153732279 2.852689105302054" fill="#ff3a05" stroke="none" /><path d="M 82.15384107792192 88.93136811851018 l -11.623764303794891 -7.209347889239004 a34.67796013951829,34.67796013951829 0 0,0 0.3189916627351162,-0.5045682044334516 l 11.497945044813813 7.408363741386672" fill="#ffab0f" stroke="none" /><path d="M 82.34701348167596 88.62581576622439 l -4.549394958665446 -2.9312692420830904 a26.411962108100255,26.411962108100255 0 0,0 0.24953438804981945,-0.3800579925702017 l 4.4982639352577065 3.0091452986309593" fill="#ff3a05" stroke="none" /><path d="M 82.95767976084542 87.72973835380427 l -4.39058322600939 -3.161166097487079 a26.41019335702678,26.41019335702678 0 0,0 0.2688021776733666,-0.3666458682605121 l 4.33551843582239 3.236274409419092" fill="#ff3a05" stroke="none" /><path d="M 83.17141714833178 87.43820079747576 l -4.335768566696204 -3.2364611211487064 a26.410505489569157,26.410505489569157 0 0,0 0.2750768086386679,-0.3619688360274155 l 4.279415817833427 3.3106147330571485" fill="#ff3a05" stroke="none" /><path d="M 84.80347519578584 85.50635884689758 l -4.716902798586382 -4.49873226922363 a27.518263882466407,27.518263882466407 0 0,0 0.32987287714593166,-0.3399629965434119 l 4.638765657737332 4.579259461317165" fill="#ff4a06" stroke="none" /><path d="M 86.37877921826538 84.01681056812374 l -3.5095487729392336 -4.118117146556763 a26.410713577930743,26.410713577930743 0 0,0 0.3485490576978663,-0.29189981208767857 l 3.438142178282257 4.177918116038255" fill="#ff3a05" stroke="none" /><path d="M 87.80319425747018 82.90503203632743 l -3.1423626389764046 -4.404316160929613 a26.410401445388366,26.410401445388366 0 0,0 0.3723474980511517,-0.26085321754583934 l 3.0660840013415926 4.457754221239395" fill="#ff3a05" stroke="none" /><path d="M 88.09926311788651 82.69761687909137 l -3.065966077301619 -4.457582772451055 a26.41019335702678,26.41019335702678 0 0,0 0.3767795214086104,-0.25440321476263983 l 2.9887818614864687 4.50969789951236" fill="#ff3a05" stroke="none" /><path d="M 88.70189139769569 82.29822771554957 l -2.798647437818287 -4.384894976015346 a26.20189690708029,26.20189690708029 0 0,0 0.3822742563736373,-0.23938010427126505 l 2.7227540290724073 4.432419421609541" fill="#ff3705" stroke="none" /><line stroke="#e1ed5e" stroke-width="0.3" x1="56.762969772571076" x2="54.21961505331055" y1="26.818313649435495" y2="22.513508569990535" /><path d="M 56.25429882871897 25.957352633546506 a86.0,86.0 0 0,1 42.265352541879196,-11.944610805530505" fill="none" id="id132" stroke="none" /><text fill="#e1ed5e" style="font-size:6.75px; font-family:Arial;" text-anchor="middle"><textPath startOffset="22.20632615414155" xlink:href="#id132">December</textPath></text><path d="M 89.3179101791058 81.91981866633112 l -2.646212582300814 -4.478899179620439 a26.202209039622666,26.202209039622666 0 0,0 0.3902922192486046,-0.2260824450084072 l 2.5687236305868892 4.523785782018893" fill="#ff3705" stroke="none" /><path d="M 89.63071344664047 81.73862282372117 l -2.671678073700812 -4.705099116162211 a26.410713577930743,26.410713577930743 0 0,0 0.3972622956993413,-0.22107603744992335 l 2.590291688929425 4.750390551172319" fill="#ff3a05" stroke="none" /><path d="M 94.28887869178378 79.79150937346287 l -1.4576511160444 -5.1578188109867 a26.359835973523232,26.359835973523232 0 0,0 0.43770144969923824,-0.11964034047085437 l 1.3686517771214393 5.18214569228385" fill="#ff3905" stroke="none" /><path d="M 94.63758080256005 79.69619591428918 l -3.1222742278426017 -11.821911322084798 a33.22727212672912,33.22727212672912 0 0,0 0.5542484799637089,-0.14129027839994074 l 2.9183168591938933 11.8739045966536" fill="#ff980e" stroke="none" /><path d="M 94.98787191387505 79.60689891045804 l -1.2913651431982642 -5.254243198942965 a26.410609533749952,26.410609533749952 0 0,0 0.4424108022311765,-0.10470434316837948 l 1.2007306540045537 5.275693454252215" fill="#ff3a05" stroke="none" /><path d="M 95.692805502759 79.44645832069477 l -1.1097830422634984 -5.29578407215184 a26.410817622111537,26.410817622111537 0 0,0 0.44575623422445804,-0.08941450712849622 l 1.018460398571904 5.314102535357547" fill="#ff3a05" stroke="none" /><path d="M 96.40284397218896 79.31037775812273 l -1.6810296807225296 -9.66871295062983 a30.813759264886574,30.813759264886574 0 0,0 0.5233508561358268,-0.08635737550558414 l 1.5143496184478173 9.696216589075041" fill="#ff770b" stroke="none" /><path d="M 97.11714578562143 79.19881850522333 l -0.7427189840053651 -5.359075151582728 a26.410297401207572,26.410297401207572 0 0,0 0.4508429825742912,-0.05853235841838301 l 0.6503612729232161 5.371065833165248" fill="#ff3a05" stroke="none" /></svg>