<?xml version="1.0" encoding="utf-8" ?>
<svg baseProfile="full" height="200mm" version="1.1" viewBox="0,0,200,200" width="200mm" xmlns="http://www.w3.org/2000/svg" xmlns:ev="http://www.w3.org/2001/xml-events" xmlns:xlink="http://www.w3.org/1999/xlink"><defs /><rect fill="#1a1a1a" height="200" width="200" x="0" y="0" /><text alignment-baseline="middle" fill="#e1ed5e" style="dominant-baseline: central; font-size:9.0px; font-family:Arial;" text-anchor="middle" x="100.0" y="100.0">2021</text><line stroke="#e1ed5e" stroke-width="0.3" x1="100.0" x2="100.0" y1="15.0" y2="10.0" /><path d="M 100.0 14.0 a86.0,86.0 0 0,1 42.46469731375804,11.215312516191453" fill="none" id="id1" stroke="none" /><text fill="#e1ed5e" style="font-size:6.75px; font-family:Arial;" text-anchor="middle"><textPath startOffset="22.20632615414155" xlink:href="#id1">January</textPath></text><line stroke="#e1ed5e" stroke-width="0.3" x1="143.23703022742887" x2="145.7803849466894" y1="26.81831364943548" y2="22.513508569990506" /><path d="M 143.74570117128098 25.957352633546492 a86.0,86.0 0 0,1 28.547481713284135,27.462654790039103" fill="none" id="id2" stroke="none" /><text fill="#e1ed5e" style="font-size:6.75px; font-family:Arial;" text-anchor="middle"><textPath startOffset="19.985693538727396" xlink:href="#id2">February</textPath></text><line stroke="#e1ed5e" stroke-width="0.3" x1="172.23445277983987" x2="176.4835382374775" y1="55.19839476539836" y2="52.563006222186495" /><path d="M 173.08426987136738 54.67131705675599 a86.0,86.0 0 0,1 12.851231095245387,41.99856678651699" fill="none" id="id3" stroke="none" /><text fill="#e1ed5e" style="font-size:6.75px; font-family:Arial;" text-anchor="middle"><textPath startOffset="22.20632615414155" xlink:href="#id3">March</textPath></text><line stroke="#e1ed5e" stroke-width="0.3" x1="184.98032266829074" x2="189.97916517819016" y1="98.17113171792111" y2="98.06355123074" /><path d="M 185.9800911702706 98.14961562048488 a86.0,86.0 0 0,1 -9.607161424134198,41.387399972396054" fill="none" id="id4" stroke="none" /><text fill="#e1ed5e" style="font-size:6.75px; font-family:Arial;" text-anchor="middle"><textPath startOffset="21.466115282336823" xlink:href="#id4">April</textPath></text><line stroke="#e1ed5e" stroke-width="0.3" x1="174.80103733775053" x2="179.2010983576182" y1="140.37084112569926" y2="142.7455964860345" /><path d="M 175.68104954172406 140.8457921977663 a86.0,86.0 0 0,1 -30.038265399797805,32.042727171017184" fill="none" id="id5" stroke="none" /><text fill="#e1ed5e" style="font-size:6.75px; font-family:Arial;" text-anchor="middle"><textPath startOffset="22.206326154141568" xlink:href="#id5">May</textPath></text><line stroke="#e1ed5e" stroke-width="0.3" x1="143.8653032363475" x2="146.44561519142675" y1="172.8068346515853" y2="177.08958963109032" /><path d="M 144.38136562736335 173.6633856474863 a86.0,86.0 0 0,1 -40.68145358897372,12.25698825130547" fill="none" id="id6" stroke="none" /><text fill="#e1ed5e" style="font-size:6.75px; font-family:Arial;" text-anchor="middle"><textPath startOffset="21.466115282336833" xlink:href="#id6">June</textPath></text><line stroke="#e1ed5e" stroke-width="0.3" x1="102.19456741930631" x2="102.32365962044197" y1="184.97166512339345" y2="189.96999836594603" /><path d="M 102.22038585953345 185.97133177190398 a86.0,86.0 0 0,1 -42.740103519485714,-10.115201625700543" fill="none" id="id7" stroke="none" /><text fill="#e1ed5e" style="font-size:6.75px; font-family:Arial;" text-anchor="middle"><textPath startOffset="22.20632615414155" xlink:href="#id7">July</textPath></text><line stroke="#e1ed5e" stroke-width="0.3" x1="58.666819895761336" x2="56.23545636021788" y1="174.27360380694188" y2="178.64263932499728" /><path d="M 58.180547188652646 175.14741091055294 a86.0,86.0 0 0,1 -31.652253787137756,-30.449443065178592" fill="none" id="id8" stroke="none" /><text fill="#e1ed5e" style="font-size:6.75px; font-family:Arial;" text-anchor="middle"><textPath startOffset="22.20632615414155" xlink:href="#id8">August</textPath></text><line stroke="#e1ed5e" stroke-width="0.3" x1="26.63291911575756" x2="22.317208475507996" y1="142.92168965132927" y2="145.44649492493687" /><path d="M 25.769776987707644 143.4266507060508 a86.0,86.0 0 0,1 -11.730757126820373,-40.83630448921669" fill="none" id="id9" stroke="none" /><text fill="#e1ed5e" style="font-size:6.75px; font-family:Arial;" text-anchor="middle"><textPath startOffset="21.46611528233685" xlink:href="#id9">September</textPath></text><line stroke="#e1ed5e" stroke-width="0.3" x1="15.007084014347285" x2="10.007500721073583" y1="101.09737516637583" y2="101.16192664675087" /><path d="M 14.007167355692545 101.11028546245083 a86.0,86.0 0 0,1 10.666146001902534,-42.60595125391555" fill="none" id="id10" stroke="none" /><text fill="#e1ed5e" style="font-size:6.75px; font-family:Arial;" text-anchor="middle"><textPath startOffset="22.20632615414155" xlink:href="#id10">October</textPath></text><line stroke="#e1ed5e" stroke-width="0.3" x1="26.266209847984243" x2="21.928928074336255" y1="57.711370442889674" y2="55.22380399835377" /><path d="M 25.398753493254645 57.213857153982495 a86.0,86.0 0 0,1 29.58750427330803,-30.492523968695096" fill="none" id="id11" stroke="none" /><text fill="#e1ed5e" style="font-size:6.75px; font-family:Arial;" text-anchor="middle"><textPath startOffset="21.46611528233685" xlink:href="#id11">November</textPath></text><line stroke="#e1ed5e" stroke-width="0.3" x1="56.762969772571076" x2="54.21961505331055" y1="26.818313649435495" y2="22.513508569990535" /><path d="M 56.25429882871897 25.957352633546506 a86.0,86.0 0 0,1 42.265352541879196,-11.944610805530505" fill="none" id="id12" stroke="none" /><text fill="#e1ed5e" style="font-size:6.75px; font-family:Arial;" text-anchor="middle"><textPath startOffset="22.20632615414155" xlink:href="#id12">December</textPath></text><path d="M 89.63071344664047 81.73862282372117 l -19.253583819377425 -33.907535905335465 a59.992582385133275,59.992582385133275 0 0,0 0.9023910290392536,-0.5021796306623107 l 18.667068701266125 34.23393093355796" fill="red" stroke="none" /><path d="M 89.94658935756843 81.56283822128135 l -13.462680162703688 -24.68949304500705 a49.121429977558165,49.121429977558165 0 0,0 0.7458386319027341,-0.3984011671348975 l 13.035696484272648 24.9175729386437" fill="red" stroke="none" /><path d="M 90.58718382345135 81.22770947309562 l -16.99398926986668 -33.891674691346786 a58.913602897751886,58.913602897751886 0 0,0 0.9104360430599198,-0.44674701234917785 l 16.408081959796338 34.1791768638308" fill="red" stroke="none" /><path d="M 90.91171255644093 81.06846463323043 l -16.842404700809443 -35.08390136590507 a59.9171778416473,59.9171778416473 0 0,0 0.9336288622487283,-0.4383512694220588 l 16.235997627261103 35.36861761796714" fill="red" stroke="none" /><path d="M 91.56875222667455 80.76684994638697 l -10.32782208838185 -23.55956761006456 a46.72386314421827,46.72386314421827 0 0,0 0.7393856486479299,-0.3165663477886454 l 9.920752681943613 23.733853485815988" fill="red" stroke="none" /><path d="M 91.90106846888425 80.62456947434976 l -10.265512899725511 -24.558638535791708 a47.6178038505453,47.6178038505453 0 0,0 0.7589736687406685,-0.3096044161732244 l 9.841255361396462 24.73170383814851" fill="red" stroke="none" /><path d="M 92.57280143429618 80.3572730644239 l -9.155815503429768 -24.214403616034573 a46.887570376786485,46.887570376786485 0 0,0 0.7573853606375467,-0.2789514201607993 l 8.737647817019651 24.368418304001697" fill="red" stroke="none" /><path d="M 93.25333710446033 80.11325718540243 l -16.42276778002259 -48.408430093800376 a72.1183274932084,72.1183274932084 0 0,0 1.179021936169808,-0.3887049953147219 l 15.587063021610373 48.68394881337433" fill="red" stroke="none" /><path d="M 93.59665428221793 80.00007090966166 l -7.75178206984827 -24.211576034414236 a46.42224497027442,46.42224497027442 0 0,0 0.7631256188259301,-0.2371068444743812 l 7.333871078311611 24.341423013771145" fill="red" stroke="none" /><path d="M 94.63758080256005 79.69619591428918 l -6.51825604685547 -24.68016559000755 a46.52642230009056,46.52642230009056 0 0,0 0.7760853415718928,-0.1978414338276322 l 6.092461816598577 24.788710020004046" fill="red" stroke="none" /><path d="M 94.98787191387505 79.60689891045804 l -15.036384258374849 -61.17930326862588 a84.0,84.0 0 0,0 1.407105252149864,-0.3330163514365161 l 13.98105531926245 61.42906553220327" fill="red" stroke="none" /><path d="M 95.692805502759 79.44645832069477 l -5.521192842327382 -26.34663172906349 a47.91892594196622,47.91892594196622 0 0,0 0.8087655702899748,-0.1622307649287105 l 5.066860862570271 26.43776645006941" fill="red" stroke="none" /><path d="M 96.04723909329186 79.375362276772 l -5.747665140789311 -29.990053555232333 a51.535863616677815,51.535863616677815 0 0,0 0.872685930488882,-0.15947777572875788 l 5.230584089197536 30.084546812311824" fill="red" stroke="none" /><path d="M 96.75951476605007 79.25152402106235 l -3.9299957815446653 -25.163337334919007 a46.46838064490728,46.46838064490728 0 0,0 0.7913587784698968,-0.11662571295687069 l 3.4962680226461194 25.227257532036845" fill="red" stroke="none" /><path d="M 97.11714578562143 79.19881850522333 l -3.8791352156829246 -27.98982871272037 a49.257356588842086,49.257356588842086 0 0,0 0.8408588976064912,-0.10916761772127477 l 3.396761589568576 28.052454653605785" fill="red" stroke="none" /><path d="M 97.83486435360386 79.11191278185805 l -3.1563805900326516 -30.451095832260535 a51.61424465530139,51.61424465530139 0 0,0 0.884508082650478,-0.08399470030262751 l 2.6317473802919373 30.500916077078344" fill="red" stroke="none" /><path d="M 98.19473922651362 79.07773832637324 l -2.8340582691321137 -32.8456196334314 a53.967660144100165,53.967660144100165 0 0,0 0.9262130558615735,-0.07189195918254195 l 2.268255023908206 32.88953685480241" fill="red" stroke="none" /><path d="M 98.91598698831166 79.02799685794201 l -1.6093105489087032 -31.134742410235866 a52.17630615378558,52.17630615378558 0 0,0 0.8973310142619517,-0.038640961060054026 l 1.0731387022574272 31.15783109782011" fill="red" stroke="none" /><path d="M 99.27714615592234 79.0124445844662 l -1.0531256772109525 -30.57676692331704 a51.59489743690696,51.59489743690696 0 0,0 0.8878581758833419,-0.02293075724629945 l 0.5266408661327315 30.5903644727057" fill="red" stroke="none" /></svg>