<?xml version="1.0" encoding="utf-8" ?>
<svg baseProfile="full" height="200mm" version="1.1" viewBox="0,0,200,200" width="200mm" xmlns="http://www.w3.org/2000/svg" xmlns:ev="http://www.w3.org/2001/xml-events" xmlns:xlink="http://www.w3.org/1999/xlink"><defs /><rect fill="#1a1a1a" height="200" width="200" x="0" y="0" /><rect fill="#1a1a1a" height="200" width="180" x="10" y="0" /><text alignment-baseline="middle" fill="#e1ed5e" style="dominant-baseline: central; font-size:9.0px; font-family:Arial;" text-anchor="middle" x="100.0" y="100.0">2026</text><line stroke="#e1ed5e" stroke-width="0.3" x1="100.0" x2="100.0" y1="15.0" y2="10.0" /><path d="M 100.0 14.0 a86.0,86.0 0 0,1 42.46469731375804,11.215312516191453" fill="none" id="id133" stroke="none" /><text fill="#e1ed5e" style="font-size:6.75px; font-family:Arial;" text-anchor="middle"><textPath startOffset="22.20632615414155" xlink:href="#id133">January</textPath></text><path d="M 100.72285384407766 79.0124445844662 l 0.49948545539757555 -14.502210592496349 a35.510809687583496,35.510809687583496 0 0,0 0.6107168794261199,0.02629875350517011 l -0.749043167213027 14.491464112466984" fill="red" stroke="none" /><path d="M 103.95276090670814 79.375362276772 l 0.8019692531569619 -4.184499316277874 a25.26065596017082,25.26065596017082 0 0,0 0.42634404719900015,0.08552060503156352 l -0.8738797098230874 4.170074755169102" fill="red" stroke="none" /><path d="M 106.40334571778207 80.00007090966166 l 4.074028137503414 -12.724640750825154 a34.360920159282806,34.360920159282806 0 0,0 0.5617473397256474,0.1851992658978549 l -4.292458299471479 12.652627760668063" fill="red" stroke="none" /><path d="M 106.74666289553966 80.11325718540242 l 3.4774753151688627 -10.25035018165721 a31.82416340481835,31.82416340481835 0 0,0 0.517245698842643,0.1804568679406679 l -3.6534030180747794 10.188972460544335" fill="red" stroke="none" /><line stroke="#e1ed5e" stroke-width="0.3" x1="143.23703022742887" x2="145.7803849466894" y1="26.81831364943548" y2="22.513508569990506" /><path d="M 143.74570117128098 25.957352633546492 a86.0,86.0 0 0,1 28.547481713284135,27.462654790039103" fill="none" id="id134" stroke="none" /><text fill="#e1ed5e" style="font-size:6.75px; font-family:Arial;" text-anchor="middle"><textPath startOffset="19.985693538727396" xlink:href="#id134">February</textPath></text><path d="M 112.77801427241765 83.33499621200491 l 22.64835795474882 -29.53784234867237 a58.22139503916339,58.22139503916339 0 0,0 0.7900572466363719,0.6166522126800815 l -23.153447756544622 29.143611746769064" fill="red" stroke="none" /><path d="M 113.34407831869373 83.78471172551755 l 21.006962276206753 -25.526974658315385 a54.059323938644745,54.059323938644745 0 0,0 0.7134349612705215,0.5974812627729542 l -21.443254774436394 25.16159223814861" fill="red" stroke="none" /><path d="M 113.89432698308785 84.25364557470407 l 41.68298094926353 -47.23906327588782 a84.0,84.0 0 0,0 1.0759560496160399,0.9660039649228103 l -42.48994798647556 46.51456030219571" fill="red" stroke="none" /><path d="M 115.68641384162765 86.03803664274999 l 28.238997420064834 -25.134607004829117 a58.804622000195074,58.804622000195074 0 0,0 0.6664751664416904,0.7618963271247132 l -28.667464450084374 24.644795121501456" fill="red" stroke="none" /><path d="M 116.38621287248628 86.86637796730983 l 25.678893279764157 -20.58174644615355 a53.90917572421514,53.90917572421514 0 0,0 0.5741222461554119,0.7290769495904438 l -26.02936960651353 20.136677102610065" fill="red" stroke="none" /><line stroke="#e1ed5e" stroke-width="0.3" x1="172.23445277983987" x2="176.4835382374775" y1="55.19839476539836" y2="52.563006222186495" /><path d="M 173.08426987136738 54.67131705675599 a86.0,86.0 0 0,1 12.851231095245387,41.99856678651699" fill="none" id="id135" stroke="none" /><text fill="#e1ed5e" style="font-size:6.75px; font-family:Arial;" text-anchor="middle"><textPath startOffset="22.20632615414155" xlink:href="#id135">March</textPath></text><path d="M 119.196687751892 91.48605970444005 l 6.355844403250713 -2.8188862827032253 a27.95290428189155,27.95290428189155 0 0,0 0.19129009677076783,0.4415239172186781 l -6.403425209864162 2.7090632208979444" fill="red" stroke="none" /><path d="M 119.34039704204932 91.81776055985345 l 3.334027996451781 -1.4105095830147414 a24.620121540073026,24.620121540073026 0 0,0 0.16176394470267008,0.3917242230985135 l -3.357813628040648 1.3529107894629246" fill="red" stroke="none" /><path d="M 119.61058180528143 92.48833698450437 l 6.493629340142094 -2.4873283125922376 a27.953705784815547,27.953705784815547 0 0,0 0.16824857836077425,0.4508225420764909 l -6.535482507004494 2.3751826334864137" fill="red" stroke="none" /><path d="M 120.08093135843002 93.85539295169968 l 3.3982007548226747 -1.039822702290008 a24.553730381201575,24.553730381201575 0 0,0 0.12018946129032172,0.4052191140892091 l -3.415596113224699 0.9811742014542689" fill="red" stroke="none" /><path d="M 120.37134235888165 94.90015583598534 l 4.921373242348238 -1.2320364641059107 a26.07324634128758,26.07324634128758 0 0,0 0.10524552764098967,0.4363106582338482 l -4.941851570250048 1.1471405742126564" fill="red" stroke="none" /><path d="M 120.45610955862082 95.25157060432595 l 6.7677523874007335 -1.570982707483287 a27.94769451288554,27.94769451288554 0 0,0 0.104744782310307,0.4695503207092718 l -6.793791556713078 1.4542542172240513" fill="red" stroke="none" /><path d="M 120.6074358757038 95.95851677861258 l 6.816244538954608 -1.3367862990435204 a27.946091507037536,27.946091507037536 0 0,0 0.08851495457806816,0.4728504267470345 l -6.838245217442536 1.2192577948339232" fill="red" stroke="none" /><path d="M 120.78858239683441 97.02765380044208 l 6.876293935631637 -0.9831707500041045 a27.946225090858203,27.946225090858203 0 0,0 0.06398887207613084,0.4767914218374644 l -6.892198806765603 0.8646609861019757" fill="red" stroke="none" /><path d="M 120.94382443527127 98.46500227214037 l 15.830902981060651 -1.1602656516242735 a36.87336465838589,36.87336465838589 0 0,0 0.04094595578629672,0.6334158129050088 l -15.848529527851364 0.8875907744662294" fill="red" stroke="none" /><line stroke="#e1ed5e" stroke-width="0.3" x1="184.98032266829074" x2="189.97916517819016" y1="98.17113171792111" y2="98.06355123074" /><path d="M 185.9800911702706 98.14961562048488 a86.0,86.0 0 0,1 -9.607161424134198,41.387399972396054" fill="none" id="id136" stroke="none" /><text fill="#e1ed5e" style="font-size:6.75px; font-family:Arial;" text-anchor="middle"><textPath startOffset="21.466115282336823" xlink:href="#id136">April</textPath></text><path d="M 120.9904718944345 100.63252640178507 l 2.2915253490287726 0.06905277265370866 a23.292565530285362,23.292565530285362 0 0,0 -0.015526011326075157,0.40065736404554014 l -2.289997204851494 -0.108487383713255" fill="red" stroke="none" /><path d="M 120.9764740272857 100.99374915477107 l 16.95147680365538 0.8030670799983629 a37.97048857752314,37.97048857752314 0 0,0 -0.03654867298738712,0.6526011081995639 l -16.935141779780462 -1.0947399045333501" fill="red" stroke="none" /><path d="M 120.92983693683757 101.71520430193887 l 6.923682757911985 0.5673971797997664 a27.946893009961535,27.946893009961535 0 0,0 -0.04341803177387506,0.47911436265847673 l -6.912890129861035 -0.6864929310068136" fill="red" stroke="none" /><path d="M 120.8583938346157 102.4346265915055 l 6.902171991989481 0.8056330513308548 a27.94903035109221,27.94903035109221 0 0,0 -0.05988877065777066,0.4773724272295006 l -6.887281712084862 -0.9243232328477503" fill="red" stroke="none" /><path d="M 120.49622156327973 104.57218783832717 l 6.779849734181619 1.5124127344450196 a27.94649225849954,27.94649225849954 0 0,0 -0.10877764102075899,0.46861123054206566 l -6.752811527230307 -1.6288926223356501" fill="red" stroke="none" /><path d="M 120.23288151984713 105.62410040840565 l 15.2043274296286 4.226321595499249 a36.780791070663724,36.780791070663724 0 0,0 -0.1748092271431546,0.6085338525014254 l -15.129325565599347 -4.487412923505255" fill="red" stroke="none" /><path d="M 119.67450827220406 107.3425965602758 l 9.430342649829194 3.519437464197467 a31.065674471071684,31.065674471071684 0 0,0 -0.1912842579712157,0.4993828372317638 l -9.368364112264473 -3.6812438682623743" fill="red" stroke="none" /><path d="M 119.26925614724726 108.34839909993367 l 10.702332174095343 4.636782012063945 a32.66360413388915,32.66360413388915 0 0,0 -0.2279591614585669,0.5139877296279997 l -10.620931927905504 -4.820318078184632" fill="red" stroke="none" /><line stroke="#e1ed5e" stroke-width="0.3" x1="174.80103733775053" x2="179.2010983576182" y1="140.37084112569926" y2="142.7455964860345" /><path d="M 175.68104954172406 140.8457921977663 a86.0,86.0 0 0,1 -30.038265399797805,32.042727171017184" fill="none" id="id137" stroke="none" /><text fill="#e1ed5e" style="font-size:6.75px; font-family:Arial;" text-anchor="middle"><textPath startOffset="22.206326154141568" xlink:href="#id137">May</textPath></text><path d="M 118.12598468904814 110.60418214915192 l 4.4120242664112626 2.581151301301267 a26.11158489781898,26.11158489781898 0 0,0 -0.23030308994787746,0.38600122576162615 l -4.366940300765158 -2.656714620948997" fill="red" stroke="none" /><path d="M 117.94076556474637 110.91462005526583 l 13.078224425631383 7.956396848736242 a36.308305096964894,36.308305096964894 0 0,0 -0.3294293330807498,0.5311449775093597 l -12.939330452882672 -8.180338157610874" fill="red" stroke="none" /><path d="M 117.75023020441432 111.22182372390056 l 5.872193502998063 3.7124431404213785 a27.947293761423538,27.947293761423538 0 0,0 -0.26056877144093477,0.40440851974983544 l -5.8074198681800775 -3.812973260092667" fill="red" stroke="none" /><line stroke="#e1ed5e" stroke-width="0.3" x1="143.8653032363475" x2="146.44561519142675" y1="172.8068346515853" y2="177.08958963109032" /><path d="M 144.38136562736335 173.6633856474863 a86.0,86.0 0 0,1 -40.68145358897372,12.25698825130547" fill="none" id="id138" stroke="none" /><text fill="#e1ed5e" style="font-size:6.75px; font-family:Arial;" text-anchor="middle"><textPath startOffset="21.466115282336833" xlink:href="#id138">June</textPath></text><line stroke="#e1ed5e" stroke-width="0.3" x1="102.19456741930631" x2="102.32365962044197" y1="184.97166512339345" y2="189.96999836594603" /><path d="M 102.22038585953345 185.97133177190398 a86.0,86.0 0 0,1 -42.740103519485714,-10.115201625700543" fill="none" id="id139" stroke="none" /><text fill="#e1ed5e" style="font-size:6.75px; font-family:Arial;" text-anchor="middle"><textPath startOffset="22.20632615414155" xlink:href="#id139">July</textPath></text><line stroke="#e1ed5e" stroke-width="0.3" x1="58.666819895761336" x2="56.23545636021788" y1="174.27360380694188" y2="178.64263932499728" /><path d="M 58.180547188652646 175.14741091055294 a86.0,86.0 0 0,1 -31.652253787137756,-30.449443065178592" fill="none" id="id140" stroke="none" /><text fill="#e1ed5e" style="font-size:6.75px; font-family:Arial;" text-anchor="middle"><textPath startOffset="22.20632615414155" xlink:href="#id140">August</textPath></text><line stroke="#e1ed5e" stroke-width="0.3" x1="26.63291911575756" x2="22.317208475507996" y1="142.92168965132927" y2="145.44649492493687" /><path d="M 25.769776987707644 143.4266507060508 a86.0,86.0 0 0,1 -11.730757126820373,-40.83630448921669" fill="none" id="id141" stroke="none" /><text fill="#e1ed5e" style="font-size:6.75px; font-family:Arial;" text-anchor="middle"><textPath startOffset="21.46611528233685" xlink:href="#id141">September</textPath></text><line stroke="#e1ed5e" stroke-width="0.3" x1="15.007084014347285" x2="10.007500721073583" y1="101.09737516637583" y2="101.16192664675087" /><path d="M 14.007167355692545 101.11028546245083 a86.0,86.0 0 0,1 10.666146001902534,-42.60595125391555" fill="none" id="id142" stroke="none" /><text fill="#e1ed5e" style="font-size:6.75px; font-family:Arial;" text-anchor="middle"><textPath startOffset="22.20632615414155" xlink:href="#id142">October</textPath></text><line stroke="#e1ed5e" stroke-width="0.3" x1="26.266209847984243" x2="21.928928074336255" y1="57.711370442889674" y2="55.22380399835377" /><path d="M 25.398753493254645 57.213857153982495 a86.0,86.0 0 0,1 29.58750427330803,-30.492523968695096" fill="none" id="id143" stroke="none" /><text fill="#e1ed5e" style="font-size:6.75px; font-family:Arial;" text-anchor="middle"><textPath startOffset="21.46611528233685" xlink:href="#id143">November</textPath></text><line stroke="#e1ed5e" stroke-width="0.3" x1="56.762969772571076" x2="54.21961505331055" y1="26.818313649435495" y2="22.513508569990535" /><path d="M 56.25429882871897 25.957352633546506 a86.0,86.0 0 0,1 42.265352541879196,-11.944610805530505" fill="none" id="id144" stroke="none" /><text fill="#e1ed5e" style="font-size:6.75px; font-family:Arial;" text-anchor="middle"><textPath startOffset="22.20632615414155" xlink:href="#id144">December</textPath></text></svg>