<?xml version="1.0" encoding="utf-8" ?>
<svg baseProfile="full" height="200mm" version="1.1" viewBox="0,0,200,200" width="200mm" xmlns="http://www.w3.org/2000/svg" xmlns:ev="http://www.w3.org/2001/xml-events" xmlns:xlink="http://www.w3.org/1999/xlink"><defs /><rect fill="#1a1a1a" height="200" width="200" x="0" y="0" /><text alignment-baseline="middle" fill="#e1ed5e" style="dominant-baseline: central; font-size:9.0px; font-family:Arial;" text-anchor="middle" x="100.0" y="100.0">2025</text><line stroke="#e1ed5e" stroke-width="0.3" x1="100.0" x2="100.0" y1="15.0" y2="10.0" /><path d="M 100.0 14.0 a86.0,86.0 0 0,1 42.46469731375804,11.215312516191453" fill="none" id="id121" stroke="none" /><text fill="#e1ed5e" style="font-size:6.75px; font-family:Arial;" text-anchor="middle"><textPath startOffset="22.20632615414155" xlink:href="#id121">January</textPath></text><path d="M 100.0 79.0 l 0.0 -17.86937548011703 a38.86937548011703,38.86937548011703 0 0,0 0.6690724036941222,0.005758917412291799 l -0.30759192442159383 17.866727939313297" fill="red" stroke="none" /><path d="M 100.72285384407766 79.0124445844662 l 0.615340809719968 -17.86598971458162 a38.87658336466012,38.87658336466012 0 0,0 0.66860164226321,0.028791393156768316 l -0.9227832843725096 17.852750594900655" fill="red" stroke="none" /><path d="M 102.52436894288641 79.15227682838746 l 4.128778839640092 -34.097883563409695 a55.346942778222704,55.346942778222704 0 0,0 0.9448125622910416,0.122663786887479 l -4.71510613043898 34.02176145335808" fill="red" stroke="none" /><line stroke="#e1ed5e" stroke-width="0.3" x1="143.23703022742887" x2="145.7803849466894" y1="26.81831364943548" y2="22.513508569990506" /><path d="M 143.74570117128098 25.957352633546492 a86.0,86.0 0 0,1 28.547481713284135,27.462654790039103" fill="none" id="id122" stroke="none" /><text fill="#e1ed5e" style="font-size:6.75px; font-family:Arial;" text-anchor="middle"><textPath startOffset="19.985693538727396" xlink:href="#id122">February</textPath></text><path d="M 110.99172775467656 82.1063720568725 l 2.416336863187482 -3.9335974998784775 a25.616478433551805,25.616478433551805 0 0,0 0.3737332559861543,0.23403173061217503 l -2.4836892715458996 3.8914214279433583" fill="red" stroke="none" /><line stroke="#e1ed5e" stroke-width="0.3" x1="172.23445277983987" x2="176.4835382374775" y1="55.19839476539836" y2="52.563006222186495" /><path d="M 173.08426987136738 54.67131705675599 a86.0,86.0 0 0,1 12.851231095245387,41.99856678651699" fill="none" id="id123" stroke="none" /><text fill="#e1ed5e" style="font-size:6.75px; font-family:Arial;" text-anchor="middle"><textPath startOffset="22.20632615414155" xlink:href="#id123">March</textPath></text><line stroke="#e1ed5e" stroke-width="0.3" x1="184.98032266829074" x2="189.97916517819016" y1="98.17113171792111" y2="98.06355123074" /><path d="M 185.9800911702706 98.14961562048488 a86.0,86.0 0 0,1 -9.607161424134198,41.387399972396054" fill="none" id="id124" stroke="none" /><text fill="#e1ed5e" style="font-size:6.75px; font-family:Arial;" text-anchor="middle"><textPath startOffset="21.466115282336823" xlink:href="#id124">April</textPath></text><path d="M 120.02730092923936 106.31721596034902 l 18.859699104964694 5.948919058749474 a40.775689325466224,40.775689325466224 0 0,0 -0.21690287941946088,0.6675584211551886 l -18.754503974528987 -6.272676379882458" fill="red" stroke="none" /><path d="M 119.67450827220406 107.3425965602758 l 17.49524045989138 6.529286051000521 a39.67391268816502,39.67391268816502 0 0,0 -0.24428875530892813,0.6377608540497155 l -17.380257424988947 -6.82947047188338" fill="red" stroke="none" /><path d="M 119.41010516605496 108.01547362559984 l 16.509201293436636 6.817534805462132 a38.861481130379346,38.861481130379346 0 0,0 -0.2606476898394063,0.6160941446974753 l -16.38940262240492 -7.100703475825771" fill="red" stroke="none" /><path d="M 119.12269723197855 108.67885076344098 l 16.270060753932874 7.3841795162330035 a38.867316084533286,38.867316084533286 0 0,0 -0.28174248016073644,0.6068482372785332 l -16.140543656932305 -7.663147820790368" fill="red" stroke="none" /><path d="M 118.97047184881838 109.00673069616215 l 16.144264390832017 7.6649143371160475 a38.87143487570077,38.87143487570077 0 0,0 -0.2921775907544088,0.601972377097831 l -16.009933543462896 -7.941675670179154" fill="red" stroke="none" /><path d="M 118.64920377521936 109.65438752849418 l 15.874516329918832 8.21797725649244 a38.87555366686824,38.87555366686824 0 0,0 -0.3127584420659976,0.5916211062925839 l -15.73070537962794 -8.490013377871158" fill="red" stroke="none" /><line stroke="#e1ed5e" stroke-width="0.3" x1="174.80103733775053" x2="179.2010983576182" y1="140.37084112569926" y2="142.7455964860345" /><path d="M 175.68104954172406 140.8457921977663 a86.0,86.0 0 0,1 -30.038265399797805,32.042727171017184" fill="none" id="id125" stroke="none" /><text fill="#e1ed5e" style="font-size:6.75px; font-family:Arial;" text-anchor="middle"><textPath startOffset="22.206326154141568" xlink:href="#id125">May</textPath></text><path d="M 118.30583269289576 110.29060199501025 l 15.576847517407437 8.756506236441878 a38.86937548011703,38.86937548011703 0 0,0 -0.3328847424239377,0.5804126073545773 l -15.42381077883112 -9.02333868965477" fill="red" stroke="none" /><path d="M 117.94076556474637 110.91462005526583 l 24.333792563138083 14.803944646163714 a49.483157086118695,49.483157086118695 0 0,0 -0.44896624598906765,0.723876542499244 l -24.07536167748105 -15.220617520028231" fill="red" stroke="none" /><path d="M 117.75023020441432 111.22182372390056 l 38.14458701398094 24.11528338294043 a66.12822189170194,66.12822189170194 0 0,0 -0.6165516304723101,0.9569018223090255 l -37.72383052013158 -24.76830680517091" fill="red" stroke="none" /><path d="M 117.35343817320211 111.8261652097733 l 28.386143958489114 19.34482520241441 a55.35106156939019,55.35106156939019 0 0,0 -0.543334172358421,0.7827133990597466 l -28.048948878968556 -19.830579863661175" fill="red" stroke="none" /><path d="M 116.93607887273984 112.41649034213515 l 36.35542210923022 26.65355723101193 a66.07913963028946,66.07913963028946 0 0,0 -0.6804223548348541,0.9115369373333554 l -35.89123848770027 -27.275407047854603" fill="red" stroke="none" /><path d="M 116.498646956653 112.99209946851258 l 14.035297007336604 11.052298729012021 a38.86457022375497,38.86457022375497 0 0,0 -0.4184087230132036,0.5220292152411804 l -13.842970372268548 -11.292255777831452" fill="red" stroke="none" /><path d="M 116.0416608686014 113.55231037782055 l 13.634218767110818 11.518455975631245 a38.84843829168233,38.84843829168233 0 0,0 -0.4359488321386819,0.5071069808362064 l -13.433927425401357 -11.75144005562898" fill="red" stroke="none" /><path d="M 115.56566222782051 114.09645910891815 l 25.45743793479613 23.054575360390732 a55.34522661523625,55.34522661523625 0 0,0 -0.6455720028425186,0.7006409070664916 l -25.05681952395789 -23.489367522258558" fill="red" stroke="none" /><path d="M 113.48314897796784 116.09983520530334 l 11.47179450496206 13.698135453431028 a38.867316084533286,38.867316084533286 0 0,0 -0.5166204258327921,0.42514343912086655 l -11.234303950584579 -13.893574011409074" fill="red" stroke="none" /><path d="M 112.92097659922987 116.55440617244103 l 16.90921913517052 21.664158237010422 a48.48194759982348,48.48194759982348 0 0,0 -0.6622894263368176,0.5078152906451457 l -16.53380098034021 -21.95201286948294" fill="red" stroke="none" /><path d="M 112.34349029814194 116.9893568818739 l 7.320997269486209 10.076488281539643 a33.45522449046304,33.45522449046304 0 0,0 -0.46880753848685697,0.3344817310982153 l -7.146462403150467 -10.201014274482077" fill="red" stroke="none" /><path d="M 111.1453310114006 117.79835938074945 l 9.483632345333293 15.144736082264641 a38.86903224751974,38.86903224751974 0 0,0 -0.5701176386065677,0.35021281830716294 l -9.221535506794416 -15.305737367400182" fill="red" stroke="none" /><line stroke="#e1ed5e" stroke-width="0.3" x1="143.8653032363475" x2="146.44561519142675" y1="172.8068346515853" y2="177.08958963109032" /><path d="M 144.38136562736335 173.6633856474863 a86.0,86.0 0 0,1 -40.68145358897372,12.25698825130547" fill="none" id="id126" stroke="none" /><text fill="#e1ed5e" style="font-size:6.75px; font-family:Arial;" text-anchor="middle"><textPath startOffset="21.466115282336833" xlink:href="#id126">June</textPath></text><path d="M 110.21172684928248 118.3499491758327 l 8.689723398346658 15.61498706978333 a38.870061945311605,38.870061945311605 0 0,0 -0.5874509982235447,0.3203251231577606 l -8.419649588254464 -15.76225284470086" fill="red" stroke="none" /><path d="M 108.92500713936063 119.00905698771935 l 13.081685929810279 27.862220102719636 a51.78041285978131,51.78041285978131 0 0,0 -0.810072515086402,0.3718645601283233 l -12.600145418956458 -28.083271733182034" fill="red" stroke="none" /><path d="M 103.7750983002368 120.6578951692458 l 6.648363791421086 36.38082808110481 a57.98331235800794,57.98331235800794 0 0,0 -0.9833722063696155,0.17097186301277909 l -6.02114261357942 -36.48987852263859" fill="red" stroke="none" /><path d="M 103.41894727170886 120.7198165907248 l 5.702287488260773 34.55752356347222 a56.02482715787065,56.02482715787065 0 0,0 -0.9528599527772841,0.1488171280691363 l -5.106591671874972 -34.650558998888464" fill="red" stroke="none" /><path d="M 103.06178313531738 120.77559828337769 l 5.209780414254791 35.35074178921135 a56.73257277348283,56.73257277348283 0 0,0 -0.9673482027903172,0.13406564640983953 l -4.600503620277643 -35.43518200111379" fill="red" stroke="none" /><path d="M 102.70371172650421 120.8252237178851 l 4.602006099703319 35.446754784508 a56.74424268179069,56.74424268179069 0 0,0 -0.9697120284862895,0.11741862207702806 l -3.991166648165649 -35.52071893531038" fill="red" stroke="none" /><path d="M 102.34483914955558 120.86867818915974 l 3.9897486227577157 35.50809874517588 a56.73154307569095,56.73154307569095 0 0,0 -0.9713720778230285,0.10068668756715943 l -3.3779439483290847 -35.571514801198795" fill="red" stroke="none" /><path d="M 101.98527174616119 120.90594882070398 l 3.379371664472967 35.58654939819652 a56.746645309971726,56.746645309971726 0 0,0 -0.9732203217853148,0.08397354446118331 l -2.766307024946111 -35.639447194936366" fill="red" stroke="none" /><path d="M 101.62511606390274 120.93702456842531 l 2.7643680309009517 35.614466353959365 a56.72158933036954,56.72158933036954 0 0,0 -0.974091303825512,0.06717903944350984 l -2.1509139662965095 -35.65677373791916" fill="red" stroke="none" /><path d="M 100.90346689309514 120.98055641714683 l 2.7098690805055137 62.92932431851765 a83.98764362649754,83.98764362649754 0 0,0 -1.4449060168121746,0.049765484731519455 l -1.6262427120186869 -62.966646601675265" fill="red" stroke="none" /><line stroke="#e1ed5e" stroke-width="0.3" x1="102.19456741930631" x2="102.32365962044197" y1="184.97166512339345" y2="189.96999836594603" /><path d="M 102.22038585953345 185.97133177190398 a86.0,86.0 0 0,1 -42.740103519485714,-10.115201625700543" fill="none" id="id127" stroke="none" /><text fill="#e1ed5e" style="font-size:6.75px; font-family:Arial;" text-anchor="middle"><textPath startOffset="22.20632615414155" xlink:href="#id127">July</textPath></text><path d="M 100.54218724476979 120.99299961872073 l 1.626561734309384 62.97899885616221 a84.0,84.0 0 0,0 -1.4457612404293283,0.02489009088336136 l -0.5422408039873879 -62.99766642432473" fill="red" stroke="none" /><path d="M 100.18074693466247 120.99922214144158 l 0.3075087838596516 35.72644412903807 a56.72776751712077,56.72776751712077 0 0,0 -0.9765114370441894,0.0 l 0.30750878385962693 -35.72644412903807" fill="red" stroke="none" /><path d="M 99.81925306533755 120.99922214144158 l -0.5421403611228475 62.98599694828058 a83.98833009169213,83.98833009169213 0 0,0 -1.4455603844637226,-0.02488663296576156 l 1.6262604354792378 -62.96733283803566" fill="red" stroke="none" /><path d="M 99.45781275523022 120.99299961872073 l -0.9229314869863043 35.7350722306936 a56.74698854256901,56.74698854256901 0 0,0 -0.9762634316277329,-0.033624486530825365 l 1.5379152702886802 -35.713890945736686" fill="red" stroke="none" /><path d="M 99.09653310690486 120.98055641714683 l -1.5371326387515862 35.69571646115586 a56.72879721491264,56.72879721491264 0 0,0 -0.9752272694826238,-0.0504081103894349 l 2.151347976647699 -35.66396854400423" fill="red" stroke="none" /><line stroke="#e1ed5e" stroke-width="0.3" x1="58.666819895761336" x2="56.23545636021788" y1="174.27360380694188" y2="178.64263932499728" /><path d="M 58.180547188652646 175.14741091055294 a86.0,86.0 0 0,1 -31.652253787137756,-30.449443065178592" fill="none" id="id128" stroke="none" /><text fill="#e1ed5e" style="font-size:6.75px; font-family:Arial;" text-anchor="middle"><textPath startOffset="22.20632615414155" xlink:href="#id128">August</textPath></text><line stroke="#e1ed5e" stroke-width="0.3" x1="26.63291911575756" x2="22.317208475507996" y1="142.92168965132927" y2="145.44649492493687" /><path d="M 25.769776987707644 143.4266507060508 a86.0,86.0 0 0,1 -11.730757126820373,-40.83630448921669" fill="none" id="id129" stroke="none" /><text fill="#e1ed5e" style="font-size:6.75px; font-family:Arial;" text-anchor="middle"><textPath startOffset="21.46611528233685" xlink:href="#id129">September</textPath></text><line stroke="#e1ed5e" stroke-width="0.3" x1="15.007084014347285" x2="10.007500721073583" y1="101.09737516637583" y2="101.16192664675087" /><path d="M 14.007167355692545 101.11028546245083 a86.0,86.0 0 0,1 10.666146001902534,-42.60595125391555" fill="none" id="id130" stroke="none" /><text fill="#e1ed5e" style="font-size:6.75px; font-family:Arial;" text-anchor="middle"><textPath startOffset="22.20632615414155" xlink:href="#id130">October</textPath></text><line stroke="#e1ed5e" stroke-width="0.3" x1="26.266209847984243" x2="21.928928074336255" y1="57.711370442889674" y2="55.22380399835377" /><path d="M 25.398753493254645 57.213857153982495 a86.0,86.0 0 0,1 29.58750427330803,-30.492523968695096" fill="none" id="id131" stroke="none" /><text fill="#e1ed5e" style="font-size:6.75px; font-family:Arial;" text-anchor="middle"><textPath startOffset="21.46611528233685" xlink:href="#id131">November</textPath></text><line stroke="#e1ed5e" stroke-width="0.3" x1="56.762969772571076" x2="54.21961505331055" y1="26.818313649435495" y2="22.513508569990535" /><path d="M 56.25429882871897 25.957352633546506 a86.0,86.0 0 0,1 42.265352541879196,-11.944610805530505" fill="none" id="id132" stroke="none" /><text fill="#e1ed5e" style="font-size:6.75px; font-family:Arial;" text-anchor="middle"><textPath startOffset="22.20632615414155" xlink:href="#id132">December</textPath></text></svg>