<?xml version="1.0" encoding="utf-8" ?>
<svg baseProfile="full" height="200mm" version="1.1" viewBox="0,0,200,200" width="200mm" xmlns="http://www.w3.org/2000/svg" xmlns:ev="http://www.w3.org/2001/xml-events" xmlns:xlink="http://www.w3.org/1999/xlink"><defs /><rect fill="#1a1a1a" height="200" width="200" x="0" y="0" /><rect fill="#1a1a1a" height="200" width="180" x="10" y="0" /><text alignment-baseline="middle" fill="#e1ed5e" style="dominant-baseline: central; font-size:9.0px; font-family:Arial;" text-anchor="middle" x="100.0" y="100.0">2026</text><line stroke="#e1ed5e" stroke-width="0.3" x1="100.0" x2="100.0" y1="15.0" y2="10.0" /><path d="M 100.0 14.0 a86.0,86.0 0 0,1 42.46469731375804,11.215312516191453" fill="none" id="id133" stroke="none" /><text fill="#e1ed5e" style="font-size:6.75px; font-family:Arial;" text-anchor="middle"><textPath startOffset="22.20632615414155" xlink:href="#id133">January</textPath></text><path d="M 100.72285384407766 79.0124445844662 l 0.21878545800222354 -6.352282638537491 a27.356049228608764,27.356049228608764 0 0,0 0.4704708556438481,0.020259464705757825 l -0.3280971460354032 6.3475754473075385" fill="#ff4c07" stroke="none" /><path d="M 103.95276090670814 79.375362276772 l 0.3512799190839036 -1.8329014179064116 a22.866259678960816,22.866259678960816 0 0,0 0.385931929527199,0.07741431440406468 l -0.38277825807822796 1.8265831474251386" fill="#ff0d01" stroke="none" /><path d="M 106.40334571778207 80.00007090966166 l 1.7845126466558503 -5.573668511262425 a26.8523726863139,26.8523726863139 0 0,0 0.4389943241314325,0.14472952662699423 l -1.8801897930297002 5.542125260376194" fill="#ff4506" stroke="none" /><path d="M 106.74666289553966 80.11325718540242 l 1.5232095775742973 -4.489875600866063 a25.74121823252911,25.74121823252911 0 0,0 0.4183781438141313,0.14596391930655161 l -1.6002697254517022 4.462990828387304" fill="#ff3605" stroke="none" /><line stroke="#e1ed5e" stroke-width="0.3" x1="143.23703022742887" x2="145.7803849466894" y1="26.81831364943548" y2="22.513508569990506" /><path d="M 143.74570117128098 25.957352633546492 a86.0,86.0 0 0,1 28.547481713284135,27.462654790039103" fill="none" id="id134" stroke="none" /><text fill="#e1ed5e" style="font-size:6.75px; font-family:Arial;" text-anchor="middle"><textPath startOffset="19.985693538727396" xlink:href="#id134">February</textPath></text><path d="M 112.77801427241765 83.33499621200491 l 9.920471786678734 -12.938215311010097 a37.30377796415128,37.30377796415128 0 0,0 0.5062077280640066,0.39510316108789173 l -10.14171206990217 12.76553376069898" fill="#ffd013" stroke="none" /><path d="M 113.34407831869373 83.78471172551755 l 9.201504895026494 -11.181368309484105 a35.48070059097736,35.48070059097736 0 0,0 0.4682480358190269,0.3921442639058226 l -9.392610467804639 11.021322888184462" fill="#ffb911" stroke="none" /><path d="M 113.89432698308785 84.25364557470407 l 18.25804931721912 -20.691733828735035 a48.59536580133018,48.59536580133018 0 0,0 0.6224580692529241,0.5588490004876107 l -18.61151837406803 20.374385819478128" fill="#a7ff21" stroke="none" /><path d="M 115.68641384162765 86.03803664274999 l 12.369293074119183 -11.00950277096723 a37.55924401708568,37.55924401708568 0 0,0 0.42568598447292466,0.4866326675155485 l -12.556970922169956 10.794954547248734" fill="#ffd413" stroke="none" /><path d="M 116.38621287248628 86.86637796730983 l 11.247911959181133 -9.015251143044996 a35.414932417936065,35.414932417936065 0 0,0 0.37716214863390185,0.4789576273491884 l -11.401428188409 8.82030112174277" fill="#ffb811" stroke="none" /><line stroke="#e1ed5e" stroke-width="0.3" x1="172.23445277983987" x2="176.4835382374775" y1="55.19839476539836" y2="52.563006222186495" /><path d="M 173.08426987136738 54.67131705675599 a86.0,86.0 0 0,1 12.851231095245387,41.99856678651699" fill="none" id="id135" stroke="none" /><text fill="#e1ed5e" style="font-size:6.75px; font-family:Arial;" text-anchor="middle"><textPath startOffset="22.20632615414155" xlink:href="#id135">March</textPath></text><path d="M 119.196687751892 91.48605970444005 l 2.7839976394292147 -1.23473330354837 a24.04552281016559,24.04552281016559 0 0,0 0.1645507149766917,0.3798057373806801 l -2.8048390642485868 1.1866284215810874" fill="#ff1e03" stroke="none" /><path d="M 119.34039704204932 91.81776055985345 l 1.4603765421263952 -0.6178337763424366 a22.58569171656492,22.58569171656492 0 0,0 0.14839693540761964,0.3593549498288823 l -1.4707951644202122 0.5926042560602512" fill="#ff0801" stroke="none" /><path d="M 119.61058180528143 92.48833698450437 l 2.8443504288805004 -1.0895037246664792 a24.045873885822395,24.045873885822395 0 0,0 0.14472800593507357,0.387799101668505 l -2.8626830233171994 1.0403814859686409" fill="#ff1e03" stroke="none" /><path d="M 120.08093135843002 93.85539295169968 l 1.48848560151886 -0.45546488632095966 a22.556610949659653,22.556610949659653 0 0,0 0.110413646989077,0.3722599280830231 l -1.4961051456196393 0.42977557149140666" fill="#ff0801" stroke="none" /><path d="M 120.37134235888165 94.90015583598534 l 2.155668172499651 -0.5396586810726985 a23.222191882350646,23.222191882350646 0 0,0 0.09373715131775213,0.3886010086046225 l -2.1646381240782224 0.5024724408086699" fill="#ff1202" stroke="none" /><path d="M 120.45610955862082 95.25157060432595 l 2.9644222663991866 -0.6881244838184979 a24.043240818396363,24.043240818396363 0 0,0 0.09011133366997702,0.4039514397856014 l -2.9758279870712014 0.6369948744829326" fill="#ff1e03" stroke="none" /><path d="M 120.6074358757038 95.95851677861258 l 2.985662880059866 -0.5855413796874968 a24.042538667082756,24.042538667082756 0 0,0 0.07615105022905838,0.4068019553270723 l -2.9952996541987837 0.5340613468978617" fill="#ff1e03" stroke="none" /><path d="M 120.78858239683441 97.02765380044208 l 3.0119658176384654 -0.430650103040181 a24.042597179692223,24.042597179692223 0 0,0 0.05505067930668504,0.41019150374340735 l -3.0189324960029866 0.3787402572321093" fill="#ff1e03" stroke="none" /><path d="M 120.94382443527127 98.46500227214037 l 6.93427870996408 -0.5082215092585801 a27.952877845175635,27.952877845175635 0 0,0 0.031040218622631576,0.48017844336615517 l -6.9419995195911275 0.38878400163938975" fill="#ff5507" stroke="none" /><line stroke="#e1ed5e" stroke-width="0.3" x1="184.98032266829074" x2="189.97916517819016" y1="98.17113171792111" y2="98.06355123074" /><path d="M 185.9800911702706 98.14961562048488 a86.0,86.0 0 0,1 -9.607161424134198,41.387399972396054" fill="none" id="id136" stroke="none" /><text fill="#e1ed5e" style="font-size:6.75px; font-family:Arial;" text-anchor="middle"><textPath startOffset="21.466115282336823" xlink:href="#id136">April</textPath></text><path d="M 120.9904718944345 100.63252640178507 l 1.003737781737615 0.03024661144405045 a22.004193403678492,22.004193403678492 0 0,0 -0.014667227427672501,0.37849596754823767 l -1.0030684214587393 -0.04751982600629428" fill="#ff0000" stroke="none" /><path d="M 120.9764740272857 100.99374915477107 l 7.4251143376132305 0.35176079104064945 a28.4334419067309,28.4334419067309 0 0,0 -0.027368743702975155,0.48868730409870625 l -7.417959243022725 -0.479519811474779" fill="#ff5b08" stroke="none" /><path d="M 120.92983693683757 101.71520430193887 l 3.0327231491578406 0.24853226557488375 a24.04288974273956,24.04288974273956 0 0,0 -0.0373528087867925,0.4121851324029006 l -3.0279957440939724 -0.3006987865263549" fill="#ff1e03" stroke="none" /><path d="M 120.8583938346157 102.4346265915055 l 3.0233009673435784 0.35288474211296417 a24.043825944491036,24.043825944491036 0 0,0 -0.05152075616350348,0.41067111834728776 l -3.0167787019332266 -0.4048736147476469" fill="#ff1e03" stroke="none" /><path d="M 120.49622156327973 104.57218783832717 l 2.9697211665522665 0.6624695658666717 a24.042714204911157,24.042714204911157 0 0,0 -0.09358275488585222,0.4031520587600046 l -2.9578778457358617 -0.7134902819752412" fill="#ff1e03" stroke="none" /><path d="M 120.23288151984713 105.62410040840565 l 6.659825034663483 1.8512204828867167 a27.912328606814768,27.912328606814768 0 0,0 -0.13265980555308937,0.4618061864617808 l -6.626972592224294 -1.9655841448530793" fill="#ff5407" stroke="none" /><path d="M 119.67450827220406 107.3425965602758 l 4.1306945246654285 1.54158990856246 a25.408983635973552,25.408983635973552 0 0,0 -0.15645366351649326,0.40845114601080795 l -4.103546581555428 -1.6124646214064118" fill="#ff3104" stroke="none" /><path d="M 119.26925614724726 108.34839909993367 l 4.687853512246131 2.0310110438719415 a26.108911470421873,26.108911470421873 0 0,0 -0.18221398780725032,0.4108444394174312 l -4.652198439707608 -2.1114038197820606" fill="#ff3b05" stroke="none" /><line stroke="#e1ed5e" stroke-width="0.3" x1="174.80103733775053" x2="179.2010983576182" y1="140.37084112569926" y2="142.7455964860345" /><path d="M 175.68104954172406 140.8457921977663 a86.0,86.0 0 0,1 -30.038265399797805,32.042727171017184" fill="none" id="id137" stroke="none" /><text fill="#e1ed5e" style="font-size:6.75px; font-family:Arial;" text-anchor="middle"><textPath startOffset="22.206326154141568" xlink:href="#id137">May</textPath></text><path d="M 118.12598468904814 110.60418214915192 l 1.9325622786660976 1.1306002277458385 a23.23898500126777,23.23898500126777 0 0,0 -0.204966878647469,0.3435362782859904 l -1.9128145243204016 -1.163698599917933" fill="#ff1202" stroke="none" /><path d="M 117.94076556474637 110.91462005526583 l 5.728545826304592 3.4850743095464654 a27.705369507128786,27.705369507128786 0 0,0 -0.2513739315320484,0.4052948168319356 l -5.667707255104581 -3.5831654577436742" fill="#ff5107" stroke="none" /><path d="M 117.75023020441432 111.22182372390056 l 2.5721480598639053 1.626130578993126 a24.043065280567962,24.043065280567962 0 0,0 -0.2241673929258715,0.3479127719258598 l -2.543775803560983 -1.6701649508404386" fill="#ff1e03" stroke="none" /><path d="M 117.35343817320211 111.8261652097733 l 1.6944524120895263 1.154749506435817 a23.05051588617347,23.05051588617347 0 0,0 -0.22626725877240797,0.3259548620712442 l -1.674324246154982 -1.1837456306940808" fill="#ff0f01" stroke="none" /><path d="M 112.63410532772338 116.77436683061366 l 1.0567818676061818 1.4030947381979295 a22.756548536209554,22.756548536209554 0 0,0 -0.3149235726677103,0.2329729303002679 l -1.0324733245199071 -1.4210776172379664" fill="#ff0b01" stroke="none" /><path d="M 112.04921762599082 117.19931262002967 l 1.4070407685360304 2.008440282045947 a23.45226346277623,23.45226346277623 0 0,0 -0.3326235815427714,0.22878153240886584 l -1.3722603023703759 -2.032362603819907" fill="#ff1502" stroke="none" /><path d="M 111.45004920935366 117.60387380957326 l 3.557201750902695 5.469018481329208 a27.524097442998965,27.524097442998965 0 0,0 -0.3993853987197778,0.2549066577290855 l -3.4625345501359868 -5.529439567882102" fill="#ff4f07" stroke="none" /><line stroke="#e1ed5e" stroke-width="0.3" x1="143.8653032363475" x2="146.44561519142675" y1="172.8068346515853" y2="177.08958963109032" /><path d="M 144.38136562736335 173.6633856474863 a86.0,86.0 0 0,1 -40.68145358897372,12.25698825130547" fill="none" id="id138" stroke="none" /><text fill="#e1ed5e" style="font-size:6.75px; font-family:Arial;" text-anchor="middle"><textPath startOffset="21.466115282336833" xlink:href="#id138">June</textPath></text><path d="M 110.5260780823613 118.17145234162733 l 1.5250182700009753 2.6326801489218243 a24.04248015447329,24.04248015447329 0 0,0 -0.3598944420395847,0.20435745685804543 l -1.4794750610401914 -2.658540771574498" fill="#ff1e03" stroke="none" /><path d="M 109.57404056367764 118.69057910512821 l 0.8564156241381424 1.6719068467862264 a22.87848881433949,22.87848881433949 0 0,0 -0.3520521075465467,0.17652623520570518 l -0.8275096089088353 -1.6864009229012336" fill="#ff0d01" stroke="none" /><path d="M 108.92500713936063 119.00905698771935 l 0.8368538612854485 1.7823854357955928 a22.96906633379493,22.96906633379493 0 0,0 -0.35933682847584475,0.16495391359479025 l -0.8060490370421842 -1.7965264197244575" fill="#ff0e01" stroke="none" /><path d="M 108.2653958097858 119.30500536409082 l 1.1978821156214703 2.7978237461105 a24.043474868834235,24.043474868834235 0 0,0 -0.3818659562672264,0.1596200006899467 l -1.1495446998567826 -2.8180287898204197" fill="#ff1e03" stroke="none" /><path d="M 106.91757812671514 119.82793768551818 l 0.4407318574562288 1.2632750430264343 a22.3379493280802,22.3379493280802 0 0,0 -0.3641407694817327,0.12353631970401495 l -0.4189213550372691 -1.2706743496285724" fill="#ff0500" stroke="none" /><path d="M 104.48393922423573 120.51570834832081 l 13.451817672707184 61.54712504496244 a84.0,84.0 0 0,0 -1.415234154282488,0.29657607709383527 l -12.390392056995317 -61.76955710278282" fill="#4dd2ff" stroke="none" /><path d="M 103.41894727170886 120.7198165907248 l 0.36531313991337744 2.2139040633416127 a23.243841547853563,23.243841547853563 0 0,0 -0.39532698061236127,0.06174194406166385 l -0.32715029569249904 -2.2198643147503825" fill="#ff1202" stroke="none" /><line stroke="#e1ed5e" stroke-width="0.3" x1="102.19456741930631" x2="102.32365962044197" y1="184.97166512339345" y2="189.96999836594603" /><path d="M 102.22038585953345 185.97133177190398 a86.0,86.0 0 0,1 -42.740103519485714,-10.115201625700543" fill="none" id="id139" stroke="none" /><text fill="#e1ed5e" style="font-size:6.75px; font-family:Arial;" text-anchor="middle"><textPath startOffset="22.20632615414155" xlink:href="#id139">July</textPath></text><path d="M 100.54218724476979 120.99299961872073 l 0.1277639836566193 4.946905863358064 a25.94855547169537,25.94855547169537 0 0,0 -0.44661209221556586,0.007688832190267161 l -0.04259220154838549 -4.948372172827491" fill="#ff3905" stroke="none" /><path d="M 99.45781275523022 120.99299961872073 l -0.6271359361713764 24.282136099535144 a45.29023328498072,45.29023328498072 0 0,0 -0.7791637882748196,-0.026835976290202467 l 1.045020076120839 -24.26774332481885" fill="#cdff1d" stroke="none" /><path d="M 95.86986931433489 120.58985236759428 l -0.35275560203219286 1.7585849747790858 a22.793615797288776,22.793615797288776 0 0,0 -0.3840274235227993,-0.0804766804279045 l 0.3829744869843789 -1.7522523136246402" fill="#ff0c01" stroke="none" /><path d="M 93.42475214034765 119.94407469862007 l -1.734487918423108 5.261057430421109 a26.53960049329777,26.53960049329777 0 0,0 -0.4326337392671409,-0.14677285381946206 l 1.8247913906274746 -5.230421589703523" fill="#ff4106" stroke="none" /><line stroke="#e1ed5e" stroke-width="0.3" x1="58.666819895761336" x2="56.23545636021788" y1="174.27360380694188" y2="178.64263932499728" /><path d="M 58.180547188652646 175.14741091055294 a86.0,86.0 0 0,1 -31.652253787137756,-30.449443065178592" fill="none" id="id140" stroke="none" /><text fill="#e1ed5e" style="font-size:6.75px; font-family:Arial;" text-anchor="middle"><textPath startOffset="22.20632615414155" xlink:href="#id140">August</textPath></text><line stroke="#e1ed5e" stroke-width="0.3" x1="26.63291911575756" x2="22.317208475507996" y1="142.92168965132927" y2="145.44649492493687" /><path d="M 25.769776987707644 143.4266507060508 a86.0,86.0 0 0,1 -11.730757126820373,-40.83630448921669" fill="none" id="id141" stroke="none" /><text fill="#e1ed5e" style="font-size:6.75px; font-family:Arial;" text-anchor="middle"><textPath startOffset="21.46611528233685" xlink:href="#id141">September</textPath></text><line stroke="#e1ed5e" stroke-width="0.3" x1="15.007084014347285" x2="10.007500721073583" y1="101.09737516637583" y2="101.16192664675087" /><path d="M 14.007167355692545 101.11028546245083 a86.0,86.0 0 0,1 10.666146001902534,-42.60595125391555" fill="none" id="id142" stroke="none" /><text fill="#e1ed5e" style="font-size:6.75px; font-family:Arial;" text-anchor="middle"><textPath startOffset="22.20632615414155" xlink:href="#id142">October</textPath></text><line stroke="#e1ed5e" stroke-width="0.3" x1="26.266209847984243" x2="21.928928074336255" y1="57.711370442889674" y2="55.22380399835377" /><path d="M 25.398753493254645 57.213857153982495 a86.0,86.0 0 0,1 29.58750427330803,-30.492523968695096" fill="none" id="id143" stroke="none" /><text fill="#e1ed5e" style="font-size:6.75px; font-family:Arial;" text-anchor="middle"><textPath startOffset="21.46611528233685" xlink:href="#id143">November</textPath></text><line stroke="#e1ed5e" stroke-width="0.3" x1="56.762969772571076" x2="54.21961505331055" y1="26.818313649435495" y2="22.513508569990535" /><path d="M 56.25429882871897 25.957352633546506 a86.0,86.0 0 0,1 42.265352541879196,-11.944610805530505" fill="none" id="id144" stroke="none" /><text fill="#e1ed5e" style="font-size:6.75px; font-family:Arial;" text-anchor="middle"><textPath startOffset="22.20632615414155" xlink:href="#id144">December</textPath></text></svg>