<?xml version="1.0" encoding="utf-8" ?>
<svg baseProfile="full" height="200mm" version="1.1" viewBox="0,0,200,200" width="200mm" xmlns="http://www.w3.org/2000/svg" xmlns:ev="http://www.w3.org/2001/xml-events" xmlns:xlink="http://www.w3.org/1999/xlink"><defs /><rect fill="#1a1a1a" height="200" width="200" x="0" y="0" /><text alignment-baseline="middle" fill="#e1ed5e" style="dominant-baseline: central; font-size:9.0px; font-family:Arial;" text-anchor="middle" x="100.0" y="100.0">2025</text><line stroke="#e1ed5e" stroke-width="0.3" x1="100.0" x2="100.0" y1="15.0" y2="10.0" /><path d="M 100.0 14.0 a86.0,86.0 0 0,1 42.46469731375804,11.215312516191453" fill="none" id="id121" stroke="none" /><text fill="#e1ed5e" style="font-size:6.75px; font-family:Arial;" text-anchor="middle"><textPath startOffset="22.20632615414155" xlink:href="#id121">January</textPath></text><path d="M 100.0 79.0 l 0.0 -6.3072083072929175 a27.307208307292917,27.307208307292917 0 0,0 0.47004870221500056,0.0040458575796359815 l -0.1085682229424722 6.30627382632184" fill="#ff4406" stroke="none" /><path d="M 100.72285384407766 79.0124445844662 l 0.2171918470906022 -6.306013261135026 a27.309752415749244,27.309752415749244 0 0,0 0.4696746404821638,0.020225178006012614 l -0.3257073199620975 6.301340356604818" fill="#ff4406" stroke="none" /><path d="M 102.52436894288641 79.15227682838746 l 1.4573015282671018 -12.035252978568892 a33.12316138647181,33.12316138647181 0 0,0 0.5654364524908464,0.07340987966815793 l -1.6642527092657944 12.008384775736598" fill="#ff940d" stroke="none" /><line stroke="#e1ed5e" stroke-width="0.3" x1="143.23703022742887" x2="145.7803849466894" y1="26.81831364943548" y2="22.513508569990506" /><path d="M 143.74570117128098 25.957352633546492 a86.0,86.0 0 0,1 28.547481713284135,27.462654790039103" fill="none" id="id122" stroke="none" /><text fill="#e1ed5e" style="font-size:6.75px; font-family:Arial;" text-anchor="middle"><textPath startOffset="19.985693538727396" xlink:href="#id122">February</textPath></text><path d="M 110.99172775467656 82.1063720568725 l 0.8528747942910424 -1.388409956262093 a22.629440892264796,22.629440892264796 0 0,0 0.330153680091136,0.20674220418471254 l -0.8766476267544416 1.3735234107544363" fill="#ff0000" stroke="none" /><line stroke="#e1ed5e" stroke-width="0.3" x1="172.23445277983987" x2="176.4835382374775" y1="55.19839476539836" y2="52.563006222186495" /><path d="M 173.08426987136738 54.67131705675599 a86.0,86.0 0 0,1 12.851231095245387,41.99856678651699" fill="none" id="id123" stroke="none" /><text fill="#e1ed5e" style="font-size:6.75px; font-family:Arial;" text-anchor="middle"><textPath startOffset="22.20632615414155" xlink:href="#id123">March</textPath></text><line stroke="#e1ed5e" stroke-width="0.3" x1="184.98032266829074" x2="189.97916517819016" y1="98.17113171792111" y2="98.06355123074" /><path d="M 185.9800911702706 98.14961562048488 a86.0,86.0 0 0,1 -9.607161424134198,41.387399972396054" fill="none" id="id124" stroke="none" /><text fill="#e1ed5e" style="font-size:6.75px; font-family:Arial;" text-anchor="middle"><textPath startOffset="21.466115282336823" xlink:href="#id124">April</textPath></text><path d="M 120.02730092923936 106.31721596034902 l 6.65675479259106 2.099741636102894 a27.98006441997981,27.98006441997981 0 0,0 -0.14883761965601638,0.45807509172767674 l -6.619624921918796 -2.2140156278083665" fill="#ff4d07" stroke="none" /><path d="M 119.67450827220406 107.3425965602758 l 6.175152908365179 2.3045890589396554 a27.591179270227393,27.591179270227393 0 0,0 -0.16989034820959312,0.4435300897576507 l -6.13456828056208 -2.41054271553045" fill="#ff4806" stroke="none" /><path d="M 119.41010516605496 108.01547362559984 l 5.827118673542622 2.4063298803091566 a27.304421902793134,27.304421902793134 0 0,0 -0.18313338257712583,0.43287321968564757 l -5.784834309773187 -2.506277625660968" fill="#ff4406" stroke="none" /><path d="M 119.12269723197855 108.67885076344098 l 5.742711179892554 2.6063338609202473 a27.30648141916254,27.30648141916254 0 0,0 -0.19793998079943065,0.42634510907461315 l -5.696996582253292 -2.704799037273691" fill="#ff4406" stroke="none" /><path d="M 118.97047184881838 109.00673069616215 l 5.698309859473729 2.705422550191458 a27.307935195423298,27.307935195423298 0 0,0 -0.20526041138923776,0.42289724358743863 l -5.650896191469776 -2.8031087497441725" fill="#ff4406" stroke="none" /><path d="M 118.64920377521936 109.65438752849418 l 5.603099077621793 2.9006326762212034 a27.309388971684054,27.309388971684054 0 0,0 -0.21970727469889464,0.4156033648820256 l -5.552339294698005 -2.9966510561893633" fill="#ff4406" stroke="none" /><line stroke="#e1ed5e" stroke-width="0.3" x1="174.80103733775053" x2="179.2010983576182" y1="140.37084112569926" y2="142.7455964860345" /><path d="M 175.68104954172406 140.8457921977663 a86.0,86.0 0 0,1 -30.038265399797805,32.042727171017184" fill="none" id="id125" stroke="none" /><text fill="#e1ed5e" style="font-size:6.75px; font-family:Arial;" text-anchor="middle"><textPath startOffset="22.206326154141568" xlink:href="#id125">May</textPath></text><path d="M 118.30583269289576 110.29060199501025 l 5.4980333348831625 3.090712875713032 a27.307208307292917,27.307208307292917 0 0,0 -0.23386413831989475,0.4077618376276196 l -5.444017200410888 -3.184894559198967" fill="#ff4406" stroke="none" /><path d="M 117.94076556474637 110.91462005526583 l 8.588901093546333 5.225228086839485 a31.05346858324119,31.05346858324119 0 0,0 -0.28175161076511684,0.4542733082192817 l -8.497684843113253 -5.372297726424041" fill="#ff780b" stroke="none" /><path d="M 117.75023020441432 111.22182372390056 l 13.463585023468465 8.511775683198564 a36.92854189702418,36.92854189702418 0 0,0 -0.34430613838162716,0.5343707728048239 l -13.315074021709787 -8.742268055924841" fill="#ffc612" stroke="none" /><path d="M 117.35343817320211 111.8261652097733 l 10.01922664763563 6.827985810447502 a33.12461516273256,33.12461516273256 0 0,0 -0.3251561009642399,0.46841161472694165 l -9.900209639509253 -6.999438687361463" fill="#ff940d" stroke="none" /><path d="M 116.93607887273984 112.41649034213515 l 12.832078020724193 9.40768958452961 a36.911217729916835,36.911217729916835 0 0,0 -0.3800778555551846,0.5091763989516346 l -12.668238898473918 -9.62717886299056" fill="#ffc512" stroke="none" /><path d="M 116.498646956653 112.99209946851258 l 4.9539247736159355 3.9010401027093464 a27.305512234988704,27.305512234988704 0 0,0 -0.29396605802371323,0.3667678567323265 l -4.886040803537369 -3.985735793019923" fill="#ff4406" stroke="none" /><path d="M 116.0416608686014 113.55231037782055 l 4.812359445189029 4.0655758393753 a27.299818277967407,27.299818277967407 0 0,0 -0.3063526983123611,0.356357398986646 l -4.741664237305889 -4.147810337523474" fill="#ff4406" stroke="none" /><path d="M 115.56566222782051 114.09645910891815 l 8.985505072821297 8.137386188787767 a33.12255564636315,33.12255564636315 0 0,0 -0.38635661818753503,0.4193138026837432 l -8.84410204663804 -8.290851246272846" fill="#ff940d" stroke="none" /><path d="M 113.48314897796784 116.09983520530334 l 4.049106119112123 4.834919598753545 a27.30648141916254,27.30648141916254 0 0,0 -0.3629549832584581,0.29868724137225705 l -3.9652810073089735 -4.90390195898298" fill="#ff4406" stroke="none" /><path d="M 112.92097659922987 116.55440617244103 l 5.968309721727636 7.646621951338928 a30.700079803855584,30.700079803855584 0 0,0 -0.4193795680325364,0.32156236950515693 l -5.835801425201606 -7.748223662671457" fill="#ff730a" stroke="none" /><path d="M 112.34349029814194 116.9893568818739 l 2.5840329365259818 3.556616215736396 a25.396219412528243,25.396219412528243 0 0,0 -0.3558768261457484,0.25390866633921594 l -2.5224287825313487 -3.6005691439198313" fill="#ff2803" stroke="none" /><path d="M 111.1453310114006 117.79835938074945 l 3.3473606718015105 5.34551447173423 a27.30708715927119,27.30708715927119 0 0,0 -0.40053099211032817,0.2460388489455624 l -3.2548504797588738 -5.4023417875081705" fill="#ff4406" stroke="none" /><line stroke="#e1ed5e" stroke-width="0.3" x1="143.8653032363475" x2="146.44561519142675" y1="172.8068346515853" y2="177.08958963109032" /><path d="M 144.38136562736335 173.6633856474863 a86.0,86.0 0 0,1 -40.68145358897372,12.25698825130547" fill="none" id="id126" stroke="none" /><text fill="#e1ed5e" style="font-size:6.75px; font-family:Arial;" text-anchor="middle"><textPath startOffset="21.466115282336833" xlink:href="#id126">June</textPath></text><path d="M 110.21172684928248 118.3499491758327 l 3.0671410798387204 5.511495142871325 a27.307450603336378,27.307450603336378 0 0,0 -0.41270294702488913,0.22503855254836455 l -2.9718153209451827 -5.56347434717946" fill="#ff4406" stroke="none" /><path d="M 108.92500713936063 119.00905698771935 l 4.617336417923652 9.834301500185735 a31.864312292678235,31.864312292678235 0 0,0 -0.4984974467145921,0.22883572803089391 l -4.44737097544164 -9.912324298550702" fill="#ff830c" stroke="none" /><path d="M 103.7750983002368 120.6578951692458 l 2.3466189616875135 12.84104536023981 a34.05369934137782,34.05369934137782 0 0,0 -0.5775361926482517,0.10041206999220907 l -2.125233797567212 -12.879536008753027" fill="#ffa00e" stroke="none" /><path d="M 103.41894727170886 120.7198165907248 l 2.0126900940969694 12.197488375658406 a33.36242872938801,33.36242872938801 0 0,0 -0.5674220497644888,0.08861965454937193 l -1.8024321807239636 -12.230326337554883" fill="#ff970d" stroke="none" /><path d="M 103.06178313531738 120.77559828337769 l 1.8388538729023656 12.477464169353308 a33.6122359501947,33.6122359501947 0 0,0 -0.573122889526042,0.0794296101806465 l -1.623802392189493 -12.507268345026556" fill="#ff9a0e" stroke="none" /><path d="M 102.70371172650421 120.8252237178851 l 1.624332710147483 12.511353096373561 a33.616354982933515,33.616354982933515 0 0,0 -0.5744756162069011,0.06956099676020432 l -1.4087296708892014 -12.537459621859115" fill="#ff9a0e" stroke="none" /><path d="M 102.34483914955558 120.86867818915974 l 1.4082291619798208 12.533005175863256 a33.611872506129515,33.611872506129515 0 0,0 -0.5755111295358345,0.0596540816994275 l -1.1922854358383836 -12.555388626018443" fill="#ff9a0e" stroke="none" /><path d="M 101.98527174616119 120.90594882070398 l 1.1927893652081125 12.560695265592178 a33.61720301908562,33.61720301908562 0 0,0 -0.5765441280457089,0.04974665333895521 l -0.9764009194208618 -12.579366171209797" fill="#ff9a0e" stroke="none" /><path d="M 101.62511606390274 120.93702456842531 l 0.9757165284435149 12.570548886693693 a33.60835921349935,33.60835921349935 0 0,0 -0.5771631372145907,0.03980454913005187 l -0.7591906304499938 -12.58548178034003" fill="#ff9a0e" stroke="none" /><path d="M 100.90346689309514 120.98055641714683 l 0.9564804766265211 22.211652419286764 a43.23223691168694,43.23223691168694 0 0,0 -0.7437584451320178,0.025616544684904253 l -0.5740016798198511 -22.22482576239776" fill="#eaff1a" stroke="none" /><line stroke="#e1ed5e" stroke-width="0.3" x1="102.19456741930631" x2="102.32365962044197" y1="184.97166512339345" y2="189.96999836594603" /><path d="M 102.22038585953345 185.97133177190398 a86.0,86.0 0 0,1 -42.740103519485714,-10.115201625700543" fill="none" id="id127" stroke="none" /><text fill="#e1ed5e" style="font-size:6.75px; font-family:Arial;" text-anchor="middle"><textPath startOffset="22.20632615414155" xlink:href="#id127">July</textPath></text><path d="M 100.54218724476979 120.99299961872073 l 0.574114282526327 22.22918563732459 a43.23659824046921,43.23659824046921 0 0,0 -0.74416426076292,0.012811462615388817 l -0.1913903318707391 -22.23577457721914" fill="#eaff1a" stroke="none" /><path d="M 100.18074693466247 120.99922214144158 l 0.10853887749368818 12.610072772349042 a33.61053987789049,33.61053987789049 0 0,0 -0.5785716243122786,0.0 l 0.1085388774936795 -12.610072772349042" fill="#ff9a0e" stroke="none" /><path d="M 99.81925306533755 120.99922214144158 l -0.19135487936875634 22.23165569705293 a43.23247920773039,43.23247920773039 0 0,0 -0.7440933662643265,-0.012810242102302855 l 0.5740079355257508 -22.22506797767147" fill="#eaff1a" stroke="none" /><path d="M 99.45781275523022 120.99299961872073 l -0.32575962983481405 12.61311816330288 a33.61732416710735,33.61732416710735 0 0,0 -0.578345478701527,-0.019919387666031695 l 0.5428254602109841 -12.605641977210755" fill="#ff9a0e" stroke="none" /><path d="M 99.09653310690486 120.98055641714683 l -0.5425492211147828 12.599227077022638 a33.610903321955675,33.610903321955675 0 0,0 -0.5778065300298428,-0.029865997661173486 l 0.7593438195581146 -12.588021272599264" fill="#ff9a0e" stroke="none" /><path d="M 98.73552117531835 120.96189622390904 l -3.793436474044945 62.885688671727095 a84.0,84.0 0 0,0 -1.4425489568842798,-0.09948662193485935 l 4.875348191708155 -62.81107370527595" fill="#4dd2ff" stroke="none" /><path d="M 98.37488393609728 120.93702456842531 l -0.4879613916292988 6.286603075260235 a27.305512234988704,27.305512234988704 0 0,0 -0.4682969232575732,-0.04040662902935136 l 0.5961026326284137 -6.2772721939522205" fill="#ff4406" stroke="none" /><line stroke="#e1ed5e" stroke-width="0.3" x1="58.666819895761336" x2="56.23545636021788" y1="174.27360380694188" y2="178.64263932499728" /><path d="M 58.180547188652646 175.14741091055294 a86.0,86.0 0 0,1 -31.652253787137756,-30.449443065178592" fill="none" id="id128" stroke="none" /><text fill="#e1ed5e" style="font-size:6.75px; font-family:Arial;" text-anchor="middle"><textPath startOffset="22.20632615414155" xlink:href="#id128">August</textPath></text><line stroke="#e1ed5e" stroke-width="0.3" x1="26.63291911575756" x2="22.317208475507996" y1="142.92168965132927" y2="145.44649492493687" /><path d="M 25.769776987707644 143.4266507060508 a86.0,86.0 0 0,1 -11.730757126820373,-40.83630448921669" fill="none" id="id129" stroke="none" /><text fill="#e1ed5e" style="font-size:6.75px; font-family:Arial;" text-anchor="middle"><textPath startOffset="21.46611528233685" xlink:href="#id129">September</textPath></text><line stroke="#e1ed5e" stroke-width="0.3" x1="15.007084014347285" x2="10.007500721073583" y1="101.09737516637583" y2="101.16192664675087" /><path d="M 14.007167355692545 101.11028546245083 a86.0,86.0 0 0,1 10.666146001902534,-42.60595125391555" fill="none" id="id130" stroke="none" /><text fill="#e1ed5e" style="font-size:6.75px; font-family:Arial;" text-anchor="middle"><textPath startOffset="22.20632615414155" xlink:href="#id130">October</textPath></text><line stroke="#e1ed5e" stroke-width="0.3" x1="26.266209847984243" x2="21.928928074336255" y1="57.711370442889674" y2="55.22380399835377" /><path d="M 25.398753493254645 57.213857153982495 a86.0,86.0 0 0,1 29.58750427330803,-30.492523968695096" fill="none" id="id131" stroke="none" /><text fill="#e1ed5e" style="font-size:6.75px; font-family:Arial;" text-anchor="middle"><textPath startOffset="21.46611528233685" xlink:href="#id131">November</textPath></text><line stroke="#e1ed5e" stroke-width="0.3" x1="56.762969772571076" x2="54.21961505331055" y1="26.818313649435495" y2="22.513508569990535" /><path d="M 56.25429882871897 25.957352633546506 a86.0,86.0 0 0,1 42.265352541879196,-11.944610805530505" fill="none" id="id132" stroke="none" /><text fill="#e1ed5e" style="font-size:6.75px; font-family:Arial;" text-anchor="middle"><textPath startOffset="22.20632615414155" xlink:href="#id132">December</textPath></text></svg>