<?xml version="1.0" encoding="utf-8" ?>
<svg baseProfile="full" height="200mm" version="1.1" viewBox="0,0,200,200" width="200mm" xmlns="http://www.w3.org/2000/svg" xmlns:ev="http://www.w3.org/2001/xml-events" xmlns:xlink="http://www.w3.org/1999/xlink"><defs /><rect fill="#1a1a1a" height="200" width="200" x="0" y="0" /><text alignment-baseline="middle" fill="#e1ed5e" style="dominant-baseline: central; font-size:9.0px; font-family:Arial;" text-anchor="middle" x="100.0" y="100.0">2022</text><line stroke="#e1ed5e" stroke-width="0.3" x1="100.0" x2="100.0" y1="15.0" y2="10.0" /><path d="M 100.0 14.0 a86.0,86.0 0 0,1 42.46469731375804,11.215312516191453" fill="none" id="id85" stroke="none" /><text fill="#e1ed5e" style="font-size:6.75px; font-family:Arial;" text-anchor="middle"><textPath startOffset="22.20632615414155" xlink:href="#id85">January</textPath></text><path d="M 100.0 79.0 l 0.0 -34.49062981118051 a55.49062981118051,55.49062981118051 0 0,0 0.9551799742514278,0.008221535599462215 l -0.5936994949788993 34.48551965218961" fill="red" stroke="none" /><path d="M 100.36148047927253 79.00311137660856 l 0.4903293450062505 -28.481180136188733 a49.4854005556637,49.4854005556637 0 0,0 0.8515574146442834,0.021993215681171477 l -0.9805133948454017 28.468520128365203" fill="red" stroke="none" /><path d="M 101.08401301168833 79.027996857942 l 1.8095721994475826 -35.009131295839865 a56.055867206993575,56.055867206993575 0 0,0 0.9631944892138261,0.058102521959432156 l -2.4119287375010208 34.97279550450013" fill="red" stroke="none" /><path d="M 101.44485096284872 79.0497635885617 l 1.9171397055314765 -27.79838965913127 a48.86441982693022,48.86441982693022 0 0,0 0.8386293474639515,0.06509377776053184 l -2.395359242357769 27.761270619182277" fill="red" stroke="none" /><path d="M 102.16513564639614 79.11191278185805 l 5.901775320553513 -56.9372167710571 a78.24227114264983,78.24227114264983 0 0,0 1.3384394755933329,0.15038927014132306 l -6.8809814996565715 56.82719154744518" fill="red" stroke="none" /><path d="M 102.52436894288641 79.15227682838746 l 2.1404356069640365 -17.676975913681527 a38.806092834769686,38.806092834769686 0 0,0 0.6624482250201018,0.08600479199896957 l -2.4443985604919845 17.63751279851842" fill="red" stroke="none" /><path d="M 103.2404852339499 79.25152402106235 l 4.390473569996045 -28.11172674043786 a49.45251198924065,49.45251198924065 0 0,0 0.8399174623632979,0.13859357798046798 l -4.873720238498218 28.031986899517765" fill="red" stroke="none" /><path d="M 103.59715602781102 79.31037775812273 l 7.915474713589303 -45.52712765950048 a67.21010812436955,67.21010812436955 0 0,0 1.1381067790584465,0.2079817392774749 l -8.697976613750651 45.38413043887226" fill="red" stroke="none" /><path d="M 104.307194497241 79.44645832069477 l 6.979516411861145 -33.30561960098922 a55.02907501459944,55.02907501459944 0 0,0 0.9254246773574809,0.20226199063794584 l -7.551783813372153 33.1805441122554" fill="red" stroke="none" /><path d="M 104.66035177308747 79.52364482259891 l 7.635533078543547 -33.548516270365624 a55.406457378470684,55.406457378470684 0 0,0 0.9281275854793573,0.2196578128833531 l -8.211884350985429 33.4121125453414" fill="red" stroke="none" /><path d="M 105.36241919743992 79.69619591428918 l 6.9547091498978215 -26.332714182442047 a48.23563503158788,48.23563503158788 0 0,0 0.8009460833404481,0.2189288204905263 l -7.406953122461981 26.209098821125227" fill="red" stroke="none" /><path d="M 106.0581310904928 79.89281104454417 l 15.333207085910756 -50.891551794476435 a74.15126793962023,74.15126793962023 0 0,0 1.2189572535620792,0.3787359522616068 l -16.206949712183555 50.620075707332305" fill="red" stroke="none" /><path d="M 106.40334571778207 80.00007090966166 l 16.789957971363314 -52.44101812658926 a76.06326425879064,76.06326425879064 0 0,0 1.2435154864931999,0.40996750486371714 l -17.69015628009893 52.144236897466314" fill="red" stroke="none" /><path d="M 109.08828744355905 81.06846463323043 l 9.194515015387806 -19.15281479322821 a42.245456475959585,42.245456475959585 0 0,0 0.652850688795672,0.32035099769262426 l -9.52283697119391 18.99170863540075" fill="red" stroke="none" /><path d="M 110.05341064243156 81.56283822128135 l 22.658468670926826 -41.55384350667144 a68.3299916827408,68.3299916827408 0 0,0 1.0277999222136198,0.5719695439365144 l -23.370392682212483 41.15765856517475" fill="red" stroke="none" /><line stroke="#e1ed5e" stroke-width="0.3" x1="143.23703022742887" x2="145.7803849466894" y1="26.81831364943548" y2="22.513508569990506" /><path d="M 143.74570117128098 25.957352633546492 a86.0,86.0 0 0,1 28.547481713284135,27.462654790039103" fill="none" id="id86" stroke="none" /><text fill="#e1ed5e" style="font-size:6.75px; font-family:Arial;" text-anchor="middle"><textPath startOffset="19.985693538727396" xlink:href="#id86">February</textPath></text><path d="M 112.77801427241765 83.33499621200491 l 21.024400042713758 -27.419886915328778 a55.552504910722185,55.552504910722185 0 0,0 0.7538407323286525,0.5883846488060753 l -21.49327333020184 27.05392387729948" fill="red" stroke="none" /><path d="M 113.34407831869373 83.78471172551755 l 25.683495765546102 -31.209745460752647 a61.41893326726715,61.41893326726715 0 0,0 0.8105616401444773,0.6788220631161405 l -26.216914942649698 30.763022240242687" fill="red" stroke="none" /><path d="M 114.42810811169701 84.74124197986012 l 20.28447640273019 -21.452287063441794 a50.52389884797111,50.52389884797111 0 0,0 0.6267772499013197,0.6029592178101052 l -20.650736896243924 21.099944758869388" fill="red" stroke="none" /><path d="M 114.68862486808459 84.99185889309783 l 35.265410468517764 -36.032525934700175 a71.41817232653206,71.41817232653206 0 0,0 0.8711799508351598,0.8674388272661968 l -35.880426219520245 35.42015125678386" fill="red" stroke="none" /><path d="M 114.94478906791727 85.2469230424477 l 24.433615395896943 -24.120180395235124 a55.33343361234493,55.33343361234493 0 0,0 0.663304888201847,0.6835939934377644 l -24.8451845478019 23.696022206247246" fill="red" stroke="none" /><path d="M 115.4437574822437 85.77008943001954 l 23.65839126664158 -21.798891386437813 a53.17003486170345,53.17003486170345 0 0,0 0.6143831946599726,0.6784172686654452 l -24.030118101917587 21.388421330502815" fill="red" stroke="none" /><path d="M 115.9244219780498 86.31012108654704 l 30.592001293477693 -26.299277550242024 a61.34256490116618,61.34256490116618 0 0,0 0.6814556825199882,0.8066285859167966 l -31.0401675894848 25.768790014696123" fill="red" stroke="none" /><path d="M 116.60985879189232 87.15038557335679 l 49.829576375676965 -38.54884327992963 a84.0,84.0 0 0,0 0.874896239103546,1.1512608964758657 l -50.48574855500462 37.68539760757273" fill="red" stroke="none" /><path d="M 116.82858285166822 87.43820079747576 l 22.73373016210953 -16.969732742081714 a49.36889698986002,49.36889698986002 0 0,0 0.5024751936045988,0.6853755993836924 l -23.022467968227755 16.575894699026527" fill="red" stroke="none" /><path d="M 117.45458315368197 88.32363383020206 l 42.32309386131555 -28.31233132366169 a71.91986232281585,71.91986232281585 0 0,0 0.6794829842591176,1.0348992016746492 l -42.80417348093259 27.57961405800937" fill="red" stroke="none" /><path d="M 117.65298651832404 88.62581576622439 l 24.08171131544645 -15.516344550660856 a49.64761365446212,49.64761365446212 0 0,0 0.45669280334688384,0.7223783398808189 l -24.34523171503929 15.09951856306583" fill="red" stroke="none" /><line stroke="#e1ed5e" stroke-width="0.3" x1="172.23445277983987" x2="176.4835382374775" y1="55.19839476539836" y2="52.563006222186495" /><path d="M 173.08426987136738 54.67131705675599 a86.0,86.0 0 0,1 12.851231095245387,41.99856678651699" fill="none" id="id87" stroke="none" /><text fill="#e1ed5e" style="font-size:6.75px; font-family:Arial;" text-anchor="middle"><textPath startOffset="22.20632615414155" xlink:href="#id87">March</textPath></text><path d="M 118.03404312379186 89.2402003453031 l 24.357877938060337 -14.5328412951019 a49.36388008989718,49.36388008989718 0 0,0 0.4290904162389314,0.7334546130543602 l -24.604428028769597 14.111407269693645" fill="red" stroke="none" /><path d="M 118.21658344932153 89.55222093294921 l 24.491277543170632 -14.046511935277271 a49.2334406908634,49.2334406908634 0 0,0 0.41530132434612615,0.7387747154446842 l -24.72943650880919 13.622853709897793" fill="red" stroke="none" /><path d="M 118.56541770881063 90.18545643968196 l 24.998213878244037 -13.215218902494112 a49.27636305721212,49.27636305721212 0 0,0 0.3899650813469516,0.7532884137698914 l -25.221988392751104 12.782957766463875" fill="red" stroke="none" /><path d="M 118.89224826269711 90.83032412892265 l 25.641891685436704 -12.44573076784034 a49.502680988869024,49.502680988869024 0 0,0 0.36547547953283865,0.7697845677639055 l -25.8523253588113 12.002503784435895" fill="red" stroke="none" /><path d="M 119.04729006885535 91.15688171328212 l 25.668287057344372 -11.917060004072628 a49.299775257038704,49.299775257038704 0 0,0 0.350727247506157,0.7727809992214181 l -25.869616621813876 11.473456996009148" fill="red" stroke="none" /><path d="M 119.34039704204932 91.81776055985345 l 26.088436085025933 -11.037096611953679 a49.3270894901697,49.3270894901697 0 0,0 0.3240985046984379,0.7848302363900622 l -26.274556276610568 10.586391805110313" fill="red" stroke="none" /><path d="M 119.47837535516314 92.15188598940014 l 26.689224480830454 -10.753467512603839 a49.77415102019147,49.77415102019147 0 0,0 0.313355419715793,0.7974553638671871 l -26.870373450427945 10.292463143840868" fill="red" stroke="none" /><path d="M 119.97218684219823 93.5106431181261 l 26.834102776673767 -8.71892852287943 a49.21504539099966,49.21504539099966 0 0,0 0.25485077630333486,0.8079466051363505 l -26.980209036745308 8.25573175131666" fill="red" stroke="none" /><path d="M 120.28053869075195 94.5502522615342 l 27.503567264785712 -7.390706222678269 a49.47926878904245,49.47926878904245 0 0,0 0.2139475763057286,0.8244272862150075 l -27.62671117296174 6.916182510914412" fill="red" stroke="none" /><path d="M 120.37134235888165 94.90015583598534 l 27.351471478558974 -6.847277893610529 a49.19553522447752,49.19553522447752 0 0,0 0.19857941717377042,0.8232398863952997 l -27.465283695993566 6.375452775555822" fill="red" stroke="none" /><path d="M 120.67395015179393 96.31383870115 l 28.00252139647461 -4.992844129158679 a49.44415048930259,49.44415048930259 0 0,0 0.1421828669887113,0.8391713294779933 l -28.084316124983545 4.510087011364848" fill="red" stroke="none" /><path d="M 120.83666639777658 97.38593545837742 l 28.206324911626783 -3.538625248078886 a49.42742748942646,49.42742748942646 0 0,0 0.09864219228678897,0.8451060637415654 l -28.26305745691716 3.052575446012468" fill="red" stroke="none" /><path d="M 120.94382443527127 98.46500227214037 l 28.41865236021333 -2.082836730062346 a49.494876922260175,49.494876922260175 0 0,0 0.054961489435061954,0.8502299150293803 l -28.450294440652808 1.5933477507799305" fill="red" stroke="none" /><path d="M 120.96714384426684 98.82574320788733 l 56.682973459608846 -3.1745080339250755 a77.7717974128015,77.7717974128015 0 0,0 0.06335213499659656,1.3372634411299402 l -56.729219202838934 2.1983334861721358" fill="red" stroke="none" /><line stroke="#e1ed5e" stroke-width="0.3" x1="184.98032266829074" x2="189.97916517819016" y1="98.17113171792111" y2="98.06355123074" /><path d="M 185.9800911702706 98.14961562048488 a86.0,86.0 0 0,1 -9.607161424134198,41.387399972396054" fill="none" id="id88" stroke="none" /><text fill="#e1ed5e" style="font-size:6.75px; font-family:Arial;" text-anchor="middle"><textPath startOffset="21.466115282336823" xlink:href="#id88">April</textPath></text><path d="M 120.99980553446 99.90962569577887 l 28.38702941590831 -0.12216579949550642 a49.38729228972376,49.38729228972376 0 0,0 -0.003658664022820485,0.8501446695199705 l -28.384926454595984 -0.3664883482281488" fill="red" stroke="none" /><path d="M 120.99824983174949 100.27111621757518 l 28.537650457513198 0.36846022466240524 a49.540029021925704,49.540029021925704 0 0,0 -0.018348535253116645,0.8525843340274869 l -28.527079859575075 -0.859634374480007" fill="red" stroke="none" /><path d="M 120.95626037817324 101.35467743843564 l 28.181866515396106 1.8217629506634279 a49.24068732414305,49.24068732414305 0 0,0 -0.0619575434684374,0.8453614551293589 l -28.14633241326333 -2.306597542289557" fill="red" stroke="none" /><path d="M 120.92983693683757 101.71520430193887 l 28.24077946450992 2.314337496933851 a49.335450990107766,49.335450990107766 0 0,0 -0.0766470955430871,0.8457943124185071 l -28.196757772689757 -2.8001131979009286" fill="red" stroke="none" /><path d="M 120.81339534386255 102.79330883721812 l 27.995267183922998 3.757168205051839 a49.2462616574351,49.2462616574351 0 0,0 -0.11998722436130599,0.839190367721462 l -27.926445908545087 -4.238504044753711" fill="red" stroke="none" /><path d="M 120.70491114924044 103.5080841355445 l 39.588813106817156 6.707630194788654 a61.15303756923675,61.15303756923675 0 0,0 -0.18477989502539635,1.0363437812665908 l -39.46748676945257 -7.388092726788463" fill="red" stroke="none" /><path d="M 120.32669344350535 105.2749913415812 l 29.438975764155142 7.639724714329015 a51.414119874710224,51.414119874710224 0 0,0 -0.22967892803052523,0.8547207338600278 l -29.30310875978284 -8.145336381364592" fill="red" stroke="none" /><line stroke="#e1ed5e" stroke-width="0.3" x1="174.80103733775053" x2="179.2010983576182" y1="140.37084112569926" y2="142.7455964860345" /><path d="M 175.68104954172406 140.8457921977663 a86.0,86.0 0 0,1 -30.038265399797805,32.042727171017184" fill="none" id="id89" stroke="none" /><text fill="#e1ed5e" style="font-size:6.75px; font-family:Arial;" text-anchor="middle"><textPath startOffset="22.206326154141568" xlink:href="#id89">May</textPath></text><path d="M 118.48025628344425 109.97397251340804 l 25.378998188260418 13.69729004106458 a49.83937071970837,49.83937071970837 0 0,0 -0.413960094838516,0.7514578149695654 l -25.139461683970392 -14.13211837443195" fill="red" stroke="none" /><path d="M 115.80600337817218 113.82643327865902 l 22.44906165617372 19.63750391109194 a50.82602771239979,50.82602771239979 0 0,0 -0.5816945699144572,0.6535400158006897 l -22.10770823661092 -20.021018096633497" fill="red" stroke="none" /><path d="M 115.32070863581623 114.36230785411682 l 22.000964885832943 20.624674634125515 a51.15658567661788,51.15658567661788 0 0,0 -0.6077729990541364,0.6372475596638327 l -21.642685335399843 -21.000329310371857" fill="red" stroke="none" /><path d="M 114.81725581225074 114.88116024355365 l 20.732856862566308 20.82227432581828 a50.38398308234086,50.38398308234086 0 0,0 -0.6198430680390448,0.6066469017486077 l -20.371363842151467 -21.17607133048946" fill="red" stroke="none" /><path d="M 111.45004920935366 117.60387380957326 l 15.246908950447544 23.441354376928704 a48.96364295952857,48.96364295952857 0 0,0 -0.710481573706907,0.4534629556119526 l -14.841145574693707 -23.700331761364463" fill="red" stroke="none" /><line stroke="#e1ed5e" stroke-width="0.3" x1="143.8653032363475" x2="146.44561519142675" y1="172.8068346515853" y2="177.08958963109032" /><path d="M 144.38136562736335 173.6633856474863 a86.0,86.0 0 0,1 -40.68145358897372,12.25698825130547" fill="none" id="id90" stroke="none" /><text fill="#e1ed5e" style="font-size:6.75px; font-family:Arial;" text-anchor="middle"><textPath startOffset="21.466115282336833" xlink:href="#id90">June</textPath></text><path d="M 110.5260780823613 118.17145234162733 l 14.309647036137191 24.703129418962508 a49.548390521863766,49.548390521863766 0 0,0 -0.7416951265532308,0.42115384991067234 l -13.882303142662762 -24.94578643466781" fill="red" stroke="none" /><path d="M 109.89434966115114 118.52300852407294 l 3.28930352217143 6.157837479573768 a27.98129501495337,27.98129501495337 0 0,0 -0.42679349297045627,0.2232781840159541 l -3.182819126674478 -6.213545082534439" fill="red" stroke="none" /><path d="M 106.2309692047433 120.05430185196036 l 8.483739849021351 27.304817946502393 a49.592427754870904,49.592427754870904 0 0,0 -0.8173895392488073,0.2462727630270325 l -8.012475335332299 -27.446806078635152" fill="red" stroke="none" /><path d="M 104.48393922423573 120.51570834832081 l 6.112460816700679 27.966807116424338 a49.62698862128156,49.62698862128156 0 0,0 -0.8361167770360245,0.17521640003904865 l -5.630152578235276 -28.067879497189928" fill="red" stroke="none" /><path d="M 103.41894727170886 120.7198165907248 l 4.671746501595064 28.31214493197739 a49.69499548744447,49.69499548744447 0 0,0 -0.845203340297702,0.1320033792698854 l -4.183707297688844 -28.388366618594382" fill="red" stroke="none" /><path d="M 102.70371172650421 120.8252237178851 l 3.682514795837586 28.364412417183154 a49.602461554796584,49.602461554796584 0 0,0 -0.8476649143411755,0.1026404162278473 l -3.1937224584450297 -28.423598362136353" fill="red" stroke="none" /><line stroke="#e1ed5e" stroke-width="0.3" x1="102.19456741930631" x2="102.32365962044197" y1="184.97166512339345" y2="189.96999836594603" /><path d="M 102.22038585953345 185.97133177190398 a86.0,86.0 0 0,1 -42.740103519485714,-10.115201625700543" fill="none" id="id91" stroke="none" /><text fill="#e1ed5e" style="font-size:6.75px; font-family:Arial;" text-anchor="middle"><textPath startOffset="22.20632615414155" xlink:href="#id91">July</textPath></text><path d="M 100.18074693466247 120.99922214144158 l 0.47050369572835454 54.66323201231509 a75.66525686173883,75.66525686173883 0 0,0 -1.3025012607815825,0.0 l 0.4705036957283169 -54.66323201231509" fill="red" stroke="none" /><path d="M 99.45781275523022 120.99299961872073 l -0.7419250381831285 28.726666283547914 a49.73624555380559,49.73624555380559 0 0,0 -0.8556520620334516,-0.02947038709310951 l 1.236297451891223 -28.70963909802871" fill="red" stroke="none" /><path d="M 95.16358092515715 120.4354850818985 l -11.664997072964818 49.28850663601931 a71.650064591481,71.650064591481 0 0,0 -1.1977390391798193,-0.29437511498435515 l 12.511689396887848 -49.080410262720925" fill="red" stroke="none" /><path d="M 90.10565033884886 118.52300852407294 l -13.701141555502783 25.649625343095234 a50.07962448459537,50.07962448459537 0 0,0 -0.7568633524569172,-0.4127022463533213 l 14.140627719828341 -25.40998244498215" fill="red" stroke="none" /><line stroke="#e1ed5e" stroke-width="0.3" x1="58.666819895761336" x2="56.23545636021788" y1="174.27360380694188" y2="178.64263932499728" /><path d="M 58.180547188652646 175.14741091055294 a86.0,86.0 0 0,1 -31.652253787137756,-30.449443065178592" fill="none" id="id92" stroke="none" /><text fill="#e1ed5e" style="font-size:6.75px; font-family:Arial;" text-anchor="middle"><textPath startOffset="22.20632615414155" xlink:href="#id92">August</textPath></text><path d="M 89.1626897886671 117.98757091392108 l -25.909895488709726 43.00477456002699 a71.20690509476366,71.20690509476366 0 0,0 -1.0444384703634888,-0.6415794135898287 l 26.646313159005523 -42.55240667960878" fill="red" stroke="none" /><path d="M 87.95078237400918 117.19931262002967 l -16.402983399518817 23.413971607661313 a49.58796828823727,49.58796828823727 0 0,0 -0.6948754254630589,-0.495775165981062 l 16.80358615283076 -23.128152179836032" fill="red" stroke="none" /><path d="M 86.51685102203217 116.09983520530335 l -18.921241846915326 22.59330339765626 a50.46982781503831,50.46982781503831 0 0,0 -0.6612377153870752,-0.5635211262987501 l 19.307345038879458 -22.264257881134558" fill="red" stroke="none" /><path d="M 85.70375840098266 115.38237550388516 l -26.58222048332035 28.60176182456284 a60.04708984409563,60.04708984409563 0 0,0 -0.7510580357694775,-0.7101722514989782 l 27.070614353480643 -28.13995493631793" fill="red" stroke="none" /><path d="M 84.9287848128048 114.62390073753433 l -20.76055958141996 20.14438509459394 a49.92744518572262,49.92744518572262 0 0,0 -0.5931700228678096,-0.6219363975143977 l 21.10423615566673 -19.784041580497043" fill="red" stroke="none" /><path d="M 83.06392112726016 112.41649034213515 l -23.20487665259194 17.01238692924993 a49.773036153533056,49.773036153533056 0 0,0 -0.5006224300212213,-0.6953207696243877 l 23.49427887498877 -16.610432554174405" fill="red" stroke="none" /><path d="M 82.44556493220864 111.52570212397912 l -25.434655109991073 16.699612222883328 a51.42694084128191,51.42694084128191 0 0,0 -0.4794830908628277,-0.7441684049420513 l 25.718343064230947 -16.25932221801983" fill="red" stroke="none" /><line stroke="#e1ed5e" stroke-width="0.3" x1="26.63291911575756" x2="22.317208475507996" y1="142.92168965132927" y2="145.44649492493687" /><path d="M 25.769776987707644 143.4266507060508 a86.0,86.0 0 0,1 -11.730757126820373,-40.83630448921669" fill="none" id="id93" stroke="none" /><text fill="#e1ed5e" style="font-size:6.75px; font-family:Arial;" text-anchor="middle"><textPath startOffset="21.46611528233685" xlink:href="#id93">September</textPath></text><path d="M 81.87401531095188 110.60418214915194 l -24.67644207331252 14.436373583417389 a49.589083154895675,49.589083154895675 0 0,0 -0.4246903627638935,-0.7404834447360676 l 24.92128443222879 -14.009470292823014" fill="red" stroke="none" /><path d="M 81.35079622478065 109.6543875284942 l -42.393614634011435 21.946480361496025 a68.73747544638907,68.73747544638907 0 0,0 -0.5349128415706063,-1.0554337836132504 l 42.765106145368314 -21.21349236618009" fill="red" stroke="none" /><path d="M 81.18737489456691 109.33194174019688 l -46.70564016756757 23.168181502562618 a73.13618184713938,73.13618184713938 0 0,0 -0.5497289584859362,-1.132604478820047 l 47.09752238266823 -22.360788067777285" fill="red" stroke="none" /><path d="M 80.73074385275274 108.34839909993369 l -26.2523112714116 11.373805512504994 a49.61026562140543,49.61026562140543 0 0,0 -0.3327408207411428,-0.7865010101825837 l 26.444203073345047 -10.920229976656252" fill="red" stroke="none" /><path d="M 80.45479744820244 107.68017299344265 l -26.883516624603892 10.563720575515879 a49.8845228193739,49.8845228193739 0 0,0 -0.3071597219187227,-0.8018971087425802 l 27.061370626116126 -10.09939989994014" fill="red" stroke="none" /><path d="M 80.20201598880116 107.00284435728193 l -27.090890188570842 9.582454828909112 a49.73568812047638,49.73568812047638 0 0,0 -0.2785415691579034,-0.8095721823912482 l 27.251822588671974 -9.114709943428567" fill="red" stroke="none" /><path d="M 79.86692584326677 105.97154293290107 l -33.16190830417128 9.835942471262387 a55.58985294377886,55.58985294377886 0 0,0 -0.2642036494384673,-0.9197275639578473 l 33.326304590495845 -9.263657431799944" fill="red" stroke="none" /><path d="M 79.58551787078972 104.9243191809786 l -27.864039473818135 6.721278706557885 a49.66322178767983,49.66322178767983 0 0,0 -0.1933068401423939,-0.8327608080233924 l 27.975606879891085 -6.240649241185919" fill="red" stroke="none" /><path d="M 79.4281124754447 104.21870165774334 l -28.67846862485431 5.881127970624983 a50.27528358314605,50.27528358314605 0 0,0 -0.16655499278794508,-0.8492603199469936 l 28.77545355061792 -5.386603923610035" fill="red" stroke="none" /><path d="M 79.18660465613746 102.79330883721812 l -28.807965282035372 3.866238193006369 a50.06624608469447,50.06624608469447 0 0,0 -0.10728121483272145,-0.8551368371455927 l 28.87024800611494 -3.3697836015733675" fill="red" stroke="none" /><path d="M 79.07016306316243 101.71520430193888 l -28.213000920025628 2.3120610396855428 a49.30757932364756,49.30757932364756 0 0,0 -0.06204171093628728,-0.8465098533567539 l 28.24861918962625 -1.8260780498320284" fill="red" stroke="none" /><path d="M 79.0095281055655 100.63252640178507 l -28.209487025340856 0.8500640392497634 a49.22229202427931,49.22229202427931 0 0,0 -0.018230852469766762,-0.8471160775108028 l 28.219939940495628 -0.36435814594883165" fill="red" stroke="none" /><line stroke="#e1ed5e" stroke-width="0.3" x1="15.007084014347285" x2="10.007500721073583" y1="101.09737516637583" y2="101.16192664675087" /><path d="M 14.007167355692545 101.11028546245083 a86.0,86.0 0 0,1 10.666146001902534,-42.60595125391555" fill="none" id="id94" stroke="none" /><text fill="#e1ed5e" style="font-size:6.75px; font-family:Arial;" text-anchor="middle"><textPath startOffset="22.20632615414155" xlink:href="#id94">October</textPath></text><path d="M 79.05617556472873 98.46500227214037 l -20.431431059317653 -1.497443809744537 a41.48623228158346,41.48623228158346 0 0,0 0.05832868678561881,-0.7117577199304722 l 20.402627888712537 1.8489154468827875" fill="red" stroke="none" /><path d="M 79.12142395522702 97.74499172005258 l -27.74764197296844 -2.996907560356607 a48.909014493266554,48.909014493266554 0 0,0 0.0976075967788169,-0.8362422812460688 l 27.691944023186036 3.4740935799275374" fill="red" stroke="none" /><path d="M 79.26566170972629 96.67025291283419 l -46.114813631293174 -7.405621737927459 a67.7056663540321,67.7056663540321 0 0,0 0.19469615026918416,-1.1491077000059011 l 45.98050561950377 8.198315226249187" fill="red" stroke="none" /><path d="M 79.62865764111835 94.90015583598534 l -27.454213211243697 -6.872998674136542 a49.301447557026314,49.301447557026314 0 0,0 0.21317868010865065,-0.8214644155151782 l 27.33183819926474 7.344559515200584" fill="red" stroke="none" /><path d="M 79.71946130924805 94.55025226153421 l -35.725028984648844 -9.599961760606272 a57.99239059264895,57.99239059264895 0 0,0 0.26735383885006403,-0.9618140062444419 l 35.55448837523242 10.213487070269657" fill="red" stroke="none" /><path d="M 80.02781315780177 93.51064311812611 l -26.5170727177902 -8.615919212450272 a48.88170026013555,48.88170026013555 0 0,0 0.266900382707819,-0.797998172574447 l 26.364835041310606 9.071090487947043" fill="red" stroke="none" /><path d="M 80.803312248108 91.48605970444005 l -25.999555800795964 -11.531086438452858 a49.44192075598578,49.44192075598578 0 0,0 0.3517384955155166,-0.7750091501640436 l 25.797214988317094 11.976917597458973" fill="red" stroke="none" /><path d="M 81.6062741919709 89.86733742301443 l -26.247897831686196 -14.45933764912228 a50.96705834468845,50.96705834468845 0 0,0 0.4299249967411627,-0.7647885968822511 l 25.9951151936526 14.909009755939314" fill="red" stroke="none" /><line stroke="#e1ed5e" stroke-width="0.3" x1="26.266209847984243" x2="21.928928074336255" y1="57.711370442889674" y2="55.22380399835377" /><path d="M 25.398753493254645 57.213857153982495 a86.0,86.0 0 0,1 29.58750427330803,-30.492523968695096" fill="none" id="id95" stroke="none" /><text fill="#e1ed5e" style="font-size:6.75px; font-family:Arial;" text-anchor="middle"><textPath startOffset="21.46611528233685" xlink:href="#id95">November</textPath></text><path d="M 82.54541684631803 88.32363383020206 l -24.746502525827054 -16.554346922483433 a50.773071546125394,50.773071546125394 0 0,0 0.4921978652210358,-0.7222396331852945 l 24.457880194937278 16.977864578939144" fill="red" stroke="none" /><path d="M 85.31137513191541 84.99185889309783 l -26.4895101199667 -27.065726662880966 a58.871462952803974,58.871462952803974 0 0,0 0.7303334558216966,-0.7025802058580259 l 26.019693420532576 27.517689955501307" fill="red" stroke="none" /><path d="M 86.37877921826538 84.01681056812374 l -40.72843601207897 -47.79089323021825 a83.79151993487761,83.79151993487761 0 0,0 1.1058184865091327,-0.9260911808142092 l 39.89975998861073 48.48488556842627" fill="red" stroke="none" /><path d="M 86.93701828274178 83.55741782278169 l -35.29841475305136 -44.43067424153151 a77.7455980463289,77.7455980463289 0 0,0 1.0549983058506998,-0.8234429118223056 l 34.52838389204124 45.03169554257704" fill="red" stroke="none" /><path d="M 88.39885842347998 82.49532879139004 l -31.293149919421378 -47.21744811130268 a77.64581748040135,77.64581748040135 0 0,0 1.1204401431664957,-0.7287654361856899 l 30.475742750470594 47.749112471647905" fill="red" stroke="none" /><path d="M 88.70189139769569 82.29822771554957 l -26.40847163796327 -41.376549630638955 a70.08590666973403,70.08590666973403 0 0,0 1.0225228329634777,-0.6403037041953076 l 25.692329652627553 41.824997676157196" fill="red" stroke="none" /><path d="M 89.00827224532344 82.1063720568725 l -14.870314376776586 -24.207647677788565 a49.410147056221135,49.410147056221135 0 0,0 0.7285359924938294,-0.4389347838326798 l 14.451416318065107 24.460029071079862" fill="red" stroke="none" /><line stroke="#e1ed5e" stroke-width="0.3" x1="56.762969772571076" x2="54.21961505331055" y1="26.818313649435495" y2="22.513508569990535" /><path d="M 56.25429882871897 25.957352633546506 a86.0,86.0 0 0,1 42.265352541879196,-11.944610805530505" fill="none" id="id96" stroke="none" /><text fill="#e1ed5e" style="font-size:6.75px; font-family:Arial;" text-anchor="middle"><textPath startOffset="22.20632615414155" xlink:href="#id96">December</textPath></text><path d="M 89.63071344664047 81.73862282372117 l -13.968782651869503 -24.60045899846442 a49.289741457113024,49.289741457113024 0 0,0 0.7414019991509017,-0.41258940982856673 l 13.543256563646557 24.83726380585317" fill="red" stroke="none" /><path d="M 93.59665428221793 80.00007090966166 l -3.4156125271770197 -10.668174319232747 a32.20162275035835,32.20162275035835 0 0,0 0.5293557712321274,-0.16447341489367823 l 3.2314713832341635 10.725387869008951" fill="red" stroke="none" /><path d="M 96.04723909329186 79.375362276772 l -5.350276526434589 -27.91656709859073 a49.424640322780434,49.424640322780434 0 0,0 0.8369353922150187,-0.15294459337089908 l 4.868946013116677 28.004527173312365" fill="red" stroke="none" /><path d="M 96.75951476605007 79.25152402106235 l -4.364754522987155 -27.947050468046672 a49.285839423808596,49.285839423808596 0 0,0 0.8393402382650745,-0.123696932875785 l 3.883045304293432 28.018041885083427" fill="red" stroke="none" /><path d="M 97.47563105711357 79.15227682838746 l -4.643786383051773 -38.351118704253096 a59.631244580509296,59.631244580509296 0 0,0 1.0200727887845056,-0.11461706337399043 l 3.9829468907575496 38.42537172109768" fill="red" stroke="none" /><path d="M 97.83486435360386 79.11191278185805 l -6.268908516394351 -60.47912428533337 a81.80315524960626,81.80315524960626 0 0,0 1.4018523856699867,-0.13312277559978306 l 5.226931003634128 60.578072605448334" fill="red" stroke="none" /><path d="M 98.19473922651362 79.07773832637324 l -1.6057393492741454 -18.60988691416126 a39.679033428303455,39.679033428303455 0 0,0 0.6809863297228791,-0.05285764556057302 l 1.2851628301889322 18.634769821910297" fill="red" stroke="none" /></svg>